<?xml version="1.0" encoding="utf-8"?>
<!-- Generator: Adobe Illustrator 16.0.4, SVG Export Plug-In . SVG Version: 6.00 Build 0)  -->
<!DOCTYPE svg PUBLIC "-//W3C//DTD SVG 1.1//EN" "http://www.w3.org/Graphics/SVG/1.1/DTD/svg11.dtd">
<svg version="1.1" id="Layer_1" xmlns="http://www.w3.org/2000/svg" xmlns:xlink="http://www.w3.org/1999/xlink" x="0px" y="0px"
	 width="1024px" height="576px" viewBox="0 0 1024 576" enable-background="new 0 0 1024 576" xml:space="preserve">
<rect fill="#E8E8E8" width="1024" height="576"/>
<image display="none" overflow="visible" width="2060" height="1236" xlink:href="chips.jpeg"  transform="matrix(0.3851 0 0 0.3851 256.6133 118.5)">
</image>
<g>
	<path display="none" fill="#010101" d="M942.52,287.57c1.91-0.65,4.051-0.48,6.021-0.12c2.39,2.21,5.24,4.28,6.28,7.521
		c2.859,5.539,8.18,9.389,11.83,14.26c-0.54,4.06-6.53,4.1-7.82,7.869c-1.07,4.301-2.37,8.58-4.641,12.431
		c-3.97,0.029-8.5-1.32-11.26,2.41c-1.14-1.141-2.05-2.57-3.42-3.421c-2.529-0.64-5.05,0-7.47,0.711
		c-5.5,0.149-11.04,0.159-16.48,1.06c-0.43,1.39-0.869,2.78-1.31,4.17c-5.16,0.14-10.27-0.58-15.36-1.3
		c-0.6-1.99-1.67-3.78-2.67-5.58c-1.21-6.47-3.609-12.61-5.89-18.75c-0.811-2.47-1.44-4.99-2.13-7.49
		c-0.197-1.123-0.513-2.298-0.592-3.109c2.271,3.16,7.852,8.989,10.021,12.22c4.26-0.4,8.271,1.05,12.4,1.79
		c4.43,0.069,8.43,2.52,12.92,2.319c4.17,0.671,8.39,0.511,12.569,1.03c-0.59-4.479-4.119-7.87-6.38-11.619
		c0.891-2.211,2.53-4.031,3.96-5.91C936.07,294.42,938.74,290.439,942.52,287.57z"/>
	<path fill="#010101" d="M944.932,328.614c-2.529-0.64-23.932,0.775-29.372,1.676c-0.43,1.39-0.869,2.78-1.31,4.17
		c-5.16,0.14-10.27-0.58-15.36-1.3c-0.6-1.99-1.67-3.78-2.67-5.58c-1.21-6.47-3.609-12.61-5.89-18.75
		c-0.811-2.47-1.44-4.99-2.13-7.49c-0.197-1.123-3.552-9.778-3.631-10.59c2.271,3.16,10.891,16.47,13.061,19.7
		c4.26-0.4,8.271,1.05,12.4,1.79c4.43,0.069,8.43,2.52,12.92,2.319c4.17,0.671,13.812,0.605,17.991,1.125
		C942.828,315.188,946.078,327.095,944.932,328.614z"/>
	<g>
		<polygon fill="#FAC545" points="931.375,303.375 934.625,306.625 934.625,309.125 936.125,310.25 938.625,312.125 938.625,316 
			938.625,319.125 940.375,321 942.375,323.5 942.375,325.5 944.375,330.25 946.25,327.5 948.75,325.25 965.25,313.375 966,311.625 
			967,310.375 968.75,308.375 965.75,307.625 962.875,303.375 961,302.5 960.875,301.25 957.5,296.938 956.25,290.75 955.75,285.75 
			950.062,286.375 944.875,285.75 940.875,291.125 939.875,294.875 935,299 		"/>
		<path fill="#E01919" d="M935.833,309.25c0,0,6.417-5.166,11.417-5.375c0.932,0.241,1.417,0.367,2.082,0.54
			c3.277-1.665,7.319-10.206,7.293-10.79c-0.018-0.39,0.401,3.739,0.5,4.812c1.604,2.979,3.461,2.828,3.461,2.828l-3.364,2.547
			l0.012,0.657c0,0-0.421,4.843-4.838,6.072c-0.43-0.106-0.913-0.318-1.646-0.543c-0.485,0.114-1.006,0.2-1.562,0.251
			c-6.125,0.562-9.188,6.938-9.562,7s-0.562-3-0.562-3l0.312-2.438L935.833,309.25z"/>
		<g>
			<path fill="#FFFFFF" d="M944.208,307.391l1-0.781c0,0-1.812-1.594-4.156-0.156c-1.635,1.003-1.69,2.351-1.233,3.393
				c0.222,0.072,0.33,0.066,0.478,0.097c0.654,0.952,2.026,2.603,3.62,2.053c0.08-0.027-0.026-0.224,0.055-0.258
				c2.141-0.922,2.768-2.456,2.518-3.394c-0.671,0.219-1.28,0.565-1.28,0.565s0.016,1.263-1.469,1.731
				c-0.076,0.023,0.113,0.322,0.039,0.339c-0.838,0.186-1.332,0.053-1.841-0.704c-0.147-0.04-0.334-0.083-0.521-0.143
				c-0.375-0.875-0.678-2.258,0.072-2.82S943.646,306.578,944.208,307.391z"/>
			<polygon fill="#FFFFFF" points="945.755,305.514 948.276,309.664 948.989,309.459 949.521,309.565 948.364,307.769 
				948.911,307.831 949.88,307.44 950.692,308.728 950.958,308.877 951.286,309.394 952.396,309.081 951.395,307.422 
				951.12,307.253 949.724,304.94 948.661,305.237 949.451,306.522 948.608,306.895 947.932,306.779 947.211,305.631 
				946.526,305.186 			"/>
			<polygon fill="#FFFFFF" points="952.151,306.252 953.22,308.162 953.381,308.749 953.776,309.455 954.676,308.541 
				953.714,306.678 953.646,306.239 953.247,305.466 			"/>
			<path fill="#FFFFFF" d="M953.026,304.535c0,0.515-0.462,0.931-1.031,0.931c-0.098,0-0.035-0.146-0.125-0.169
				c-0.434-0.111-0.75-0.469-0.75-0.896c0-0.514,0.462-0.931,1.032-0.931c0.069,0-0.021,0.14,0.045,0.151
				C952.67,303.707,953.026,304.084,953.026,304.535z"/>
			<g>
				<path fill="#FFFFFF" d="M952.609,302.155l1.354,1.991l-0.042,0.311l1.887,3l0.534-0.572l0.074-0.37l-1.493-2.327
					c0,0,1.622-1.313,0.664-2.592c-0.301-0.401-0.647-0.592-0.921-0.647c-0.037-0.134,0.032-0.148-0.004-0.291
					C954.083,300.695,953.398,301.456,952.609,302.155z"/>
				<path fill="#E01919" d="M953.778,302.063l0.361,0.545l0.021,0.349l0.41,0.619c0,0,0.884-0.756,0.547-1.365
					c-0.197-0.354-0.384-0.513-0.556-0.556c-0.029-0.104-0.029-0.104-0.053-0.188C954.227,301.545,953.93,301.902,953.778,302.063z"
					/>
			</g>
			<path fill="#FFFFFF" d="M956.881,297.541c0,0-1.278-0.833-1.879,0.542s-0.06,1.999,0.399,2.583s1,0.518,1.479,0.259
				s0.917-0.029,0.792,0.7s-0.479,0.124-0.479,0.124l-0.604,0.668l0.604,0.791h0.146c0,0,0.23,0.114,0.459-0.422
				s-0.052-2.89-0.052-2.89s-0.281-0.417-0.553-0.167s-0.813,0.999-1.334,0.396s-0.417-1.188-0.188-1.521s0.917-0.208,0.917-0.208
				L956.881,297.541z"/>
		</g>
		<polygon points="944.125,297.25 948.333,292.5 950.875,286.875 948.781,287.062 945.084,286.208 941.583,291 940.366,295.657 
			935.5,299.25 933,302.75 939.5,299 		"/>
		<g opacity="0.3">
			<polyline points="959.875,313.375 960.5,309.625 965.417,310.333 964.417,308 960.662,305.996 960.375,302.917 960.167,300.584 
				957.438,297.291 957.125,298.438 957.233,304.47 956.312,310.875 956.938,313.062 			"/>
			<polygon points="956.625,296.125 956.625,304.75 955.125,312.625 951.375,316.625 949,313.375 944.078,312.5 943.739,310.641 
				937.114,309.297 946.869,304.273 952.246,307.396 952.396,302.021 951.293,298.917 954.75,294 954.25,291 956.447,292.133 			"/>
			<polygon points="932.542,303.291 935.187,305.956 935.458,308.708 943.083,304.125 947.25,303.417 944.75,297.875 
				940.001,299.333 			"/>
			<polygon points="951.374,287.25 948.916,293.042 951.749,297.875 952.958,296.375 954.125,293.583 953.458,290.417 
				955.875,291.208 955.624,286.625 			"/>
			<polygon points="939.542,312.5 947.625,313.584 949.375,314.459 951.25,317.459 946.418,315.584 944.001,318.584 
				946.728,321.796 946.417,327 944.292,323.375 941.167,319.75 940.542,314.5 			"/>
		</g>
		<path fill="#010101" d="M945.563,328.507c0,0,8.812,0.368,9.562-0.257s1.5-1.75,1.375-3.25s3.25-2,3.25-4s2.875-1.375,3.25-2.938
			s4.75-3.188,4-5.438s-4.875-3.125-6-2.625s-1.625,2.125-0.625,3.25s-3.039-0.435-5.639,0.125c-3.486,0.75-1.236,2.5-0.986,3
			s-5.212-0.125-5.875,1.688c-1.006,2.75,3.714,1.917,2.562,2.625c-1.187,0.729-2.138,0.774-2.75,1.25
			c-1.711,1.329,0.056,2.711,2.75,2C946.375,326.312,945.563,328.507,945.563,328.507z"/>
	</g>
	<linearGradient id="SVGID_1_" gradientUnits="userSpaceOnUse" x1="362.4521" y1="210.335" x2="466.4438" y2="512.3485">
		<stop  offset="0" style="stop-color:#E8E8E8"/>
		<stop  offset="0.63" style="stop-color:#444444"/>
	</linearGradient>
	<path fill="url(#SVGID_1_)" d="M558.79,336.23c-1.11-2.671-1.82-5.551-3.24-8.07c-2.02-0.98-4.39-0.51-6.56-0.8
		c-0.99-2.431-1.141-5.931-3.98-6.95c-3.43,0.81-2.91,4.89-3.689,7.57c-0.851-1.061-1.69-2.11-2.54-3.15
		c-1.221-1.24-2.23-2.66-3-4.22c1.72-0.891,3.56-1.591,5.189-2.67c1.61-2.181,2.38-4.82,3.59-7.21
		c1.561,2.479,0.631,5.47,1.11,8.199c3.15-2.449,5.76-5.88,9.97-6.479c0.561-3.87,0.851-7.78,1.03-11.681
		c-3.92-0.289-7.89-1.879-11.81-0.789c-3.63,0.879-7.28,1.77-10.73,3.229c0.37,3.5,1.43,6.9,1.48,10.44
		c-2.221,0.06-4.24-0.721-5.94-2.12c-5.79-0.41-10.29-4.391-15.64-6.021c-2.721,0.82-4.721,3.021-7.2,4.34
		c1.61-2.229,4.02-3.729,5.59-5.97c0.58-2.489-1.27-4.569-2.24-6.68c3.12,0.989,6.29,1.87,9.37,3.021
		c2.76,1.139,5.74-0.041,8.08-1.58c2.95-1.99,6.16-3.811,8.271-6.761c-2.021-1.3-4.351-0.149-6.53-0.38
		c-2.23-1.09-3.92-3.19-6.36-3.81c-1.52,0.18-2.97,0.69-4.42,1.14c-1.13-0.33-2.66,0-3.43-1.06c0.609-2.63,2.24-4.99,2.35-7.73
		c-1.09-0.71-2.2-1.38-3.319-2l-0.551,1.06c-3.699-0.62-7.569-0.67-10.77,1.55c-1.13-0.76-2.25-1.52-3.36-2.27
		c3.07-0.9,4.95-3.24,5.84-6.25c1.601-0.38,3.25-0.63,4.78-1.31c0.32-1.81,0.271-3.66,0.311-5.5c1.89,0.65,3.8,1.26,5.739,1.77
		c-0.5-4-4.479-5.23-7.779-6.2c-1.16,1.8-2.301,3.6-3.431,5.41c-4.16-1.69-8.439-3.26-12.96-3.59c0.86,2.47,2.04,4.82,3.07,7.23
		c-2.561,0.81-5.11,1.62-7.69,2.32c-0.17-2.39,0.811-4.55,1.971-6.57c-2.49-1.8-4.99-3.57-7.46-5.39c-1.57-0.21-3.131-0.46-4.69-0.7
		c0.67-1.34,1.35-2.68,2.03-4.01l0.52,0.39c-0.62-1.7-1.24-3.4-1.83-5.11c2.551-0.22,5.12-0.36,7.681-0.49
		c-0.82-1.24-1.46-2.68-2.71-3.54c-4.73-0.22-10.71,1.93-13.851-2.95c-0.569-2.64-0.859-5.4-2.03-7.86
		c-2.27-2.13-5.26-3.6-6.479-6.65c2.45,0.06,4.89,0.19,7.34,0.33c-0.14-0.54-0.41-1.6-0.55-2.13c-2.88-0.35-6.49-2.49-9.01-0.33
		c-1.16,2.68-1.181,5.68-1.79,8.5c1.59,1.43,3.18,2.87,4.75,4.32c-0.74,3.34-0.94,6.79-0.21,10.16c-0.15,0.43-0.45,1.29-0.61,1.72
		c-1.69-1.1-3.36-2.22-5.06-3.3c-0.54-2.27-1.08-4.53-1.67-6.78c-1.761,1.03-4.7,1.52-4.841,4.01c0.86,2.4,2.21,4.57,3.391,6.82
		c-1.61,0.95-3.32,1.78-4.721,3.03c-1.38,3.01,1.66,4.94,3.521,6.72c-1.53,2.29-2.86,4.71-3.73,7.34c-1.159-3-2.199-6.59-5.42-7.98
		c-2.31,0.61-4.42,1.83-6.76,2.29c-1.82-0.79-2.63-2.89-3.95-4.28c-0.18-2.67-0.22-5.41-1.13-7.95c-0.439-2.3-3.46-1.58-5.04-1.02
		c-2.81,1.58-2.52,5.09-2.689,7.84c-1.46-0.32-2.931-0.58-4.4-0.74c-1.55-0.47-3.11-0.86-4.65-1.3
		c-0.729-3.59-3.479-7.88-0.85-11.26c4.07-2.44,8.74-0.72,12.98,0.14c0.8-1,1.47-2.1,2.17-3.17c1.699-0.07,3.409-0.11,5.12-0.17
		c-0.641,2.68-1.37,5.39-1.271,8.17c0.19,2.95-0.01,6.83,3.33,8.1c0.88-3.82,1.729-7.66,3.24-11.29c2.27-5.8,3.05-12.12,2.399-18.3
		c1.71-0.65,3.42-1.28,5.141-1.9c1.27,1.33,2.04,3.62,4.09,3.87c1.78-3.45,2.3-8.05,6.05-10.08c4.94-2.83,10.89-2.01,16.2-0.83
		c0.14-1.78,0.27-3.56,0.399-5.33c-1.96,0.19-3.899,0.48-5.819,0.88c0.04-2.29,1.46-5.47-1.2-6.79c-3.521-1.31-7.95,0.89-10.99-1.9
		c-3.03-2.3-4.47-7-8.88-6.93c-0.56,1.83-0.939,3.7-1.479,5.54c-3.091-1.26-6.301-2.98-9.75-2.2c-4.381,0.73-8.811,0.48-13.19-0.03
		c1.18,2.56,3.5,5.12,2.61,8.14c-0.54,4.61-5.69,5.8-9.021,7.9c-2.05-2.94-1.88-6.86-4.29-9.6c-0.74,2.11-1.399,4.25-2.04,6.4
		c-1.79-1.15-4.12-1.98-4.899-4.14c-0.9-1.86-1.49-3.88-2.61-5.63c-1.8-1.57-4.38-2.97-6.73-1.75c-7.71-1.94-15.74-1.03-23.52-0.05
		c-4.02-1.07-8.09-0.19-12.14-0.03c-2.37-1.12-2.49-4.22-3.44-6.37c4.21-1.42,8.5-3.22,10.5-7.5c6.92,0.25,13.71-2.34,19.21-6.44
		c-1.02-1.8-1.62-4.04-3.33-5.34c-2.35-0.89-4.88-1.12-7.33-1.57c-0.6-1.46-1.14-2.95-1.87-4.34c-0.95-2.35-4.01-2.04-6.09-2.27
		c-3.95-0.49-7.06,2.28-10.58,3.45c-2.48,0.4-5,0.17-7.49,0.19c0.25,5.71-5.27,8.42-8.22,12.47c-2.27,3.08-4.55,6.15-7.09,9.01
		c3.62-0.23,6.68-2.33,10.09-3.34l0.55,0.34c0.86,4.07,1.21,8.52-0.03,12.55c-1.81,2.47-5.25,1.32-7.83,1.39
		c0.07-2.21,0.14-4.41,0.24-6.61c-2.11-1.17-4.25-2.28-6.41-3.33c-2.03,3.11-6.24,6.56-3.76,10.59c2.45,0.44,5.1-0.13,7.43,0.82
		c3.27,2.4,3.45,6.78,3.92,10.45c3.42,0.56,7.2,0.73,9.78,3.38c-0.17,0.75-0.5,2.26-0.67,3.01c1.18,1.18,2.45,2.25,3.63,3.42
		c-2.39,2.78-4.43,5.9-5.14,9.56c3.25,2.64,7.06,4.85,11.43,4.18c0.07-0.78,0.22-2.33,0.3-3.11c-1.4-1.53-2.86-2.99-4.23-4.54
		c5.11-1.28,10.4-0.58,15.58-1.22c2.84,0.52,5.64-0.59,8.4-1.1c-0.95,4.04-1.96,8.07-2.67,12.17c-2.69-0.24-5.35-0.74-8.02-1.13
		c-1.57,2.52-3.07,5.08-4.51,7.68c-1.41-1.61-2.82-3.23-4.21-4.86c-4.46,0.98-7.27,7-4.5,10.83c1.88,3.05,3.1,7.21,6.91,8.37
		c4.23,1.74,8.12-1.66,11.29-4.04c2.54-2.18,6.15-1.57,9.11-2.73c1.66-1.62,2.45-3.87,3.71-5.77c1.93,1.49,3.88,2.98,5.82,4.48
		c-0.19,0.42-0.58,1.25-0.77,1.67c-2.83,1.09-5.41,2.74-6.92,5.45c-4.43,2.63-9.66,3.32-14.17,5.77c-3.46,1.9-7.42,2.52-10.98,4.2
		c-3.81-2.7-8.41-2.62-12.72-1.36c0.34-3.96,2.3-7.4,3.96-10.9c-0.17-0.62-0.52-1.86-0.69-2.48c-1.45-0.35-2.65,0.61-3.78,1.35
		c-1.43,0.25-2.87,0.49-4.3,0.73c-1.35-1.92-2.5-4.11-4.43-5.53c-2.14-2.27-5.02-3.53-7.91-4.56c-0.01-3.53,0.98-6.94,1.49-10.4
		c-0.39-2.8-2.87-5.44-5.68-5.93c-2.84,0.48-5.66,3.32-8.5,1.41c-4.68-2.72-10.5-3.76-15.66-1.83c-1.68,2.38-0.95,6.61-4.53,7.53
		c-4.2,0.74-8.52,0.47-12.76,0.97c0.95-0.97,1.87-2,2.96-2.82c3.32-0.48,6.88,0.58,10.04-0.83c3.61-3.48-0.02-7.82-2.41-10.73
		c0.13-0.49,0.41-1.45,0.54-1.93c2.26,2.19,4.27,4.99,7.39,5.98c3.62-0.52,3.38-4.79,4.75-7.36c0.67-1.91,2.67-3.33,2.88-5.32
		c-1.68-2.56-3.39-5.18-3.49-8.35c-3.79-1.68-7.57-3.74-11.83-3.74c-0.04,3,0.21,6,0.19,9c0.18,2.34-1.69,4.02-2.93,5.77
		c-1.29-1.53-2.58-3.06-3.88-4.58c-3.06,0.3-6.19,0.78-9.24,0.11c-3.04-0.51-6.05-1.83-9.17-1.34c-2.15,1.73-3.43,4.23-4.87,6.52
		c1.71,1.53,3.39,3.09,5.03,4.7c-4.32,2.03-9.18,1.53-13.73,2.49c-2.05,3.5-1.74,7.82-3.31,11.52c-1.21,3.51-4.79,5.44-6.19,8.84
		c-1.62,3.97-2.89,8.08-4.01,12.22c-3.98,1.06-8.05,1.79-12.16,2.08c0.2,3.52,0.82,7.02,0.87,10.55c-0.02,3.03-1.89,5.79-1.71,8.81
		c1.12,3.3,2.66,6.47,3.41,9.901c2.2,0.75,4.41,1.449,6.63,2.149c1.88,3.3,3.44,6.94,6.39,9.46c1.99,1.76,4.13,3.33,6.23,4.95
		c-0.25,2.17-0.31,4.399-1.09,6.47c-1.77,4.05-5.44,6.77-7.84,10.4c1.17,3.409,4.72,5.489,7.65,7.34c2.24,1.68,4.14-0.891,5.63-2.28
		c-1.24-2.47-2.34-5-3.27-7.59c3.31-0.67,6.64-1.19,9.97-1.67c-2.03,1.34-4.15,2.6-5.91,4.31c-0.34,3.29,2.11,5.721,4.98,6.78
		c3.78,1.46,5.31,5.39,7.42,8.51c1.74,2.771,4.05,5.101,6.37,7.4c-0.51,0.93-1.02,1.88-1.52,2.83l0.71-0.09
		c-0.08,0.81-0.23,2.439-0.31,3.25c1.23,3.85,1.89,8.489,5.28,11.1c4.12,1.76,8.75,1.21,13.11,1.1c1.93,0.07,3.86,0.061,5.8,0.13
		c1.73,2.57,3.91,5.03,4.61,8.141c0.33,3.31-0.04,6.66,0.45,9.97c1.82-1.49,3.26-3.37,4.39-5.43c1.34,1.54,2.56,3.18,3.69,4.89
		c-1.97,2.65-3.77,5.57-3.78,8.99c2.18-0.41,4.49-0.85,6.22-2.37c4.37-3.38,4.72-9.37,6.76-14.13c1.26-0.2,2.53-0.4,3.8-0.59
		c0.63,1.04,1.27,2.08,1.91,3.14c0.76,2.22,1.14,4.69,2.6,6.601c1.19,0.409,2.39,0.76,3.62,1.069c0.25-2.25,0.43-4.5,0.59-6.75
		c1.85,0.57,3.69,1.23,5.47,2.01c-1.4,3.511,3.18,4.28,5.46,5.33c3.34,3.471,6.66,8.38,12.17,7.681c0.43-4.88-2.13-9.681,0-14.46
		c0.7,0.43,1.41,0.859,2.12,1.3c1.12,3.42,4.93,4.17,8.08,4.229c0.7,1.73,1.78,3.29,2.82,4.841c2.7-0.83,5.43-1.61,8.09-2.591
		c-1.68,1.96-3.22,4.04-4.87,6.04c0.22,1.561,0.46,3.12,0.69,4.69c-0.29,0.55-0.87,1.64-1.16,2.189
		c0.88,4.261,3.49,7.851,5.05,11.86c1.37,4.78,7.09,4.12,10.97,4.311c1.84,4.35,2.04,9.14,2.13,13.789
		c-0.1,2.99,1.9,6.631,5.28,6.49c3.54,0.811,4.79-3.09,6.48-5.359c0.279,1.21,0.58,2.42,0.88,3.63c0.47-0.09,1.41-0.28,1.88-0.37
		c1.73-3.74,5.16-6.04,8.44-8.29c-0.46-1.42-0.931-2.83-1.4-4.24c1.03,0.021,2.06,0.021,3.09,0c2.771,2.57,5.771,0.44,8.601-0.68
		c2.779,0.08,3.729,3.17,5.13,5.069c-2.98,2.44-7.58,3.801-8.5,8c-1.13,4.03-1.801,8.211-3.25,12.15
		c-1.69,1.53-4.08,0.59-6.091,0.63c-0.439-1.78-0.739-3.58-1.149-5.359c-1.271-0.16-2.53-0.33-3.79-0.471
		c-0.061,2.34-0.061,4.681-0.05,7.03c-2.641,0.88-5.4,1.3-8.17,1.29c0.09,0.5,0.28,1.5,0.38,2c2.85,1.36,5.83,2.56,8.42,4.42
		c2.32,1.45,2.05,4.49,2.79,6.81c3.02-0.029,5.859-1.039,8.38-2.659c0.14,1.439,1.76,3.21,1.96,4.649c1.64-2.39,3-4.95,4.64-7.319
		c2.41-3.46,6.29-5.5,8.86-8.82c2.53-3.24,4.22-7.05,6.78-10.271c3.739-4.619,8.43-8.63,14.05-10.75c0.51-3.13,0.6-6.409,1.87-9.359
		c3.439-2.33,7.64-3.391,10.84-6.141c5.35-4.47,9.84-9.859,14.85-14.689c1.13,0.359,2.271,0.72,3.41,1.09
		c2.54-3.78,5.7-7.06,9.2-9.95c3.76-2.939,4.16-8.03,6.72-11.76c1.17-0.6,2.44-0.96,3.69-1.38c-3.8-0.79-8.37-3.601-12.28-3.72
		c-0.77,0.31-2.33-0.761-1.02-1.221c3.119-0.66,5.569-2.529,7.109-5.3c5.09,1.73,10.46,3.25,15.891,2.4
		c0.779-1.49,1.47-3.04,2.5-4.38c3.21-1.48,6.729-2.15,10.13-3.091c0.47,1.471,0.95,2.96,1.43,4.44c0.24,0.76,0.48,1.53,0.74,2.3
		c2.569-0.91,5.109-1.95,7.71-2.77c1.229,0.21,2.18,1.1,3.26,1.689c-1.05,1.9-3.46,3.431-3.11,5.82c1.73,2.14,5.74,2.61,7.62,0.47
		c2.61-3.16,7.19-4.58,7.891-9.09c1.63-0.31,3.25-0.69,4.859-1.14c-0.1-1.391-0.01-2.811-0.359-4.16
		c-1.74-2.021-3.69-3.98-4.07-6.76c1.69-0.23,3.4-0.431,5.1-0.65C556.77,348.3,558.42,342.36,558.79,336.23z"/>
	<g>
		<path fill="#444444" d="M684.76,322.09c0.63,0.13,1.891,0.37,2.521,0.5c0.95,1.74,1.609,3.63,2.64,5.34
			c2.57-2.37,4.86-5.14,8-6.81c3.09,3.3,5.98,7.24,10.66,8.31c2.545,0.102,5.458-2.959,7.045-2.58
			c2.271,0.541,0.647,5.804,1.66,7.74c0.744,1.37,1.652,4.385,1.652,6.129c0,0.844,1.661,3.105,2.469,4.094
			c-0.618,0.218-1.696,0.317-2.097,0.607c0.11,2.53,0.381,5.11-0.069,7.63c-0.771,2.69-2.59,4.87-4.181,7.11
			c0.761,2.37,1.551,4.74,1.9,7.22c-1.81,0.38-3.63,0.67-5.39,1.2c-1.011,1.01-1.521,2.39-2.221,3.61
			c-3.58,1.649-7.25,3.06-11.27,2.67c-1.93,1.33,0.35,3.47,0.62,5.13c-2.73,1.779-5.67,3.52-7.36,6.41
			c-1.95,3.42-3.59,7.01-5.07,10.649c0.48,2.29,2.03,4.13,3.28,6.04c-1.37,5.601-2.8,12.12-8.24,15.2c1.33,3.2,0.83,6.7,1.011,10.07
			c-1.391,0.14-2.761,0.279-4.13,0.409c1.869,1.19,4.54,2.341,3.529,5.061c-1.96,1.1-3.87-0.63-5.8-0.94
			c-1.71,0.341-3.25,1.181-4.82,1.88c3.15,1.671,5.87,3.971,7.891,6.921c2.29-0.351,4.71-0.69,6.609-2.141
			c2.551-1.729,2.99-5.05,4.42-7.58c1.181-2.66,3.73-4.819,3.561-7.939c0.2-4.521,1.03-9.05,3.229-13.04
			c1.46,0.34,2.801,0.96,4.021,1.84c-0.73,1.59-1.92,2.87-3.36,3.84c1.62-0.15,3.25-0.2,4.891-0.189
			c-0.091,2.38-1.36,4.96-0.08,7.22c2.16,5.1,7.6,7.38,11.84,10.42c-0.57,3.49-4.47,0.99-6.71,1.82c-2.65,1.14-5.46,0.63-8.21,0.399
			c-1.73,0.59-3.22,1.69-4.78,2.61c0.75,1.319,1.5,2.649,2.25,3.99c2.11-0.891,4.17-1.87,6.26-2.82c1.931,1.45,3.851,3.09,4.03,5.7
			c-6.27,0.689-12.81-0.08-18.71,2.64c-1.96-1.33-4.08-2.35-6.5-2.24c-0.75,1.74-1.56,3.471-2.37,5.19
			c-1.26,1.96,0.2,4.17,0.311,6.25c-1.58-0.71-3.101-1.51-4.631-2.29c0.94,2.32,1.46,5.26,4.4,5.76c-0.14,0.72-0.44,2.16-0.59,2.88
			c-1.34-0.24-2.7-0.399-3.97-0.87c-0.641-1.609-1.03-3.3-1.471-4.96c-1.38,3.75-3.67,7.04-5.529,10.551
			c-0.58,1.42-2.051,2.02-3.25,2.81c0.52,1.08,1.02,2.16,1.54,3.26c-1.761,2.11-3.171,4.561-5.311,6.33
			c-2.43,0.45-4.86-0.43-7.24-0.79c-0.85,1.74-2.859,3.4-1.949,5.53c1.239,1.96,3.55,2.75,5.3,4.17c2.899,1.82,1.42,6.09,3.72,8.32
			c2.49,2.46,5.53,4.97,5.93,8.699c0.23,2.87,0.811,6.75-2.1,8.521c-2.84,1.86-6.05-0.29-8.69-1.46c-0.84,0.51-1.67,1.03-2.47,1.59
			c0.88,2.46,1.74,4.93,2.561,7.43c1.779,0.32,3.59,0.48,5.39,0.811c0.09,0.819,0.27,2.46,0.36,3.28
			c-1.261,0.479-2.5,0.979-3.73,1.479c1.58-0.13,3.17-0.229,4.78-0.32c-0.54,1.471-1.101,2.931-1.63,4.41
			c1.359-0.52,2.72-1.05,4.09-1.569c0.77,0.76,1.56,1.539,2.34,2.319c1.74-1.34,3.8-3.91,6.229-2.66
			c2.58,1.891,4.91,4.12,7.171,6.38c3.39-0.829,6.899-0.75,10.369-0.819c-0.13,2.189,1.431,5.34-1.21,6.55
			c-3.42,3.01-8.229,2.94-12.029,5.26c-1.721-0.95-3.431-1.899-5.15-2.83c-3,1.48-6.229,2.57-9.61,2.03
			c1.54,1.04,2.971,2.24,3.671,4.04c-6.86,0.36-13.19-3.07-19.99-2.95c-3.07-0.18-5.84-1.83-8.931-1.91
			c-6.149-0.62-12,2.351-18.14,1.641c-2.939-0.2-5.49-1.761-8.05-3.04c-1.5,2.77-3.78,4.91-6.98,5.43
			c-0.689,2.66-2.449,4.36-5.279,4.311c-1.511-2.99-3.9-5.33-6.78-6.99c-1.49,1.6-1.47,3.7-1.32,5.75
			c-0.92,0.39-1.84,0.77-2.76,1.149c-0.26-2.43-0.42-4.979-2.23-6.83c-1.229,0.61-2.409,1.33-3.699,1.78
			c-2.71-0.83-5.21-2.47-8.16-2.28c1.25,1.181,2.57,2.29,3.8,3.511c-0.2,1.25-0.62,2.449-1.25,3.6c-2.27-1.21-4.55-2.54-7.21-2.4
			c-2.66,0.221-4.23-2.159-5.94-3.739c-4.96,1.609-10.409,0.399-15.14,2.8c-1.05-0.6-2.08-1.19-3.11-1.79
			c-1.47,1.08-2.869,2.43-4.72,2.81c-1.92-1.189-3.45-2.89-5.35-4.1c-3.07,0.38-5.601,2.54-8.681,2.93
			c-6.72,1.5-13.109-2.689-19.85-1.79c-4.22,0.66-8.01-2.01-12.229-1.85c-1.101,1.69-1.78,3.81-3.48,5.01
			c-2.39,0.91-4.06-1.3-5.69-2.62c-6.529,1.49-13.25,0.37-19.859,0.78c-3.3-0.2-4.94,3.58-8.05,3.98
			c-3.16,0.38-6.341,0.06-9.49-0.091c-0.03-0.84-0.07-2.51-0.101-3.35c-1.159,1.48-2.04,4.23-4.449,3.28
			c-0.261-0.761-0.79-2.271-1.051-3.021c-5.14-0.399-9.92,1.66-14.819,2.76c-4.221-1.21-8.53-1.899-12.891-2.369
			c-3.619,0.26-7.02,1.569-10.04,3.54c-0.6-0.311-1.779-0.91-2.369-1.221c-0.551-1.72-0.83-3.51-1.16-5.27
			c1.189-2.21,3.77-3.15,5.689-4.62c-1.58,0.04-3.16,0.02-4.71,0.229c-2.04,1.28-3.09,3.721-5.3,4.771
			c-2.72,1.35-5.18,3.41-8.17,4.08c-3.53-0.18-2.99-4.5-2.63-6.96c1.39-1.271,3.36-1.44,5.09-1.92c-0.09-1.42-0.17-2.84-0.23-4.24
			c2.43-1.8,4.87-3.59,7.35-5.31c0.1,2.52,0.09,5.05,0.14,7.579c1.561-0.34,3.15-0.609,4.69-1.09c1.689-2.63,3.74-4.95,6.05-7.06
			c1.11-2.01-1.12-3.78-2.25-5.2c2.81-4.34,0.5-10.17,3.66-14.32c2.78-5.17,5.92-10.21,10.38-14.12c-1.64-2.029-3.35-4-5.13-5.89
			c0.74-1.96,1.42-3.95,1.7-6.03c-1.71-0.529-3.46-0.93-5.07-1.699c-0.37-1.16-0.51-2.381-0.74-3.561
			c2.28-0.479,4.58-0.92,6.891-1.32c-0.99-4.26-3.15-8.63-0.98-12.899c-0.65-0.55-0.29-0.08-0.92-0.61c1.64-2.39,2-5.95,3.64-8.319
			c2.41-3.46,6.29-5.5,8.86-8.82c2.53-3.24,4.22-7.05,6.78-10.271c3.739-4.619,8.43-8.63,14.05-10.75
			c0.51-3.13,0.6-6.409,1.87-9.359c3.439-2.33,7.64-3.391,10.84-6.141c5.35-4.47,9.84-9.859,14.85-14.689
			c1.13,0.359,2.271,0.72,3.41,1.09c2.54-3.78,5.7-7.06,9.2-9.95c3.76-2.939,4.16-8.03,6.72-11.76c1.17-0.6,3.44,0.04,4.69-0.38
			c3.319,1.56,5.43,2.52,8.51,4.51c0.86-1.52,2.45-2.89,2.25-4.79c-0.17-2.42-3.55-3.85-3.01-6.26c0.76-0.22,2.29-0.65,3.05-0.86
			c3.99-2.2,8.35-3.529,12.96-3.47c0.24,0.76,0.48,1.53,0.74,2.3c0.79,1.93,0.859,4.03,0.78,6.101c4,3.909,8.779,8.119,8.77,14.22
			c-1.89,0.09-3.95,0.72-5.68-0.33c-2.49-1.1-3.67-3.72-5.21-5.771c-2.511,1.021-4.92,2.25-7.221,3.671
			c-1.409-0.511-2.8-1.03-4.199-1.53c-0.141,2.58-0.29,5.189-0.9,7.72c2.27-0.479,4.64-1.8,6.97-0.87c2.8,1.03,5.7,1.771,8.51,2.78
			c1.98,1.5,3.69,3.36,5.83,4.689c0.19-1.789,0.221-3.59,0.511-5.359c3.489,2,6.96,4.05,10.699,5.57c0.24-2.32,0.61-4.62,1.08-6.9
			c1.851,0.91,3.66,1.939,5.48,2.93c0.97-1.33,1.83-2.729,2.79-4.08c1.59-0.12,3.17-0.25,4.77-0.35c-0.37-1.71-0.729-3.41-1.06-5.11
			c-2.63,0.391-5.32,1.181-7.97,0.46c1.02-0.989,2.05-1.96,3.1-2.92c-0.58-2.18-1.1-4.38-1.42-6.609c0.71-0.16,2.12-0.49,2.83-0.65
			c1.75,2.48,3.64,4.92,6.24,6.58c-0.601-1.8-1.32-3.55-2.091-5.26c0.62-1.181,1.28-2.34,1.921-3.5
			c-2.601-3.41,0.09-7.09,2.739-9.431c2.65-1.02,5.71-2.399,8.54-1.27c1.69,1.46,1.58,3.92,2.13,5.92c1.16,0.58,2.37,1.11,3.45,1.86
			c0.57,2.39,0.75,4.97,0.18,7.38c-1.489,1.33-3.25,2.319-4.789,3.58c1.079,2.34,4.51,2.76,4.949,5.58
			c0.92,3.55,2.801,7.27,1.86,10.989c-0.37,2.73-3.51,2.74-5.58,3.45c0.84,0.53,1.68,1.08,2.521,1.64
			c-1.73,3.841-1.62,9.54-6.69,10.54c4.61-0.439,8.18,3.351,12.57,4.221c0.26,3.88-2.471,6.75-4.83,9.47
			c-4.511-1.02-8.141,1.72-11.98,3.54c-1.45-1.48-2.88-2.97-4.25-4.521c-2.04,1.25-4.08,2.521-6.16,3.711
			c-1.83,1.399-3.62-0.66-5.29-1.301c-0.029-1.109-0.06-2.22-0.09-3.319c2.931,0.46,5.86,0.1,7.79-2.37
			c-1.66-0.851-3.34-1.641-4.97-2.53c0.479-2.14,1.33-4.19,1.65-6.36c-0.07-2.909-0.591-5.779-1.051-8.64
			c-1.27-0.03-2.52-0.05-3.779-0.06c-1.021,3.649-3.73,6.58-7.091,8.229c-2.449-0.31-4.51-2.02-6.8-2.89
			c-1.859,1.21-3.569,3.3-6.02,2.95c-2.931,0.06-5.28-1.96-7.84-3.051c0.979,2.521,2.52,4.801,3.35,7.391
			c-0.34,2.8-3.04,4.3-5.08,5.83c0.37,1.819,0.76,3.63,1.1,5.47c-1.89,0-3.76-0.04-5.63-0.061c0.21,0.53,0.62,1.61,0.83,2.141
			c3.33,1.01,6.62,2.29,9.511,4.28c0.25-0.641,0.77-1.931,1.02-2.57c4.89-0.351,9.65,1.12,14.02,3.2
			c0.101-1.29,0.221-2.58,0.37-3.851c3.761,0.49,9.221,1.91,9.54,6.49c1.25,5.94-4.05,10.12-6.239,15.12
			c5.06,0.29,7.739,4.75,10.85,8.09c1.57,1.55,1.59,3.84,1.86,5.9c-1.82,0.55-3.58,1.34-5.48,1.52c-2.95-1.06-5.35-3.16-8.12-4.56
			c-1.03,1.89-2.2,3.729-4.069,4.89c-0.91-1.52-1.711-3.08-2.54-4.63c-1.75,4.17-3.41,8.53-1.881,13.06
			c3.841,1.48,7.86,2.24,11.99,2.03c1.17,1.93,2.34,3.87,3.65,5.72c0.45-1.51,0.899-3.01,1.37-4.5c4.27-0.83,7.42-5.43,12.02-4.159
			c1.43,0.5,1.95,2.189,2.92,3.26c2.86,0.01,5.79-0.11,8.431-1.36c-1.221-1.87-2.48-3.71-3.73-5.55c2.42-3.65,6.98-4.21,10.62-6.07
			c2.72,1.74,5.9,1.75,8.99,2.09c0.77,1.07,1.479,2.2,2.13,3.37c-2.58,1.551-5.48,2.391-8.24,3.54c-1.43,1.65-1.9,4.03-3.729,5.33
			c-2.061,1.44-4.24,2.71-6.261,4.19c2.21,0.41,4.521,0.55,6.641,1.39c2.319,1.36,4.25,3.29,6.52,4.76
			c-1.79-3.33-5.79-6.51-4.21-10.689c1.61-2.891,5.33-1.851,7.94-2.91c2.449-1.07,4.97-1.94,7.46-2.92
			c1.72-1.54,2.81-3.67,4.609-5.13c2.521-0.94,5.25-0.96,7.9-1.2c1.24-4.47,2.57-9.04,5.89-12.46c-1-2.07-3.08-4.17-2.08-6.64
			c0.681-2.65,3.4-3.73,5.82-4.261c0.45,1.46,0.92,2.931,1.36,4.42c1.38-1.35,2.56-3.17,4.58-3.569c2.8-0.54,5.689-0.601,8.5-1.19
			c-0.021-0.58-0.061-1.74-0.08-2.32c-2.46-0.909-4.94-1.939-7.59-2c-2.75-0.329-7.254,5.051-7.44,2.461
			c-0.175-2.424,2.32-5.11,3.65-7.58c-1.44-0.391-2.87-0.78-4.301-1.17c-1.72,1.22-3.831,4.234-5.55,3
			c-1.089-0.782-0.858-3.073,0.09-4.021c1.381-1.379,3.88,0.29,5.851,0.34c0.64-2.569-0.311-5.08-0.561-7.62
			c0.54-2.92,1.84-6.21,4.96-7.18c3.73-1.2,7.58-2.03,11.24-3.49c-1.26-0.859-2.62-1.59-3.67-2.689c-0.12-4.2,1.5-8.45,4.52-11.42
			c1.551,0.54,3.12,1.1,4.69,1.659c0.58-3.659,1.35-7.3,2.39-10.859c3.32-1.33,6.57-2.84,9.78-4.44c-0.1-2.33,0.25-4.89-1.32-6.83
			c-1.71-2.069-1.699-4.729-1.52-7.26c-1.42-0.03-2.83-0.07-4.24-0.13c-1.2-4.93,4.021-6.83,6.95-9.57
			c-1.83-3.12-4.87-7.569-1.36-10.66c1.62-1.81,3.86-0.26,5.41,0.771c-0.04,2.07-0.12,4.13-0.2,6.2c1.08-2.95,1.83-6.28,4.48-8.271
			c1.189,4.15,0.689,8.84-1.67,12.5c-1.46-0.93-2.8-2.01-4.2-2.99c-0.59,2.051-1.15,4.11-1.72,6.171c3.939,1.39,6.8-2.021,10.1-3.54
			c-0.439-1.181-1.149-2.33-1.05-3.62c0.22-4.66,0.41-9.34-0.24-13.98c0.59-0.02,1.75-0.069,2.33-0.09c0.36,2.28,0.79,4.55,1.2,6.83
			c0.97-1.89,1.96-3.78,3.02-5.63c-0.989-1.521-2.54-3.03-2.17-5c0.63-1.66,2.45-1.96,3.98-2.28c0.78,1.26,1.57,2.51,2.35,3.78
			c-0.069-2.771-0.13-5.53-0.21-8.29c1.51-0.12,3.021-0.23,4.54-0.34c-2.109-1.601-4.22-3.2-6.22-4.92c1.8,0.12,3.6,0.29,5.41,0.449
			c-0.78-1.949-1.511-3.92-2.16-5.899c1.99,1.99,3.86,4.28,6.62,5.24C684.16,330.28,684.84,326.21,684.76,322.09z"/>
		<path fill="#A0A0A0" d="M486.22,254.64c0.7-0.12,2.11-0.37,2.82-0.49c-0.23,2.52-0.54,5.09-1.94,7.27
			C486.31,259.24,486.1,256.93,486.22,254.64z"/>
		<path fill="#5E5E5E" d="M569.87,312.11c0.74,0.029,2.229,0.1,2.979,0.13c0.24,1.47,0.5,2.95,0.73,4.439
			c1.89,0.051,3.79-0.069,5.7,0.03c0.01,2.84,0.8,6-1.03,8.47c-1.35,2.011-1.54,4.45-1.93,6.78c-3.69-0.68-7.33-1.55-11.101-1.54
			c-0.239-0.37-0.7-1.13-0.939-1.5c1.55-1.97,4.399-2.9,5.41-5.189C569.56,319.85,569,315.95,569.87,312.11z"/>
		<path fill="#444444" d="M652.13,351.6c1.22-0.119,2.45-0.229,3.68-0.33c-0.189,1.12-0.38,2.25-0.569,3.381
			C653.19,354.74,652.2,353.58,652.13,351.6z"/>
		<path fill="#444444" d="M544.91,374.02c0.79-0.199,2.39-0.6,3.18-0.8c0.5,1.931,1.03,3.87,1.54,5.8
			C547.58,377.9,542.41,377.17,544.91,374.02z"/>
		<path fill="#444444" d="M699.25,381.27c1.07-1.85,3.42-0.63,5.01-0.319c-0.64,1.49-1.029,3.189-2.33,4.28
			C699.57,386.34,697.51,383.03,699.25,381.27z"/>
		<path fill="#444444" d="M705.18,383.86c1.21-0.12,2.42-0.16,3.65-0.141c-0.1,1.62-0.18,3.24-0.26,4.87
			c-1.08-0.02-2.141-0.03-3.2-0.05C705.29,386.98,705.23,385.41,705.18,383.86z"/>
		<path fill="#444444" d="M695.29,392.06c0.62,0.04,1.87,0.12,2.5,0.16c-0.16,0.48-0.47,1.44-0.62,1.931
			c-0.439,0.159-1.32,0.479-1.75,0.64C695.38,394.11,695.32,392.74,695.29,392.06z"/>
		<path fill="#444444" d="M715.05,400.11c-2.1-1.521-1.06-3.42-0.01-5.21C716.75,396.48,716.83,398.54,715.05,400.11z"/>
		<path fill="#444444" d="M693.47,397.5c0.53-0.03,1.59-0.08,2.12-0.1c-0.02,1.02-0.04,2.05-0.06,3.08
			c-0.57,0.02-1.7,0.05-2.271,0.069C693.31,399.52,693.38,398.51,693.47,397.5z"/>
		<path fill="#515151" d="M356.39,400.77c1.09,1.23,1.95,2.641,2.37,4.261c0.68,2.7,2.87,4.56,4.4,6.779
			c-3.66-0.02-7.3-0.369-10.95-0.6C352.73,407.43,354.37,403.96,356.39,400.77z"/>
		<path fill="#444444" d="M691.26,408.86c-0.439-3.011,1.09-6.181,4.54-5.94c-0.04,1.47,0.521,3.14-0.34,4.49
			C694.61,408.92,692.67,408.53,691.26,408.86z"/>
		<path fill="#444444" d="M558.29,406.98c3.08-1.19,2.21,2.85-0.33,2.369C555.8,409.55,556.73,407.01,558.29,406.98z"/>
		<path fill="#666666" d="M314.61,409.67c3.03-0.939,6.15-1.53,9.32-1.72c-0.2,0.53-0.6,1.58-0.81,2.1
			c-1.84,0.72-3.66,1.48-5.47,2.28c3.15,2.9,7.49,3.37,11.49,4.18c-1.3,2.09-2.59,4.79-5.28,5.26c-3.07-0.42-6.27-1.02-9-2.569
			C314.15,416.08,314.54,412.84,314.61,409.67z"/>
		<path fill="#484848" d="M318.24,431.72c3.69,3.99,2.07,9.78,0.75,14.42c-1.71,3.051-6.17-0.02-5.58-2.859
			c-0.32-2.57,2.22-3.681,3.96-4.9C317.63,436.15,317.89,433.93,318.24,431.72z"/>
		<path fill="#444444" d="M602.35,437.41c1.48-1.95,4.48-0.96,6.61-1.141c-0.33,3.15-0.29,6.33-0.31,9.5
			c0.159,2.48-3.101,3.99-5.07,2.771c-0.86-0.73-1.65-1.521-2.37-2.36C602.32,443.35,602.42,440.39,602.35,437.41z"/>
		<path fill="#444444" d="M608.63,450.473c0.778-1.833,3.168-3.051,4.46-2.04c1.395,1.091,0.599,3.893-0.49,5.3
			c-0.518,0.669-2.344,1.67-3.12,1.33C608.049,454.437,607.948,452.079,608.63,450.473z"/>
		<path fill="#444444" d="M600.03,459.89c0.5-2.979,2.64-5.27,5.85-4.659c-0.41,1.97-1.13,3.859-2.02,5.659
			C602.57,460.56,601.29,460.23,600.03,459.89z"/>
		<path fill="#444444" d="M583.78,463.87c1.1-0.33,2.229-0.59,3.39-0.76c0.05,1.76,0.78,3.88-0.8,5.229
			c-1.11,1.36-2.88,0.91-4.38,0.96C582.42,467.49,581.88,464.96,583.78,463.87z"/>
		<path fill="#444444" d="M397.34,473.84c0.57-3.39,1.61-7.479,5.61-8.1c-0.41,2.37-1.11,4.689-1.82,6.99
			c1.71-0.54,3.4-1.181,5.14-1.65c0.24,4.6,4.381,7.49,4.66,11.979c-2.149,0.21-4.31,0.301-6.46,0.33
			c0.061,2.04,0.681,4.45-1.029,6.03c-2.351,2.95-6.61,1.14-9.57,2.57c-2.08,1.88-3.85,4.189-6.54,5.26
			c0.06-2.21,0.24-4.41,0.34-6.61c-3.04-0.72-6.7-1.34-7.71-4.819c-1.86-3.45,1.96-5.73,4.21-7.58c2.17-1.45,1.74-4.67,3.8-6.23
			c1.88-1.649,3.74-3.319,5.59-5.02C394.9,469.23,396.21,471.48,397.34,473.84z"/>
		<path fill="#444444" d="M409.26,477.37c0.601-2.11,1.48-4.55,4.181-4.19c0.04,1.141,0.119,3.41,0.159,4.551
			C412.52,477.64,410.34,477.46,409.26,477.37z"/>
		<path fill="#444444" d="M681.41,510.6c1.39-0.09,2.8-0.159,4.21-0.21c-0.101,1.38-0.2,2.761-0.29,4.16
			c-1.22-0.149-2.45-0.06-3.63-0.29C681.53,513.04,681.45,511.81,681.41,510.6z"/>
		<path fill="#444444" d="M656.33,522.75c-0.4-3.03,0.74-5.72,3.8-6.69c0.68,1.471,2.18,3.091,1.11,4.78
			C660.35,522.83,658.1,522.48,656.33,522.75z"/>
		<path fill="#444444" d="M397.14,524.4c0.601,0.029,1.801,0.09,2.41,0.119c0.03,0.551,0.101,1.66,0.13,2.211
			c-0.66,0.68-1.319,1.35-1.989,2.02c-0.86-0.27-1.71-0.54-2.55-0.81C395.79,526.75,396.46,525.57,397.14,524.4z"/>
		<path fill="#444444" d="M676.32,530.59c-2.36-3.189,2.02-6.26,5.16-5.46c1.279,2.8,5.18,5.25,3.02,8.54
			C681.86,532.39,679.06,531.56,676.32,530.59z"/>
		<path fill="#444444" d="M398.44,531.38c0.56-0.03,1.689-0.08,2.25-0.11c-0.011,0.61-0.021,1.83-0.03,2.44
			c-0.601,0.03-1.811,0.09-2.42,0.12C398.29,533.22,398.39,531.99,398.44,531.38z"/>
		<path fill="#444444" d="M403.14,534.84c0.08-1.27,1.28-4.88,2.811-2.8C408.14,533.52,404.47,534.88,403.14,534.84z"/>
		<path fill="#444444" d="M335.53,539.45c3.78-2.49,7.85,2.96,5.23,6.229c-1.88,3.75-7.65,0.931-7.29-2.699
			C333.62,541.64,334.26,540.07,335.53,539.45z"/>
		<path fill="#444444" d="M353.41,544.44c1.15-0.171,2.31-0.261,3.49-0.29c-0.29,1.659-0.57,4.55-2.86,4.34
			C351.86,548.76,351.63,545.16,353.41,544.44z"/>
		<path fill="#444444" d="M372.58,551.44c-1.53-4.261,3.59-5.471,6.63-6.32C377.86,547.78,376.59,552.98,372.58,551.44z"/>
		<path fill="#444444" d="M362.52,547.68c0.54-0.09,1.61-0.27,2.14-0.35c-0.01,1.07-0.01,2.16-0.02,3.25
			c-0.63,0.01-1.89,0.04-2.53,0.05C362.23,549.64,362.36,548.65,362.52,547.68z"/>
		<path fill="#444444" d="M326.33,548.5c2.21,0.47,4.26,1.44,6.39,2.16c-0.18,0.96-0.38,1.92-0.6,2.88
			c-2.21-1.021-4.5-1.9-6.61-3.11C325.46,549.65,325.74,549.01,326.33,548.5z"/>
		<path fill="#444444" d="M268.1,550.02c1.2-0.34,2.4-0.689,3.61-1.02c0.12,0.8,0.36,2.4,0.48,3.2c-1.34,0.359-2.66,0.76-4,1.12
			C268.17,552.49,268.12,550.85,268.1,550.02z"/>
		<path fill="#444444" d="M465.82,552.63c0.93-0.2,1.859-0.38,2.8-0.53c-0.05,0.631-0.15,1.881-0.2,2.511
			c-1.02,0.06-2.03,0.109-3.04,0.159C465.49,554.23,465.71,553.17,465.82,552.63z"/>
		<path fill="#444444" d="M482.13,552.53c1.42-1.15,3.19,1.29,1.66,2.29C482.35,556.01,480.56,553.52,482.13,552.53z"/>
		<path fill="#444444" d="M531.44,554.2c1.14-0.15,2.279-0.311,3.43-0.49c-0.061,1.271-0.13,2.54-0.19,3.82
			c-1.08-0.021-2.16-0.04-3.229-0.04C531.44,556.39,531.44,555.29,531.44,554.2z"/>
		<path fill="#444444" d="M274.27,555.11c1.17,0.31,2.34,0.63,3.52,0.96c-0.08,0.6-0.24,1.81-0.32,2.41
			c-1.13,0.109-2.25,0.229-3.36,0.35C274.16,557.59,274.21,556.34,274.27,555.11z"/>
		<path fill="#444444" d="M405.31,558.26c1.261-1.45,3.2-0.439,4.75-0.229c-0.229,3.16-2.77,5.17-5.89,4.89
			C404.4,561.36,403.73,559.28,405.31,558.26z"/>
		<path fill="#444444" d="M545.93,564.1c1.051-1.59,2.87-1.79,4.601-2.029c0,0.68,0.02,2.029,0.029,2.71
			C549.01,564.57,547.46,564.35,545.93,564.1z"/>
		<path fill="#444444" d="M557.36,563.2c0.979-1.46,3.56,0.13,2.39,1.609C558.76,566.26,556.17,564.67,557.36,563.2z"/>
	</g>
	<g>
		<path fill="#E8E8E8" d="M379.18,192.11c7.85-1.01,10.9-10.78,18.82-11.49c0.36,0.57,1.08,1.71,1.43,2.28
			c-1.899,1.61-4.16,2.77-5.93,4.54c-0.28,2.25,0.47,4.65-0.32,6.81c-3.18,4.51-8.84,6.74-14.23,6.95
			c-3.25,0.17-4.77-3.29-6.65-5.35c-1.15-0.17-2.3-0.34-3.44-0.5C371.94,193.29,375.52,192.37,379.18,192.11z"/>
		<path fill="#E8E8E8" d="M431.86,240.24c0.3-3.03,1.689-5.76,4.33-7.38C436.13,236,434.43,238.56,431.86,240.24z"/>
		<path fill="#E8E8E8" d="M353.02,216.06c3.14-2.18,6.93-4.13,10.87-3.7c3.81,1.51,6.6,4.75,9.79,7.22
			c-0.56,2.94-1.12,5.89-1.61,8.85c-1.07-0.47-2.13-0.93-3.19-1.4c-2.42-2.51-4.53-5.31-6.75-8c-3.51,1.65-7.29,2.69-11.18,2.88
			C351.29,219.87,350.86,217.22,353.02,216.06z"/>
		<path fill="#E8E8E8" d="M432.49,217.35c1.72-1.36,4-4.38,5.97-1.65c-1.06,2.57-1.95,5.22-2.47,7.96
			c-3.01,0.74-6.41,2.74-9.391,0.89c-1.939-0.93-2.75-3.23-2.449-5.25C425.73,216.16,429.7,217.55,432.49,217.35z"/>
		<path fill="#E8E8E8" d="M405.43,223.69c1.63-1.62,2.74-3.65,3.98-5.56c0.78,0.87,1.56,1.74,2.32,2.64
			c1.22,1.47,2.38,2.99,3.55,4.51c-3.29,1.92-7.25,3.12-9.75,6.11c-1.931,4.2-2.2,8.92-3.42,13.35c-2.561-0.64-5.061-1.48-7.5-2.47
			c-3-1.23-6.38-1.22-9.21-2.91c4.15-1.57,8.65-1.77,12.87-3.04c0.551-1.36,0.82-2.81,1.23-4.21c-4.75,0.19-9.77,1.48-14.31-0.55
			c-0.99-3.31-0.79-6.76,0.4-9.98c4.8,2.02,10.06,0.03,14.87,1.93C402.06,223.79,403.93,224.83,405.43,223.69z"/>
		<path fill="#E8E8E8" d="M400.23,252.81c2.21,0.74,4.359,1.75,6.109,3.32c-2.05,2.12-3.979,4.35-5.859,6.62
			c-0.37-0.05-1.101-0.15-1.471-0.19C399.38,259.3,399.78,256.05,400.23,252.81z"/>
		<path fill="#E8E8E8" d="M551.97,343.08c0.34,1.939,0.74,3.88,1.21,5.81c-1.71,0.58-3.399,1.2-5.069,1.851
			C549.84,348.43,551.26,345.9,551.97,343.08z"/>
		<path fill="#E8E8E8" d="M514.15,367.19c3.21-1.48,6.729-2.15,10.13-3.091c0.47,1.471,0.95,2.96,1.43,4.44
			c-4.61-0.06-8.97,1.27-12.96,3.47c-0.27-0.109-0.82-0.33-1.1-0.439C512.43,370.08,513.12,368.53,514.15,367.19z"/>
		<path fill="#E8E8E8" d="M320.39,374.01c2.14-1.6,4.24-3.24,6.35-4.88c0.77,0.91,1.51,1.86,2.25,2.82
			c0.01,3.41,0.12,6.819,0.09,10.229c-1.18-1.069-2.36-2.14-3.52-3.21C323.82,377.33,322.11,375.66,320.39,374.01z"/>
		<path fill="#E8E8E8" d="M488.65,374.47c3.119-0.66,5.569-2.529,7.109-5.3c5.09,1.73,10.46,3.25,15.891,2.4
			c0.279,0.109,0.83,0.33,1.1,0.439c-0.76,0.21-2.29,0.641-3.05,0.86c-0.54,2.41,2.84,3.84,3.01,6.26c0.2,1.9-1.39,3.271-2.25,4.79
			c-3.08-1.99-6.19-3.95-9.51-5.51c-3.8-0.79-7.37-2.601-11.28-2.72C488.9,376,487.34,374.93,488.65,374.47z"/>
		<path fill="#E8E8E8" d="M310.39,370.07c1.23,0.479,2.45,0.979,3.68,1.51c-0.69,2.62-1.57,5.189-2.64,7.689
			c-1.56-1.069-3.11-2.14-4.6-3.289c-1.22-1.021-2.36-2.12-3.43-3.271C305.74,371.84,308.05,370.92,310.39,370.07z"/>
		<path fill="#E8E8E8" d="M393.15,432.41c0.77-0.07,2.32-0.2,3.1-0.26c0.8,2.58-0.5,4.729-2.35,6.46c-0.96-0.86-1.95-1.67-2.76-2.65
			C391.72,434.73,392.41,433.55,393.15,432.41z"/>
		<path fill="#E8E8E8" d="M398.45,474.72c1.319,0.95,2.14,2.34,2.77,3.82c-0.72-0.021-2.17-0.07-2.89-0.09
			C398.35,477.2,398.39,475.96,398.45,474.72z"/>
		<path fill="#E8E8E8" d="M653.85,490.89c1.58,2.37,2.11,5.16,2.21,7.971c-0.619-0.04-1.88-0.13-2.51-0.17
			C653.66,496.08,653.73,493.48,653.85,490.89z"/>
		<path fill="#E8E8E8" d="M407.57,542.87c0.52-2.5,2.479-4.15,4.27-5.78c0.4,0.95,0.78,1.9,1.16,2.87
			C411.22,540.99,409.41,541.96,407.57,542.87z"/>
	</g>
	<path fill="#FAC545" d="M715.834,321.25c1.278-2.189,6.364-2.266,7.947-1.188s4.384,2.902,4.406,4.672
		c0.027,2.183-2.621,8.362-7.344,9.266s-7.793-5.015-7.871-6.302C712.885,326.246,715.25,322.25,715.834,321.25z"/>
	<path opacity="0.3" d="M722.062,320.25c4.233,0.87,1.693,10.065,1.337,11.451c-0.499,1.942-3.712,2.299-4.774,2.111
		s-4.301-4.959-4.188-6.312S717.49,319.311,722.062,320.25z"/>
	<g display="none">
		<polygon display="inline" fill="#FFE255" points="714.438,327.5 711.501,330.167 707.042,330.75 702.625,327.083 700.25,327.25 
			697.37,322.285 691.875,327.97 689.625,330.52 685.125,334.15 677.938,336.125 682.584,340.667 680.334,342.084 677.594,341 
			679.001,346.084 676.438,346.25 676.167,348.915 671.375,347.688 678.667,351.665 676.812,354.375 670.667,354.316 672.688,358 
			665.938,360.625 676.167,361.751 677.417,364.859 673.75,369.188 683.667,370.584 683.001,380.269 690.75,373.625 
			694.927,379.938 696,374.125 703.875,372.125 703.501,368.084 708.188,369.062 714.625,366.062 705.834,362.165 712.625,359.688 
			713.584,355.417 717.375,353.25 715.833,348.834 715.25,342.417 718.136,339.933 		"/>
		<polygon display="inline" fill="#820B0B" points="692.037,331.562 690.5,336.875 679.859,342.938 680.125,345.562 
			678.188,348.562 679.688,351.938 681,353.938 677.188,355.75 674.875,356 679.688,358.312 679.688,367.312 683.375,363.812 
			685.438,372.25 686.875,370.875 688.062,374.5 690.5,372.312 694.25,374.938 696.031,370.25 699.375,371.688 699.375,366.844 
			708.75,366.375 703.062,363.438 702.75,360.938 711.188,358.594 708.75,352.963 714.435,352.625 713.312,351.625 714.688,350.812 
			713.875,342.75 711.812,340.938 714.435,340.375 714.435,338.312 712.971,333.312 710,331.938 709.75,334.938 707.062,332.562 
			704.26,333.438 700.5,329.25 696.938,332.312 		"/>
		<polygon display="inline" fill="#FFFFFF" points="699.688,333.856 696.54,324.918 694.501,333.11 693,337.91 686.501,325.52 
			686.252,336.17 681.084,336.834 685.438,342.12 681.084,344.334 676.167,343.001 681.938,350.062 673.334,351.852 
			683.375,354.655 669.001,367.918 683.375,362.25 682.2,365.73 675.084,378.083 688.5,367.812 691.584,379.75 695.25,366.844 
			701.431,367.915 707.251,371.251 703.527,361.562 714.417,363.332 707.005,358.312 711.167,356.334 717.188,355.125 
			707.688,352.094 718.251,349.334 711.5,344.344 713.5,339 718.108,338.605 714.062,329.625 709.348,334.094 706.5,336.438 
			703.245,329.01 		"/>
		<g display="inline">
			<polygon fill="#FFE255" points="709.75,347.875 707.688,348.938 709.75,349.576 			"/>
			<polygon fill="#FFE255" points="701.875,358.875 699.688,358.875 699.488,357.438 700.375,358.312 702.312,358.156 
				702.812,360.75 700.375,362.438 701.431,360.062 701.875,360.375 			"/>
			<polygon fill="#FFE255" points="677.625,362.438 676.188,363.812 680.188,362.438 			"/>
			<polygon fill="#FFE255" points="686.219,343.562 692.75,344.375 695.562,346.688 691.188,344.688 			"/>
			<polygon fill="#FFE255" points="695.562,355.438 692.75,358.875 694.875,353.25 696.812,352.334 695.562,353.938 			"/>
			<polygon fill="#FFE255" points="698.602,344.375 700.375,339.812 698.875,338.25 699.488,339.812 			"/>
			<polygon fill="#FFE255" points="700.812,352.812 700.812,354.469 701.875,353.25 			"/>
			<polygon fill="#FFE255" points="685.438,362.25 687.25,363.188 685.438,363.812 			"/>
			<polygon fill="#FFE255" points="687.812,330.562 690.891,338.25 689.5,339.438 			"/>
			<polygon fill="#FFE255" points="690.5,355.438 683.5,356.062 681.938,359.5 685.625,360.375 			"/>
			<polygon fill="#FFE255" points="691.375,363.438 689.375,366.562 691.688,370.25 692.375,364.859 			"/>
			<polygon fill="#FFE255" points="681.938,346.562 682.812,344.375 683.688,345.812 686.219,345.75 687.25,350.062 
				685.562,347.219 680.688,347.75 			"/>
			<polygon fill="#FFE255" points="702.312,343.562 702.312,333.856 703.125,331.938 703.812,337.062 			"/>
			<polygon fill="#FFE255" points="705.625,354.375 711.312,353.938 712.625,355 709.875,354.655 			"/>
			<polygon fill="#FFE255" points="694.875,363.812 696.25,362.188 695.562,360.062 			"/>
			<polygon fill="#FFE255" points="704.26,347.75 710.5,345 712,346.375 712,347.219 713.312,347.219 714.435,348.938 
				712.625,348.125 710.75,348.938 710.688,346.969 708.5,347.938 			"/>
			<polygon fill="#FFE255" points="708.688,336.938 705.625,339.812 708.688,338.938 709.75,335.125 			"/>
			<polygon fill="#FFE255" points="712.125,336.438 711.5,337.469 713.875,337.75 			"/>
			<polygon fill="#FFE255" points="696.562,334.688 694.25,337.094 696.562,342.938 695.562,337.469 697.812,333.856 
				696.625,331.938 			"/>
			<polygon fill="#FFE255" points="704.625,357.906 705.625,361.188 701.431,356 			"/>
		</g>
		<g display="inline">
			<polygon fill="#820B0B" points="702.688,348.938 704.26,351.277 709.348,350.5 704.812,350.107 703.125,347.875 700.812,348.938 
							"/>
			<polygon fill="#820B0B" points="694.25,335.125 696.031,334.312 696.25,329.25 			"/>
			<polygon fill="#820B0B" points="701.344,334.094 700.375,335.812 701.431,338.875 			"/>
			<polygon fill="#820B0B" points="692.75,365.375 692.375,370.25 693.626,367.812 			"/>
			<polygon fill="#820B0B" points="707.375,360.062 708.719,361.938 709.75,361.938 			"/>
			<polygon fill="#820B0B" points="710.375,339.812 708.188,342.062 711.812,340.688 712.125,338.875 			"/>
			<polygon fill="#820B0B" points="692.75,347.219 687.812,346.25 690.875,348.188 			"/>
			<polygon fill="#820B0B" points="694.781,341.312 695.562,343.562 692.75,339.438 			"/>
			<polygon fill="#820B0B" points="697.438,357.906 699,362.812 696.25,366.375 700.087,365.269 701.431,364 703.125,365.5 
				701.688,361.875 699.688,364.125 700.688,359.875 698.875,359.75 698.602,356 			"/>
			<polygon fill="#820B0B" points="687.562,335.125 686.562,342.062 692.375,341.562 688.688,340.125 			"/>
			<polygon fill="#820B0B" points="690.5,358.312 688.5,359.688 689.375,360.938 			"/>
			<polygon fill="#820B0B" points="679.688,351.277 681.938,353.25 683.375,352.334 			"/>
			<polygon fill="#820B0B" points="678.188,361.938 681.531,361.938 679.062,361.188 			"/>
			<polygon fill="#820B0B" points="683.969,366.844 681.531,370.875 685.5,368.859 686.219,365.375 			"/>
			<polygon fill="#820B0B" points="704.26,355.75 707.938,355.75 706.438,356.875 			"/>
			<polygon fill="#820B0B" points="695.562,351 693.312,350.062 692.75,350.531 689.875,350.062 688.5,352.75 685.438,352.75 
				689.812,353.25 690.062,350.75 693.626,351.277 693.626,350.688 			"/>
			<polygon fill="#820B0B" points="703.812,345.125 707.375,344 706.099,343.562 			"/>
		</g>
	</g>
	<g>
		<path fill="#010101" d="M870.68,282.44c-0.979-1.57-2.08-3.05-3.21-4.49c0.33-2.32,0.84-4.63,0.87-6.98
			c-0.49-2.54-2.59-4.34-3.729-6.59c-0.88-2.58-0.63-5.55-2.2-7.87c-2.03-3.18-4.54-6.19-8-7.84c-4.13-2.05-7.641-5.19-11.87-7.02
			c-4.59-0.56-9.32-0.42-13.89,0.21c-6.16,2.14-12.721,4.6-16.73,10.05c-4.38,6.19-8.72,12.49-14.16,17.83
			c-2.899,3.79-6.529,7.06-10.939,9c-5.061,2.07-11.154,3.012-14.63,7.27c-6.148,7.532-15.066,10.115-12.732,10.74
			c5.5,1.416,11.222-6.221,16.192-8.68c-2.181,2.661-2.723,6.236-4.681,8.97c-1.977,2.761-9.463,7.213-6.094,6.835
			c1.922-0.216,6.164-3.516,9.044-6.596c-2.82,6.141-4.28,13.82-11.09,16.94c-4.09,0.101-15.655,3.164-13.203,4.029
			c2.829,0.998,6.503-0.869,9.503-0.489c-4.05,3.2-7.05,7.41-8.67,12.32c-3.93-2.66-7.9-5.311-12.15-7.42
			c-4.079-1.97-10.893-1.54-12.643-1.077c4.916,5.293-3.75,12.567-5.167,10.917c-3.571-4.16,0.861-4.483-0.25-9.025
			c-0.667-2.725-7.176,2.451-7.333,4.495c-0.196,2.55,0.494,5.593,2.25,8.864c1.833,3.416,2.523,5.671,5.733,6.25
			c6.79,0.87,12.569-2.624,19.09-3.484c8.93,4.82,19.149,7.511,26.58,14.771c0.06,1.36-1.051,3.05-0.03,4.17
			c5.1,2.92,11.41,2.16,16.5,5.17c1.94,1.39,4.42,1.26,6.69,0.94c8.859-3.591,17.26-8.17,25.39-13.181
			c1.38-0.845,6.255-3.032,7.692-2.349c0.948-2.974,1.508-3.941,2.037-7.001c0.7-3.32,0.931-6.73,0.74-10.12
			c0.021-2.84-0.83-6.06,1.38-8.34c2.13-1.521,4.48-2.69,6.86-3.811c2.24-1.859,4.52,0.641,2.35,2.65
			c-1.22,3.94-0.949,8.14-0.149,12.13c1.17-2.78,1.979-5.689,2.729-8.6c0.87-3.04,2.181-5.92,3.55-8.761
			c2.631-0.92,5.25-1.869,7.841-2.92c2.689-1.05,5.3-2.409,7.479-4.34c1.16-1.26,2.22-2.6,3.311-3.92
			c0.09-1.26,0.51-2.39,1.279-3.369c2.23-2.971,4.391-6.031,5.95-9.41c0.33-1.16,0.67-2.311,1-3.471c0.21-0.92,0.43-1.83,0.67-2.74
			C870.127,285.505,870.547,283.391,870.68,282.44z"/>
		<path fill="#FBF9F7" d="M824.4,316.62c0.569,1.63,1.17,3.27,1.64,4.95c-0.32,0.46-0.96,1.39-1.28,1.85
			C824.49,321.16,824.4,318.89,824.4,316.62z"/>
		<path fill="#E8E8E8" d="M753.92,331.22c1.13-7.46,8.22-11.569,14.93-13.25c-3.52,3.94-6.551,9.186-5.33,14.471
			c0.772,3.345,2.96-8.523,5.24-10.48c-0.979,4.18-2.319,8.3-2.479,12.63C762.14,333.51,757.96,332.64,753.92,331.22z"/>
		<path fill="#E8E8E8" d="M770.87,328.15c0.59-3.54,1.95-7.141,4.939-9.351C774.76,322.2,772.96,325.3,770.87,328.15z"/>
		<path fill="#E8E8E8" d="M777.15,327.97c-0.351-3.62,0.67-7.069,3.869-9.08C779.74,321.92,778.55,324.99,777.15,327.97z"/>
		<path fill="#E8E8E8" d="M783.88,334.15c2.26-5.681,6.3-10.45,10.17-15.12C791.8,324.72,788.02,329.71,783.88,334.15z"/>
		<path fill="#FFF2F6" d="M833.83,319.85c2.24-1.859,4.52,0.641,2.35,2.65C834.97,322,834.18,321.11,833.83,319.85z"/>
		<path fill="#E8E8E8" d="M782.69,341.05c2.869-3.979,6.39-7.5,10.229-10.53C790.49,334.67,787.94,340.2,782.69,341.05z"/>
		<path fill="#FBF8F6" d="M831.07,312.69c2.72-0.86,5.449-1.721,8.229-2.381c0.11,0.91,0.32,2.74,0.42,3.65
			c-2.21,0.8-4.39,1.67-6.529,2.61C832.45,315.28,831.74,313.99,831.07,312.69z"/>
		<path fill="#E8E8E8" d="M796.11,321.08c1.37-3.11,1.479-6.82,3.939-9.39c-0.28,6.239-3.35,12.189-7.649,16.63
			C793.58,325.88,795.02,323.57,796.11,321.08z"/>
		<path fill="#E8E8E8" d="M784.12,319.3c1.83-2.2,3.91-4.189,5.979-6.17c-6.25,6.99-9.18,16.09-12.18,24.78
			c-2.55-0.29-5-1.061-7.43-1.83c1.38-3.17,2.62-6.4,4-9.57c0.069,3.4,1.51,11.823,2.41,9.771
			C778.84,331.858,780.27,324.26,784.12,319.3z"/>
		<path fill="#E8E8E8" d="M801.09,322.15c1.08-2.75,2.62-5.341,4.91-7.261C805.22,317.81,803.58,320.41,801.09,322.15z"/>
		<path display="none" fill="#FBF8F6" d="M781.56,288.76c0.721-0.23,2.16-0.69,2.881-0.92c-0.851,1.551-1.87,3-2.99,4.37
			C781.43,291.05,781.46,289.9,781.56,288.76z"/>
		<path fill="#FBF8F6" d="M827.55,309.3c2.15-2.149,4.79-3.8,7.681-4.76C833.43,307.11,830.83,309.26,827.55,309.3z"/>
		<path fill="#FBF8F6" d="M846.56,310.99c1.78-2.58,4.091-4.74,6.41-6.84c0.971,1.029,1.94,2.06,2.931,3.09
			C853.13,309.22,849.98,310.72,846.56,310.99z"/>
		<path fill="#E8E8E8" d="M800.98,316.03c0.279-3.15,1.51-6.16,4.109-8.101C804.26,310.88,802.8,313.59,800.98,316.03z"/>
		<path fill="#E8E8E8" d="M803.035,302.721c1.351-2.352,4.314-7.52,7.145-8.64c-3.199,7.601-18.117,20.325-16.77,17.28
			C793.955,310.131,799.955,307.279,803.035,302.721z"/>
	</g>
	<path fill="#E8E8E8" d="M727.149,325.407c0,0,0.523-0.275,2.622,0.26c3.104,0.792-0.688,4.709-3.233,2.149
		C727.137,326.202,727.149,325.407,727.149,325.407z"/>
	<g>
		<path d="M905.02,403.09c2.721-1.91,6-2.79,9.11-3.89c4.34,5.89,8.7,11.77,12.811,17.84c2.93,4.13,2.939,9.39,4.97,13.89
			c1.33,1.08,2.939,1.79,4.28,2.9c2.47,2.02,2.659,5.76,5.37,7.58c5.579,4.18,11.539,10.12,10.729,17.7
			c1.97,0.67,4.149,1.39,5.37,3.229c1.939,2.3,0.79,5.87,2.92,8.101c2.609,2.88,4.22,6.43,5.8,9.949
			c0.771,2.761,1.32,5.71,3.22,7.99c1.67,1.97,2.91,4.74,5.641,5.42c2.17,0.86,4.55,0.76,6.87,0.891
			c2.37,3.609,5.26,6.79,8.27,9.869c0.851,3.61,0.06,7.53-0.33,11.21c1.14,0.25,2.29,0.49,3.46,0.721
			c0.301,2.29,0.43,4.64,1.13,6.85c2.8,3.18,7.101,5.141,8.62,9.34c1.351,2.94,2.16,7.551-1.08,9.551
			c-2.59,2.18-6.13,0.909-9.18,1.13c-32-0.36-64,0.149-96,0.09c-29.67-0.23-59.33-0.24-89-0.181c-11.33-0.109-22.69,0.381-34-0.449
			c-15.33-0.051-30.66-0.641-46-0.431c-5.52-0.21-11.87,1.23-16.29-3.02c-5.31-6.83-2.13-16.63,3.57-22.16
			c4.38-5.95,7.899-12.63,10.31-19.61c2.78-2.949,6.82-4.38,9.94-6.97c5.2-0.06,9.42-3.42,14.21-5.06
			c5.29-2.74,11-4.48,16.689-6.181c4.08-3.989,9.11-6.8,13.53-10.399c3.75-3.17,8.32-5.07,12.4-7.75
			c3.859-2.45,7.81-5.101,12.51-5.521c5.13-0.819,7.79-5.51,10.82-9.17c2.02-6.729,3.569-13.72,6.989-19.939
			c1.141-3.17,3.23-6.54,1.99-9.971c-0.78-2.52,0.94-4.84,2.03-6.979c2.03-2.76,3.729-5.74,5.75-8.51
			c0.569,0.92,1.109,1.88,1.6,2.88c0.521,1.149,1.01,2.34,1.561,3.5c1.87,2.689,4.689,4.38,7.51,5.93c2.95,1.58,6.35,1.85,9.64,2.04
			c3.05,0.21,6.12,0.22,9.19,0.2c3.1-0.05,6.2,0.08,9.31,0.12c3.48-0.08,6.971-0.29,10.44-0.681c2.39-0.33,4.79-0.67,7.17-1.1
			c3.09-0.28,5.28-2.63,7.74-4.26C899.52,407.69,902.18,405.28,905.02,403.09z"/>
		<path fill="#E8E8E8" d="M865.14,435.26c2.37,0.07,4.83-0.17,7.13,0.54c2.86,1.69,4.841,4.47,7.41,6.53
			c6.48,4.21,13.91,6.53,20.57,10.39c4.75,1.99,8.08,6.17,12.77,8.271c3.711,2.31,8.631,2.88,11.141,6.83
			c5.3,5.399,11.479,9.989,17.27,14.79c1.53,3.59,2.86,7.409,5.641,10.279c1.58,1.41,2.04,3.49,2.569,5.46
			c4.341,1.37,6.78,5.25,9.141,8.841c1.18,2.97,0.29,6.34,1.47,9.329c0.98,3.65,4.38,5.79,6.71,8.53c2.3,2.97,2.57,6.9,2.69,10.53
			c-53.551,0.27-107.11-0.17-160.66,0.22c-13.311,0.99-26.66,0.83-39.99,1.01c-13.1,1.07-26.27,0.561-39.4,0.65
			c2.591-4.88,5.66-9.53,8.92-13.97c4-0.971,8.15-1.98,10.9-5.3c7.8-0.99,13.271-7.141,19.39-11.421
			c2.171-1.38,3.771-3.529,6.091-4.699c2.85-1.221,5.939-1.88,8.649-3.44c7.67-5.52,15.71-10.59,24.05-15.05
			c3.431-0.68,6.721-1.66,9.5-3.87c5.79,0.28,10.7-3.15,14.92-6.72c3.021-3.33,4.99-7.62,8.87-10.13
			c3.96-2.79,5.73-7.62,9.32-10.721c4.56-1.87,7.021-6.25,10.33-9.609C862.61,440.49,863.74,437.76,865.14,435.26z"/>
	</g>
	<g>
		<polygon fill="#FFFFFF" points="914.13,399.2 914.583,395.832 911.501,390.334 910.667,380.5 908.334,372.167 908.334,367.5 
			906.667,362.5 906.75,358.75 900.552,343.445 897.64,355.778 897.405,357.25 896.79,384.05 901.13,390.12 901.72,395.62 
			905.02,403.09 		"/>
		<path fill="#FEF6F7" d="M885.78,313.01c1.54-1.37,3.02-2.81,4.55-4.18c2.28,6.14,4.68,12.28,5.89,18.75
			c0.94,10.32,1.561,20.93-1.229,31.03c-3.021,9.729-3.32,20.09-2.431,30.149c2.23,6.83,2.57,14.03,4.051,21.021
			c-2.46,1.63-4.65,3.979-7.74,4.26c-0.67-4.48,0.85-9.31-1.42-13.46c-2.84-5.8-2.431-12.54-1.51-18.75
			c2.319-8.44,5.649-16.61,7.27-25.24c0.85-5.899,0.38-11.91-0.63-17.76C891.64,329.97,890.66,320.71,885.78,313.01z"/>
		<path fill="#FAFAF9" d="M850.15,314.35c2.689-1.05,5.3-2.409,7.479-4.34c2.771,3.78,5.08,7.891,7.32,12.021
			c3.08,6.399,4.689,13.37,6.899,20.1c0.971,3.25,2.301,6.44,2.67,9.83c-0.34,3-1.88,5.69-2.84,8.521
			c-2.229,5.199-0.97,10.939-1.51,16.399c-1.29-2.42-2.64-4.8-4.189-7.05c1.8-4.021,3.069-8.311,3.05-12.75
			c-0.9-3.22-3.221-5.82-4.271-8.99C860.35,336.66,856.88,324.72,850.15,314.35z"/>
		<path fill="#BF0A30" d="M842.31,317.27c2.631-0.92,5.25-1.869,7.841-2.92c6.729,10.37,10.199,22.311,14.609,33.74
			c1.05,3.17,3.37,5.771,4.271,8.99c0.02,4.439-1.25,8.729-3.05,12.75c1.55,2.25,2.899,4.63,4.189,7.05
			c0.54-5.46-0.72-11.2,1.51-16.399c0.96-2.83,2.5-5.521,2.84-8.521c-0.369-3.39-1.699-6.58-2.67-9.83
			c-2.21-6.729-3.819-13.7-6.899-20.1c2.689-0.7,5.399-1.38,8.05-2.271c4.49,8.24,5.53,17.67,8.43,26.471
			c0.16,2.35-1.02,4.55-1.39,6.84c-1.33,4.6,1.78,9.67-0.93,13.97c-3.011,5.65-6.051,11.52-6.73,17.97
			c-0.28,6.21-0.17,12.48,1.15,18.58c1.33,4.42-3.88,7.74-2.271,12.23c-3.109-0.04-6.21-0.17-9.31-0.12
			c1.16-3.431,4.47-6.38,3.76-10.24c-1.5-8.84-1.03-18.13,2.11-26.58c-2.641,2.62-4.561,5.84-5.311,9.51
			c-1.18,5.12-4.649,9.4-5.37,14.641c-0.699,4.39-2.93,8.31-4.38,12.47c-3.29-0.19-6.689-0.46-9.64-2.04
			c2.3-5.49,6.74-9.59,9.72-14.67c3.86-5,6.47-10.82,8.2-16.87c0.54-2.11-0.81-4.17-0.6-6.28c0.71-3.1,2.67-6.199,1.619-9.46
			c-1.29-4.279-3.3-8.3-4.829-12.479c-2.66-7.41-3.431-15.54-7.511-22.391C847.02,326.74,845.66,321.45,842.31,317.27z"/>
		<path fill="#BF0A30" d="M879.41,316.72c2.21-1.08,4.359-2.29,6.37-3.71c4.88,7.7,5.859,16.96,6.8,25.82
			c1.01,5.85,1.479,11.86,0.63,17.76c-1.62,8.63-4.95,16.8-7.27,25.24c-0.921,6.21-1.33,12.95,1.51,18.75
			c2.27,4.15,0.75,8.979,1.42,13.46c-2.38,0.43-4.78,0.77-7.17,1.1c-0.771-1-1.51-2.01-2.22-3.029c0.72-2.46,2.579-4.92,1.75-7.57
			c-1.78-5.98-3.381-12.19-2.78-18.47c1.03-10.301,7.229-19.16,8.47-29.4C889.19,342.95,885.63,328.96,879.41,316.72z"/>
		<path fill="#FDF8F7" d="M873,319.76c2.19-0.91,4.28-2.01,6.41-3.04c6.22,12.24,9.78,26.23,7.51,39.95
			c-1.24,10.24-7.439,19.1-8.47,29.4c-0.601,6.279,1,12.489,2.78,18.47c0.829,2.65-1.03,5.11-1.75,7.57
			c0.71,1.02,1.449,2.029,2.22,3.029c-3.47,0.391-6.96,0.601-10.44,0.681c-1.609-4.49,3.601-7.811,2.271-12.23
			c-1.32-6.1-1.431-12.37-1.15-18.58c0.68-6.45,3.72-12.319,6.73-17.97c2.71-4.3-0.4-9.37,0.93-13.97c0.37-2.29,1.55-4.49,1.39-6.84
			C878.53,337.43,877.49,328,873,319.76z"/>
		<path fill="#FBF8F6" d="M842.31,317.27c3.351,4.181,4.71,9.471,7.41,14.04c4.08,6.851,4.851,14.98,7.511,22.391
			c1.529,4.18,3.539,8.2,4.829,12.479c1.051,3.261-0.909,6.36-1.619,9.46c-0.21,2.11,1.14,4.17,0.6,6.28
			c-1.73,6.05-4.34,11.87-8.2,16.87c-2.979,5.08-7.42,9.18-9.72,14.67c-2.82-1.55-5.64-3.24-7.51-5.93
			c1.22-3.86,5.409-5.19,7.939-8.011c2.311-2.619,5.83-3.43,8.59-5.399c0.521-2.76,0.051-5.75,1.761-8.18
			c3.02-5.15,1.409-11.33,0.029-16.73c-3.06-10.18-6.689-20.2-11.02-29.91c-1.51-4.37-4.01-8.55-4.15-13.27
			C839.63,322.99,840.94,320.11,842.31,317.27z"/>
		<path fill="#BF0A30" d="M826.97,323.66c2.13-1.521,4.48-2.69,6.86-3.811c0.35,1.261,1.14,2.15,2.35,2.65
			c-1.22,3.94-0.949,8.14-0.149,12.13c1.17-2.78,1.979-5.689,2.729-8.6c0.141,4.72,2.641,8.899,4.15,13.27
			c4.33,9.71,7.96,19.73,11.02,29.91c1.38,5.4,2.99,11.58-0.029,16.73c-1.71,2.43-1.24,5.42-1.761,8.18
			c-2.76,1.97-6.279,2.78-8.59,5.399c-2.53,2.82-6.72,4.15-7.939,8.011c-0.551-1.16-1.04-2.351-1.561-3.5
			c2.45-7.021,10.13-9.94,13.45-16.45c0.58-3.57,0.07-7.21-0.45-10.75c-2.399-11.35-5.189-22.771-10.76-33.05
			c-1.78-2.94-2.07-6.45-3.5-9.54C831.11,330.58,828.99,327.14,826.97,323.66z"/>
		<path fill="#FBF9F7" d="M831.62,399.08c1.8-4.75,4.55-9.22,5.189-14.34c0.311-2.58-0.569-5.25,0.341-7.75
			c0.85-2.76,1.96-5.771,0.8-8.62c-2.181-5.63-5.26-10.86-8.101-16.18c-1.72-3.32-4.21-6.341-5-10.07
			c0.7-3.32,0.931-6.73,0.74-10.12c0.021-2.84-0.83-6.06,1.38-8.34c2.021,3.479,4.141,6.92,5.82,10.58c1.43,3.09,1.72,6.6,3.5,9.54
			c5.57,10.279,8.36,21.7,10.76,33.05c0.521,3.54,1.03,7.18,0.45,10.75c-3.32,6.51-11,9.43-13.45,16.45c-0.49-1-1.03-1.96-1.6-2.88
			L831.62,399.08z"/>
		<path fill="#BF0A30" d="M822.812,349.121c0.811-3,1.508-3.941,2.037-7.001c0.79,3.729,3.28,6.75,5,10.07
			c2.841,5.319,5.92,10.55,8.101,16.18c1.16,2.85,0.05,5.86-0.8,8.62c-0.91,2.5-0.03,5.17-0.341,7.75
			c-0.64,5.12-3.39,9.59-5.189,14.34c-0.46-6.73,1.27-13.38,1.97-20.05c0.311-1.98,0.891-3.95,0.72-5.971
			C831.94,365.17,827.123,356.052,822.812,349.121z"/>
		<path fill="#BF0A30" d="M901.03,362.65c-0.98-3.86-0.035-11.507,1.125-15.247c2.489,5.28,3.555,14.767,3.234,20.616
			c-0.17,2.98,1.66,5.49,2.521,8.23c1.45,4.25,0.13,8.93,1.689,13.16c0.761,2.22,2.971,8.101,4.53,9.79
			c-0.991,0.343-1.817,0.675-2.47,0.843c-1.021-0.965-2.61-4.857-3.82-6.983c-3.02-3.239-5.26-7.329-6.42-11.59
			C901.1,375.2,902.47,368.86,901.03,362.65z"/>
		<path fill="#BF0A30" d="M901.72,395.62c-0.319-1.83-0.29-3.69-0.59-5.5c-1.149-2.23-3.05-3.94-4.34-6.07
			c0.56-8.34,0.36-16.689,0.52-25.04c-0.05-4.52,2.28-8.58,2.98-12.97c0.9-4.36-0.771-8.62-1.4-12.88c-0.6-1.99-1.67-3.78-2.67-5.58
			c0.94,10.32,1.561,20.93-1.229,31.03c-3.021,9.729-3.32,20.09-2.431,30.149c2.23,6.83,2.57,14.03,4.051,21.021
			c2.909-2.09,5.569-4.5,8.409-6.69C904.36,400.41,902.81,398.11,901.72,395.62z"/>
		<path fill="#BF0A30" d="M822.49,311.22c2.83,0.62,5.689,1.141,8.58,1.471c0.67,1.3,1.38,2.59,2.12,3.88
			c-2.36,1.71-4.74,3.38-7.15,5c-0.47-1.681-1.07-3.32-1.64-4.95C823.76,314.81,823.15,313.01,822.49,311.22z"/>
		<path fill="#002868" d="M888.2,301.34c-0.283-1.465-0.367-2.52-0.592-3.109c-2.858-9.293-4.17-8.619-8.33-13.668
			c-3.785-3.405-8.599-2.123-8.599-2.123l-0.84,4.66c-0.24,0.91-0.46,1.82-0.67,2.74c-0.545,1.379-0.78,2.705-1,3.471
			c-1.56,3.379-3.72,6.439-5.95,9.41c-1.095,1.279-1.165,2.521-1.279,3.369c-1.091,1.32-2.15,2.66-3.311,3.92
			c2.771,3.78,5.08,7.891,7.32,12.021c2.689-0.7,5.399-1.38,8.05-2.271c2.19-0.91,4.28-2.01,6.41-3.04
			c2.21-1.08,4.359-2.29,6.37-3.71c1.54-1.37,3.02-2.81,4.55-4.18C889.52,306.36,888.89,303.84,888.2,301.34z"/>
		<path fill="#FAF9F8" d="M862.51,388.39c0.75-3.67,2.67-6.89,5.311-9.51c-3.141,8.45-3.61,17.74-2.11,26.58
			c0.71,3.86-2.6,6.81-3.76,10.24c-3.07,0.02-6.141,0.01-9.19-0.2c1.45-4.16,3.681-8.08,4.38-12.47
			C857.86,397.79,861.33,393.51,862.51,388.39z"/>
	</g>
	<polygon fill="#010101" points="824.4,316.62 831.07,312.69 832.251,309.625 826.97,310.667 821.334,309.625 821.834,317.27 	"/>
</g>
<g>
	<path fill="#FFFFFF" d="M850.526,248.488c2.225,0.387,3.72,2.709,4.016,3.679c0.457,1.5,0.459,3.083-0.125,3.75s-1.199,0.5-1.642,0
		s-1.274-2.25-3.108-1.75s-1.167-1.583-0.917-2.25S849.619,248.331,850.526,248.488z"/>
	<path fill="#FFFFFF" d="M858.412,263.562c-0.401,0.729,0.529,0.975,1.088,0.688c0.254-0.131,0.084-0.854,1.125-0.479
		c0.727,0.262,1.875,0.062,2.118-0.471c0.296-0.649-0.303-1.494-1.201-2.021c-1.254-0.735-2.861-2.062-2.745-0.671
		C858.953,262.484,858.78,262.894,858.412,263.562z"/>
	<path display="none" fill="#FFFFFF" d="M858.957,272.75c-0.636,0.576-1.124,0.667-1.874,0.417s-2.48-2.084-2.365-2.917
		s1.649-2.728,2.117-3.083c1.373-1.042,2.271,2.566,2.333,3.239C859.253,271.318,859.387,272.361,858.957,272.75z"/>
	<path display="none" fill="#FFFFFF" d="M859.14,266.334c-0.387,0.736,0.048,2.146,0.798,2.396s2.292-0.334,2.375-1.168
		s-0.719-1.625-1.742-1.812C859.928,265.633,859.446,265.75,859.14,266.334z"/>
	<path fill="#FFFFFF" d="M853.833,261.345c-1.592,0.187-3.103,3.624-2.186,3.874s1.811-0.721,1.978-1.221
		S854.544,261.261,853.833,261.345z"/>
	<path fill="#FFFFFF" d="M851.369,261.342c0.649,0.127-0.971,2.971-1.804,2.814s-2.206-1.647-1.878-2.314
		S850.869,261.245,851.369,261.342z"/>
	<path fill="#FFFFFF" d="M847.834,256.167c-0.445-0.781,1.072-1.729,2.917-1.417c0.754,0.127,1.791,1.042,1.416,1.75
		s-1.008,1.709-2.129,1.917S848.167,256.75,847.834,256.167z"/>
	<path fill="#FFFFFF" d="M849.898,258.875c-0.328,0.434,0.03,0.864,0.644,1.125c0.977,0.416,1.528,0.287,1.604-0.709
		c0.096-1.27,2.646-0.658,1.464-1.822c-0.31-0.305-0.594-0.428-0.9-0.427c-0.502,0.002-0.689,0.75-1.095,1.042
		S850.119,258.583,849.898,258.875z"/>
	<path fill="#FFFFFF" d="M860.5,266.833c1.208-0.333,2.052-0.195,1.625,0.948c-0.343,0.918-3.475,1.526-4.141,2.359
		s-0.834-0.75,0-1.458S860.095,266.945,860.5,266.833z"/>
	<path fill="#FFFFFF" d="M861.812,268.781c0.633-0.137,1.319,0.833,0.985,1.25s-1.509,0.113-2.154,0.205
		c-0.628,0.09-1.068,0.277-1.539,0.451c-0.562,0.208-1.086-0.417-0.271-0.794C859.333,269.661,859.938,269.188,861.812,268.781z"/>
</g>
<g>
	<polygon fill="#FFFFFF" points="871.125,289.125 872.688,287.562 872.243,285.562 874.403,286.904 876.234,286.125 
		876.205,288.026 877.446,289.416 875.667,289.005 874.285,290.75 873.474,288.991 	"/>
	<polygon fill="#FFFFFF" points="866.125,297.986 868.416,297.017 868.63,294.538 870.26,296.418 872.288,296.51 871.438,298.312 
		872,299.812 870.688,299.375 868.688,301.125 868.562,298.75 	"/>
	<polygon fill="#FFFFFF" points="864.938,306.312 867.25,305.188 867.75,303.25 869,304.781 871.438,304.781 870.125,306.312 
		871.125,308.812 869.207,307.938 866.812,310 867.062,307.438 	"/>
	<polygon fill="#FFFFFF" points="866.812,311.75 866.125,313.625 863.438,314.062 865.812,315.5 864.938,318.062 867.5,316.688 
		870.062,317.25 868.625,315.188 870.5,313.312 868.188,313.562 	"/>
	<polygon fill="#FFFFFF" points="873.875,309.125 876.188,308.062 876.688,306 877.938,307.562 880.25,307.562 878.938,309.5 
		881,311.188 878.25,311.188 875.938,313.25 875.812,310.625 	"/>
	<polygon fill="#FFFFFF" points="874.285,301.75 875.875,300.5 876.312,298.375 877.446,300.062 879.438,300.062 878.938,301.75 
		881,303.25 878.062,303.25 876.438,304.812 876.125,302.625 	"/>
	<polygon fill="#FFFFFF" points="882.062,304.188 883.812,303.25 883.5,301.594 885.375,303.25 887,303.25 887,304.812 
		887.938,306.625 886.25,306 885,307.5 884.5,305.25 	"/>
	<polygon fill="#FFFFFF" points="880.375,297.125 882.062,296.438 882.062,294.75 883.688,296.25 885,296.188 884.438,297.832 
		886.25,299.562 884.375,299.125 883.312,300.688 882.688,298.375 	"/>
	<polygon fill="#FFFFFF" points="879.438,290.062 880.375,289.062 879.906,286.938 882.062,289.062 883.312,289.062 882.75,290.75 
		884,292.25 882.625,291.75 881.719,293.188 881,290.75 	"/>
	<polygon fill="#FFFFFF" points="873.438,294.538 875.062,293.188 874.688,291.562 876.875,293.051 878.438,292.562 
		878.062,294.538 879.438,296.062 877.643,295.5 876.125,297.375 875.375,295.188 	"/>
</g>
</svg>
