<?xml version="1.0" encoding="UTF-8" ?>
<!DOCTYPE svg PUBLIC "-//W3C//DTD SVG 1.1//EN" "http://www.w3.org/Graphics/SVG/1.1/DTD/svg11.dtd">
<svg width="1024pt" height="576pt" viewBox="0 0 1024 576" version="1.1" xmlns="http://www.w3.org/2000/svg">
<path fill="#ffffff" d=" M 0.00 0.00 L 1024.00 0.00 L 1024.00 576.00 L 0.00 576.00 L 0.00 0.00 Z" />
<path fill="#f1f1f1" d=" M 355.43 174.03 C 358.95 172.86 362.06 170.09 366.01 170.58 C 368.09 170.81 371.15 170.50 372.10 172.85 C 372.83 174.24 373.37 175.73 373.97 177.19 C 376.42 177.64 378.95 177.87 381.30 178.76 C 383.01 180.06 383.61 182.30 384.63 184.10 C 379.13 188.20 372.34 190.79 365.42 190.54 C 363.42 194.82 359.13 196.62 354.92 198.04 C 355.87 200.19 355.99 203.29 358.36 204.41 C 362.41 204.25 366.48 203.37 370.50 204.44 C 367.04 205.23 363.49 206.08 359.93 205.55 C 357.30 205.41 354.61 204.42 352.01 205.05 C 348.22 208.87 345.55 213.72 341.26 217.09 C 343.19 218.01 345.16 218.84 347.09 219.77 C 346.97 220.31 346.73 221.40 346.61 221.94 C 344.03 219.29 340.25 219.12 336.83 218.56 C 336.36 214.89 336.18 210.51 332.91 208.11 C 330.58 207.16 327.93 207.73 325.48 207.29 C 323.00 203.26 327.21 199.81 329.24 196.70 C 331.40 197.75 333.54 198.86 335.65 200.03 C 335.55 202.23 335.48 204.43 335.41 206.64 C 337.99 206.57 341.43 207.72 343.24 205.25 C 344.48 201.22 344.13 196.77 343.27 192.70 L 342.72 192.36 C 339.31 193.37 336.25 195.47 332.63 195.70 C 335.17 192.84 337.45 189.77 339.72 186.69 C 342.67 182.64 348.19 179.93 347.94 174.22 C 350.43 174.20 352.95 174.43 355.43 174.03 Z" />
<path fill="#e9e9e9" d=" M 379.18 192.11 C 387.03 191.10 390.08 181.33 398.00 180.62 C 398.36 181.19 399.08 182.33 399.43 182.90 C 397.53 184.51 395.27 185.67 393.50 187.44 C 393.22 189.69 393.97 192.09 393.18 194.25 C 390.00 198.76 384.34 200.99 378.95 201.20 C 375.70 201.37 374.18 197.91 372.30 195.85 C 371.15 195.68 370.00 195.51 368.86 195.35 C 371.94 193.29 375.52 192.37 379.18 192.11 Z" />
<path fill="#d0d0d0" d=" M 445.42 199.86 C 449.83 199.79 451.27 204.49 454.30 206.79 C 457.34 209.58 461.77 207.38 465.29 208.69 C 467.95 210.01 466.53 213.19 466.49 215.48 C 468.41 215.08 470.35 214.79 472.31 214.60 C 472.18 216.37 472.05 218.15 471.91 219.93 C 466.60 218.75 460.65 217.93 455.71 220.76 C 451.96 222.79 451.44 227.39 449.66 230.84 C 447.61 230.59 446.84 228.30 445.57 226.97 C 443.85 227.59 442.14 228.22 440.43 228.87 C 441.08 235.05 440.30 241.37 438.03 247.17 C 436.52 250.80 435.67 254.64 434.79 258.46 C 431.45 257.19 431.65 253.31 431.46 250.36 C 431.36 247.58 432.09 244.87 432.73 242.19 C 431.02 242.25 429.31 242.29 427.61 242.36 C 426.91 243.43 426.24 244.53 425.44 245.53 C 421.20 244.67 416.53 242.95 412.46 245.39 C 409.83 248.77 412.58 253.06 413.31 256.65 C 414.85 257.09 416.41 257.48 417.96 257.95 C 415.49 258.72 413.12 259.74 410.73 260.73 C 410.82 258.18 411.05 255.66 411.37 253.14 C 410.82 252.99 410.27 252.84 409.72 252.70 C 408.59 253.84 407.46 254.98 406.34 256.13 C 404.59 254.56 402.44 253.55 400.23 252.81 C 399.78 256.05 399.38 259.30 399.01 262.56 C 397.47 262.45 395.66 262.02 394.42 263.21 C 391.41 265.65 388.55 268.27 385.41 270.54 C 381.12 273.62 379.72 279.27 375.33 282.25 C 372.21 284.44 369.12 286.76 366.90 289.91 C 364.20 293.96 358.87 295.22 356.57 299.62 C 353.47 304.71 349.33 309.02 345.77 313.78 C 342.42 318.17 340.06 323.25 336.39 327.41 C 332.50 331.70 330.23 337.12 326.62 341.62 C 319.53 350.08 316.53 360.99 310.39 370.07 C 308.05 370.92 305.74 371.84 303.40 372.71 C 302.57 371.48 301.74 370.24 301.19 368.86 C 302.05 366.38 303.72 364.32 305.10 362.13 C 307.73 358.23 309.27 353.72 311.87 349.81 C 319.20 339.28 325.41 328.03 332.12 317.10 C 334.88 312.89 338.63 309.41 341.02 304.94 C 343.73 299.92 347.31 295.40 351.76 291.81 C 356.43 288.08 358.95 282.35 363.82 278.83 C 366.31 277.16 367.52 274.43 368.15 271.61 C 369.81 271.52 371.48 271.44 373.15 271.36 C 373.13 270.63 373.11 269.91 373.10 269.20 C 376.06 268.09 379.32 267.05 381.15 264.26 C 382.66 261.55 385.24 259.90 388.07 258.81 C 388.26 258.39 388.65 257.56 388.84 257.14 C 386.90 255.64 384.95 254.15 383.02 252.66 C 386.84 245.87 395.21 245.33 402.11 244.74 C 403.33 240.31 403.60 235.59 405.53 231.39 C 408.03 228.40 411.99 227.20 415.28 225.28 C 414.11 223.76 412.95 222.24 411.73 220.77 C 412.68 220.24 413.63 219.72 414.59 219.21 C 417.92 217.11 423.07 215.92 423.61 211.31 C 424.50 208.29 422.18 205.73 421.00 203.17 C 425.38 203.68 429.81 203.93 434.19 203.20 C 437.64 202.42 440.85 204.14 443.94 205.40 C 444.48 203.56 444.86 201.69 445.42 199.86 Z" />
<path fill="#eaeaea" d=" M 370.50 204.44 C 378.28 203.46 386.31 202.55 394.02 204.49 C 390.63 206.06 386.93 204.70 383.41 205.25 C 380.22 208.19 377.91 211.98 374.57 214.79 C 374.98 219.49 375.21 224.52 372.07 228.43 C 372.56 225.47 373.12 222.52 373.68 219.58 C 370.49 217.11 367.70 213.87 363.89 212.36 C 359.95 211.93 356.16 213.88 353.02 216.06 C 350.86 217.22 351.29 219.87 350.95 221.91 C 354.84 221.72 358.62 220.68 362.13 219.03 C 364.35 221.72 366.46 224.52 368.88 227.03 C 366.56 226.21 364.23 224.91 361.70 225.02 C 359.41 226.08 357.70 228.05 355.92 229.78 C 356.07 230.76 356.55 231.56 357.34 232.17 C 360.76 232.18 364.16 232.54 367.51 233.24 C 362.33 233.88 357.04 233.18 351.93 234.46 C 353.30 236.01 354.76 237.47 356.16 239.00 C 356.08 239.78 355.93 241.33 355.86 242.11 C 351.49 242.78 347.68 240.57 344.43 237.93 C 345.14 234.27 347.18 231.15 349.57 228.37 C 348.39 227.20 347.12 226.13 345.94 224.95 C 346.11 224.20 346.44 222.69 346.61 221.94 C 346.73 221.40 346.97 220.31 347.09 219.77 C 345.16 218.84 343.19 218.01 341.26 217.09 C 345.55 213.72 348.22 208.87 352.01 205.05 C 354.61 204.42 357.30 205.41 359.93 205.55 C 363.49 206.08 367.04 205.23 370.50 204.44 Z" />
<path fill="#e2e2e2" d=" M 394.02 204.49 C 396.37 203.27 398.95 204.67 400.75 206.24 C 401.87 207.99 402.46 210.01 403.36 211.87 C 404.14 214.03 406.47 214.86 408.26 216.01 C 408.90 213.86 409.56 211.72 410.30 209.61 C 412.71 212.35 412.54 216.27 414.59 219.21 C 413.63 219.72 412.68 220.24 411.73 220.77 C 410.97 219.87 410.19 219.00 409.41 218.13 C 408.17 220.04 407.06 222.07 405.43 223.69 C 403.93 224.83 402.06 223.79 400.46 223.51 C 395.65 221.61 390.39 223.60 385.59 221.58 C 384.40 224.80 384.20 228.25 385.19 231.56 C 383.82 230.88 382.49 230.15 381.15 229.43 C 377.82 234.02 376.68 239.80 373.24 244.31 C 373.95 240.21 374.96 236.18 375.91 232.14 C 373.15 232.65 370.35 233.76 367.51 233.24 C 364.16 232.54 360.76 232.18 357.34 232.17 C 356.55 231.56 356.07 230.76 355.92 229.78 C 357.70 228.05 359.41 226.08 361.70 225.02 C 364.23 224.91 366.56 226.21 368.88 227.03 C 369.94 227.50 371.00 227.96 372.07 228.43 C 375.21 224.52 374.98 219.49 374.57 214.79 C 377.91 211.98 380.22 208.19 383.41 205.25 C 386.93 204.70 390.63 206.06 394.02 204.49 Z" />
<path fill="#f8f8f8" d=" M 291.32 208.13 C 295.58 208.13 299.36 210.19 303.15 211.87 C 303.25 215.04 304.96 217.66 306.64 220.22 C 306.43 222.21 304.43 223.63 303.76 225.54 C 302.39 228.11 302.63 232.38 299.01 232.90 C 295.89 231.91 293.88 229.11 291.62 226.92 C 291.49 227.40 291.21 228.36 291.08 228.85 C 293.47 231.76 297.10 236.10 293.49 239.58 C 290.33 240.99 286.77 239.93 283.45 240.41 C 282.36 241.23 281.44 242.26 280.49 243.23 C 284.73 242.73 289.05 243.00 293.25 242.26 C 296.83 241.34 296.10 237.11 297.78 234.73 C 302.94 232.80 308.76 233.84 313.44 236.56 C 316.28 238.47 319.10 235.63 321.94 235.15 C 324.75 235.64 327.23 238.28 327.62 241.08 C 327.11 244.54 326.12 247.95 326.13 251.48 C 329.02 252.51 331.90 253.77 334.04 256.04 C 330.97 255.03 327.84 254.18 324.89 252.86 C 324.49 249.17 324.97 245.49 325.43 241.84 C 326.05 239.19 323.05 236.73 320.54 237.46 C 315.87 238.43 312.62 242.20 308.86 244.81 C 306.27 246.84 302.95 248.26 301.35 251.31 C 299.12 255.44 297.54 259.98 294.53 263.65 C 291.65 267.34 287.15 269.81 285.55 274.41 C 284.16 278.14 282.36 281.72 279.62 284.65 C 275.77 288.67 274.94 295.06 269.57 297.65 C 269.13 306.94 262.57 313.99 257.70 321.34 C 259.03 321.51 260.37 321.73 261.73 321.78 C 264.05 319.66 265.42 316.24 268.97 315.96 C 268.46 322.80 262.41 327.02 256.74 329.69 C 260.95 332.60 264.38 336.51 266.68 341.09 C 268.66 345.69 272.80 348.66 277.56 349.89 C 277.75 350.92 277.91 351.97 278.05 353.02 C 276.02 353.21 273.99 353.43 271.97 353.69 L 271.26 353.78 C 271.76 352.83 272.27 351.88 272.78 350.95 C 270.46 348.65 268.15 346.32 266.41 343.55 C 264.30 340.43 262.77 336.50 258.99 335.04 C 256.12 333.98 253.67 331.55 254.01 328.26 C 255.77 326.55 257.89 325.29 259.92 323.95 C 256.59 324.43 253.26 324.95 249.95 325.62 C 250.88 328.21 251.98 330.74 253.22 333.21 C 251.73 334.60 249.83 337.17 247.59 335.49 C 244.66 333.64 241.11 331.56 239.94 328.15 C 242.34 324.52 246.01 321.80 247.78 317.75 C 248.56 315.68 248.62 313.45 248.87 311.28 C 246.77 309.66 244.63 308.09 242.64 306.33 C 239.69 303.81 238.13 300.17 236.25 296.87 C 234.03 296.17 231.82 295.47 229.62 294.72 C 228.87 291.29 227.33 288.12 226.21 284.82 C 226.03 281.80 227.90 279.04 227.92 276.01 C 227.87 272.48 227.25 268.98 227.05 265.46 C 231.16 265.17 235.23 264.44 239.21 263.38 C 240.33 259.24 241.60 255.13 243.22 251.16 C 244.62 247.76 248.20 245.83 249.41 242.32 C 250.98 238.62 250.67 234.30 252.72 230.80 C 257.27 229.84 262.13 230.34 266.45 228.31 C 264.81 226.70 263.13 225.14 261.42 223.61 C 262.86 221.32 264.14 218.82 266.29 217.09 C 269.41 216.60 272.42 217.92 275.46 218.43 C 278.51 219.10 281.64 218.62 284.70 218.32 C 286.00 219.84 287.29 221.37 288.58 222.90 C 289.82 221.15 291.69 219.47 291.51 217.13 C 291.53 214.13 291.28 211.13 291.32 208.13 Z" />
<path fill="#fdfdfd" d=" M 353.02 216.06 C 356.16 213.88 359.95 211.93 363.89 212.36 C 367.70 213.87 370.49 217.11 373.68 219.58 C 373.12 222.52 372.56 225.47 372.07 228.43 C 371.00 227.96 369.94 227.50 368.88 227.03 C 366.46 224.52 364.35 221.72 362.13 219.03 C 358.62 220.68 354.84 221.72 350.95 221.91 C 351.29 219.87 350.86 217.22 353.02 216.06 Z" />
<path fill="#fbfbfb" d=" M 432.49 217.35 C 434.21 215.99 436.49 212.97 438.46 215.70 C 437.40 218.27 436.51 220.92 435.99 223.66 C 432.98 224.40 429.58 226.40 426.60 224.55 C 424.66 223.62 423.85 221.32 424.15 219.30 C 425.73 216.16 429.70 217.55 432.49 217.35 Z" />
<path fill="#fdfdfd" d=" M 405.43 223.69 C 407.06 222.07 408.17 220.04 409.41 218.13 C 410.19 219.00 410.97 219.87 411.73 220.77 C 412.95 222.24 414.11 223.76 415.28 225.28 C 411.99 227.20 408.03 228.40 405.53 231.39 C 403.60 235.59 403.33 240.31 402.11 244.74 C 399.55 244.10 397.05 243.26 394.61 242.27 C 391.61 241.04 388.23 241.05 385.40 239.36 C 389.55 237.79 394.05 237.59 398.27 236.32 C 398.82 234.96 399.09 233.51 399.50 232.11 C 394.75 232.30 389.73 233.59 385.19 231.56 C 384.20 228.25 384.40 224.80 385.59 221.58 C 390.39 223.60 395.65 221.61 400.46 223.51 C 402.06 223.79 403.93 224.83 405.43 223.69 Z" />
<path fill="#bdbdbd" d=" M 458.32 227.25 C 460.84 225.09 464.45 227.23 467.33 227.58 C 467.47 228.11 467.74 229.17 467.88 229.71 C 465.43 229.57 462.99 229.44 460.54 229.38 C 461.76 232.43 464.75 233.90 467.02 236.03 C 468.19 238.49 468.48 241.25 469.05 243.89 C 468.03 242.76 467.04 241.59 466.06 240.44 C 462.67 242.67 461.89 246.56 461.07 250.23 C 460.34 246.86 460.54 243.41 461.28 240.07 C 459.71 238.62 458.12 237.18 456.53 235.75 C 457.14 232.93 457.16 229.93 458.32 227.25 Z" />
<path fill="#dbdbdb" d=" M 381.15 229.43 C 382.49 230.15 383.82 230.88 385.19 231.56 C 389.73 233.59 394.75 232.30 399.50 232.11 C 399.09 233.51 398.82 234.96 398.27 236.32 C 394.05 237.59 389.55 237.79 385.40 239.36 C 388.23 241.05 391.61 241.04 394.61 242.27 C 397.05 243.26 399.55 244.10 402.11 244.74 C 395.21 245.33 386.84 245.87 383.02 252.66 C 381.76 254.56 380.97 256.81 379.31 258.43 C 376.35 259.59 372.74 258.98 370.20 261.16 C 367.03 263.54 363.14 266.94 358.91 265.20 C 355.10 264.04 353.88 259.88 352.00 256.83 C 349.23 253.00 352.04 246.98 356.50 246.00 C 357.89 247.63 359.30 249.25 360.71 250.86 C 362.15 248.26 363.65 245.70 365.22 243.18 C 367.89 243.57 370.55 244.07 373.24 244.31 C 376.68 239.80 377.82 234.02 381.15 229.43 Z" />
<path fill="#efefef" d=" M 431.86 240.24 C 432.16 237.21 433.55 234.48 436.19 232.86 C 436.13 236.00 434.43 238.56 431.86 240.24 Z" />
<path fill="#efefef" d=" M 320.54 237.46 C 323.05 236.73 326.05 239.19 325.43 241.84 C 324.97 245.49 324.49 249.17 324.89 252.86 C 323.35 250.71 321.96 248.48 320.56 246.25 C 319.92 249.57 319.37 253.26 316.54 255.51 C 312.42 259.16 309.14 263.60 306.41 268.37 C 301.59 276.18 296.24 283.63 290.98 291.14 C 289.56 293.03 289.18 295.40 288.89 297.68 C 287.27 299.03 285.63 300.34 283.98 301.65 C 284.00 303.21 284.01 304.78 284.03 306.36 C 282.38 307.67 280.73 308.98 279.12 310.33 C 278.80 316.57 274.08 321.12 270.17 325.49 C 270.73 326.65 271.29 327.80 271.86 328.97 C 268.91 332.35 264.96 336.13 266.68 341.09 C 264.38 336.51 260.95 332.60 256.74 329.69 C 262.41 327.02 268.46 322.80 268.97 315.96 C 265.42 316.24 264.05 319.66 261.73 321.78 C 260.37 321.73 259.03 321.51 257.70 321.34 C 262.57 313.99 269.13 306.94 269.57 297.65 C 274.94 295.06 275.77 288.67 279.62 284.65 C 282.36 281.72 284.16 278.14 285.55 274.41 C 287.15 269.81 291.65 267.34 294.53 263.65 C 297.54 259.98 299.12 255.44 301.35 251.31 C 302.95 248.26 306.27 246.84 308.86 244.81 C 312.62 242.20 315.87 238.43 320.54 237.46 Z" />
<path fill="#b0b0b0" d=" M 461.07 250.23 C 461.89 246.56 462.67 242.67 466.06 240.44 C 467.04 241.59 468.03 242.76 469.05 243.89 C 472.19 248.77 478.17 246.62 482.90 246.84 C 484.15 247.70 484.79 249.14 485.61 250.38 C 483.05 250.51 480.48 250.65 477.93 250.87 C 478.52 252.58 479.14 254.28 479.76 255.98 L 479.24 255.59 C 478.26 254.84 477.29 254.10 476.32 253.36 C 476.18 254.39 476.06 255.42 475.95 256.46 C 474.75 255.21 473.54 253.96 472.35 252.72 C 464.42 266.84 449.74 274.66 437.86 284.90 C 433.22 290.26 427.42 294.41 422.74 299.72 C 417.62 304.62 412.75 309.80 407.17 314.20 C 403.25 317.28 400.46 321.48 396.93 324.95 C 393.76 328.17 390.13 330.87 386.66 333.75 C 382.65 337.04 379.49 341.18 375.79 344.79 C 361.62 357.53 350.83 373.57 341.64 390.14 C 339.36 389.09 334.78 388.32 336.18 384.81 C 338.81 375.07 346.16 367.85 351.69 359.75 C 354.82 355.20 357.64 350.44 360.97 346.03 C 364.09 341.81 368.51 338.84 371.88 334.84 C 375.23 330.78 380.53 328.95 383.67 324.69 C 385.98 321.69 387.78 318.23 390.86 315.91 C 394.27 313.33 397.61 310.65 400.49 307.47 C 404.34 303.27 409.21 300.23 413.28 296.27 C 416.55 293.19 419.50 289.79 422.50 286.45 C 425.97 282.52 430.60 279.91 434.44 276.38 C 436.56 274.56 438.45 272.39 440.93 271.04 C 443.07 270.42 445.32 271.11 447.49 271.30 C 449.13 268.75 450.78 266.19 452.10 263.45 C 451.84 263.20 451.34 262.70 451.08 262.45 C 449.22 260.67 446.18 258.74 447.56 255.73 C 448.96 254.48 450.67 253.65 452.28 252.70 C 451.10 250.45 449.75 248.28 448.89 245.88 C 449.03 243.39 451.97 242.90 453.73 241.87 C 454.32 244.12 454.86 246.38 455.40 248.65 C 457.10 249.73 458.77 250.85 460.46 251.95 C 460.62 251.52 460.92 250.66 461.07 250.23 Z" />
<path fill="#010101" d=" M 828.65 241.86 C 833.22 241.23 837.95 241.09 842.54 241.65 C 846.77 243.48 850.28 246.62 854.41 248.67 C 857.87 250.32 860.38 253.33 862.41 256.51 C 863.98 258.83 863.73 261.80 864.61 264.38 C 865.75 266.63 867.85 268.43 868.34 270.97 C 868.31 273.32 867.80 275.63 867.47 277.95 C 868.60 279.39 869.70 280.87 870.68 282.44 C 873.90 282.28 877.10 283.07 879.59 285.22 C 878.20 286.09 876.83 286.96 875.45 287.82 C 874.14 287.69 872.83 287.56 871.54 287.43 C 871.12 287.35 870.26 287.18 869.84 287.10 C 869.60 288.01 869.38 288.92 869.17 289.84 C 868.84 291.00 868.50 292.15 868.17 293.31 C 866.61 296.69 864.45 299.75 862.22 302.72 C 861.45 303.70 861.03 304.83 860.94 306.09 C 859.85 307.41 858.79 308.75 857.63 310.01 C 855.45 311.94 852.84 313.30 850.15 314.35 C 847.56 315.40 844.94 316.35 842.31 317.27 C 840.94 320.11 839.63 322.99 838.76 326.03 C 838.01 328.94 837.20 331.85 836.03 334.63 C 835.23 330.64 834.96 326.44 836.18 322.50 C 838.35 320.49 836.07 317.99 833.83 319.85 C 831.45 320.97 829.10 322.14 826.97 323.66 C 824.76 325.94 825.61 329.16 825.59 332.00 C 825.78 335.39 825.55 338.80 824.85 342.12 C 824.32 345.18 823.91 348.26 823.10 351.26 C 822.42 353.02 821.53 354.68 820.65 356.35 C 818.69 354.86 816.94 353.12 815.12 351.47 C 806.99 356.48 798.59 361.06 789.73 364.65 C 787.46 364.97 784.98 365.10 783.04 363.71 C 777.95 360.70 771.64 361.46 766.54 358.54 C 765.52 357.42 766.63 355.73 766.57 354.37 C 759.14 347.11 748.92 344.42 739.99 339.60 C 733.47 340.46 727.69 345.14 720.90 344.27 C 717.69 343.69 713.68 343.39 711.94 340.19 C 710.22 336.90 707.25 333.37 708.58 329.43 C 711.01 325.90 713.44 322.14 717.18 319.88 C 720.03 318.64 722.81 320.24 725.34 321.47 C 729.66 321.74 734.23 320.69 738.31 322.66 C 742.56 324.77 746.53 327.42 750.46 330.08 C 752.08 325.17 755.08 320.96 759.13 317.76 C 756.13 317.38 753.12 317.50 750.12 317.53 C 750.27 317.10 750.57 316.23 750.72 315.80 C 754.67 314.64 758.74 314.32 762.83 314.22 C 769.64 311.10 771.10 303.42 773.92 297.28 C 771.04 300.36 767.67 303.12 763.37 303.80 C 765.86 301.50 768.63 299.50 770.97 297.04 C 772.53 294.06 773.47 290.73 775.65 288.07 C 770.68 290.53 766.03 293.56 761.05 295.96 C 763.77 291.75 767.25 287.60 772.19 286.01 C 777.39 284.23 781.76 280.81 786.82 278.74 C 791.23 276.80 794.86 273.53 797.76 269.74 C 803.20 264.40 807.54 258.10 811.92 251.91 C 815.93 246.46 822.49 244.00 828.65 241.86 Z" />
<path fill="#e9e9e9" d=" M 320.56 246.25 C 321.96 248.48 323.35 250.71 324.89 252.86 C 327.84 254.18 330.97 255.03 334.04 256.04 C 335.97 257.46 337.12 259.65 338.47 261.57 C 339.90 261.33 341.34 261.09 342.77 260.84 C 339.96 262.78 337.24 264.84 334.49 266.88 C 333.98 266.24 333.47 265.60 332.96 264.97 C 333.84 262.99 334.88 261.08 335.77 259.10 C 334.01 258.99 332.25 258.91 330.49 258.80 C 330.81 261.09 331.16 263.37 331.48 265.66 C 326.21 270.71 322.07 276.78 316.70 281.74 C 313.64 284.34 313.70 288.63 311.90 291.93 C 309.75 294.98 306.20 296.94 304.71 300.47 C 303.19 303.90 301.79 307.44 299.32 310.31 C 295.41 314.93 293.41 320.82 289.27 325.27 C 285.06 329.71 283.99 335.95 281.09 341.17 C 278.88 345.18 279.14 349.87 278.81 354.29 C 276.28 354.74 273.78 355.45 271.66 356.94 C 271.74 356.13 271.89 354.50 271.97 353.69 C 273.99 353.43 276.02 353.21 278.05 353.02 C 277.91 351.97 277.75 350.92 277.56 349.89 C 272.80 348.66 268.66 345.69 266.68 341.09 C 264.96 336.13 268.91 332.35 271.86 328.97 C 271.29 327.80 270.73 326.65 270.17 325.49 C 274.08 321.12 278.80 316.57 279.12 310.33 C 280.73 308.98 282.38 307.67 284.03 306.36 C 284.01 304.78 284.00 303.21 283.98 301.65 C 285.63 300.34 287.27 299.03 288.89 297.68 C 289.18 295.40 289.56 293.03 290.98 291.14 C 296.24 283.63 301.59 276.18 306.41 268.37 C 309.14 263.60 312.42 259.16 316.54 255.51 C 319.37 253.26 319.92 249.57 320.56 246.25 Z" />
<path fill="#c6c6c6" d=" M 425.05 250.85 C 426.63 250.29 429.65 249.57 430.09 251.87 C 431.00 254.41 431.04 257.15 431.22 259.82 C 430.43 258.80 429.63 257.79 428.82 256.80 C 428.64 258.39 428.46 259.98 428.28 261.58 C 426.54 261.35 424.82 261.12 423.09 260.89 C 419.92 265.95 415.93 270.50 411.05 273.99 C 400.55 281.72 391.33 291.02 382.74 300.79 C 380.30 303.52 376.75 304.76 373.91 306.97 C 371.36 309.08 370.06 312.32 367.51 314.44 C 364.97 316.55 361.43 317.63 359.80 320.70 C 357.81 324.31 356.19 328.24 353.17 331.16 C 349.21 335.00 346.07 339.53 343.19 344.19 C 337.57 352.88 330.74 361.47 328.99 371.95 C 328.25 370.99 327.51 370.04 326.74 369.13 C 324.63 370.77 322.53 372.41 320.39 374.01 C 322.11 375.66 323.82 377.33 325.56 378.97 C 325.01 379.93 324.45 380.90 323.90 381.88 C 323.26 380.82 322.62 379.78 321.99 378.74 C 320.72 378.93 319.45 379.13 318.19 379.33 C 316.15 384.09 315.80 390.08 311.43 393.46 C 309.70 394.98 307.39 395.42 305.21 395.83 C 305.22 392.41 307.02 389.49 308.99 386.84 C 307.86 385.13 306.64 383.49 305.30 381.95 C 303.90 380.34 302.60 378.64 301.36 376.91 C 303.18 376.59 305.00 376.28 306.83 375.98 C 308.32 377.13 309.87 378.20 311.43 379.27 C 312.50 376.77 313.38 374.20 314.07 371.58 C 312.84 371.05 311.62 370.55 310.39 370.07 C 316.53 360.99 319.53 350.08 326.62 341.62 C 330.23 337.12 332.50 331.70 336.39 327.41 C 340.06 323.25 342.42 318.17 345.77 313.78 C 349.33 309.02 353.47 304.71 356.57 299.62 C 358.87 295.22 364.20 293.96 366.90 289.91 C 369.12 286.76 372.21 284.44 375.33 282.25 C 379.72 279.27 381.12 273.62 385.41 270.54 C 388.55 268.27 391.41 265.65 394.42 263.21 C 395.66 262.02 397.47 262.45 399.01 262.56 C 399.38 262.60 400.11 262.70 400.48 262.75 C 402.36 260.48 404.29 258.25 406.34 256.13 C 407.46 254.98 408.59 253.84 409.72 252.70 C 410.27 252.84 410.82 252.99 411.37 253.14 C 411.05 255.66 410.82 258.18 410.73 260.73 C 413.12 259.74 415.49 258.72 417.96 257.95 C 419.43 258.11 420.90 258.37 422.36 258.69 C 422.53 255.94 422.24 252.43 425.05 250.85 Z" />
<path fill="#fbfbfb" d=" M 400.23 252.81 C 402.44 253.55 404.59 254.56 406.34 256.13 C 404.29 258.25 402.36 260.48 400.48 262.75 C 400.11 262.70 399.38 262.60 399.01 262.56 C 399.38 259.30 399.78 256.05 400.23 252.81 Z" />
<path fill="#a9a9a9" d=" M 437.86 284.90 C 449.74 274.66 464.42 266.84 472.35 252.72 C 473.54 253.96 474.75 255.21 475.95 256.46 C 476.06 255.42 476.18 254.39 476.32 253.36 C 477.29 254.10 478.26 254.84 479.24 255.59 C 478.56 256.92 477.88 258.26 477.21 259.60 C 478.77 259.84 480.33 260.09 481.90 260.30 C 475.28 263.02 469.97 268.20 465.71 273.84 C 462.48 278.08 456.65 279.12 453.42 283.36 C 450.83 286.77 448.11 290.17 444.39 292.41 C 437.49 296.66 432.88 303.53 426.46 308.35 C 423.75 310.35 421.43 312.79 419.42 315.47 C 417.13 318.53 413.77 320.46 410.93 322.93 C 403.64 329.97 396.03 336.66 389.10 344.07 C 385.51 348.19 380.62 350.92 377.20 355.21 C 370.95 363.23 362.50 369.30 356.97 377.91 C 355.89 379.98 356.01 382.40 355.93 384.66 C 355.22 384.22 354.51 383.79 353.81 383.36 C 351.68 388.14 354.24 392.94 353.81 397.82 C 348.30 398.52 344.98 393.61 341.64 390.14 C 350.83 373.57 361.62 357.53 375.79 344.79 C 379.49 341.18 382.65 337.04 386.66 333.75 C 390.13 330.87 393.76 328.17 396.93 324.95 C 400.46 321.48 403.25 317.28 407.17 314.20 C 412.75 309.80 417.62 304.62 422.74 299.72 C 427.42 294.41 433.22 290.26 437.86 284.90 Z" />
<path fill="#a1a1a1" d=" M 486.22 254.64 C 486.92 254.52 488.33 254.27 489.04 254.15 C 488.81 256.67 488.50 259.24 487.10 261.42 C 486.31 259.24 486.10 256.93 486.22 254.64 Z" />
<path fill="#bababa" d=" M 428.82 256.80 C 429.63 257.79 430.43 258.80 431.22 259.82 C 432.54 261.21 433.35 263.31 435.17 264.10 C 437.51 263.64 439.62 262.42 441.93 261.81 C 445.15 263.20 446.19 266.79 447.35 269.79 C 448.22 267.16 449.55 264.74 451.08 262.45 C 451.34 262.70 451.84 263.20 452.10 263.45 C 450.78 266.19 449.13 268.75 447.49 271.30 C 445.32 271.11 443.07 270.42 440.93 271.04 C 438.45 272.39 436.56 274.56 434.44 276.38 C 430.60 279.91 425.97 282.52 422.50 286.45 C 419.50 289.79 416.55 293.19 413.28 296.27 C 409.21 300.23 404.34 303.27 400.49 307.47 C 397.61 310.65 394.27 313.33 390.86 315.91 C 387.78 318.23 385.98 321.69 383.67 324.69 C 380.53 328.95 375.23 330.78 371.88 334.84 C 368.51 338.84 364.09 341.81 360.97 346.03 C 357.64 350.44 354.82 355.20 351.69 359.75 C 346.16 367.85 338.81 375.07 336.18 384.81 C 334.40 384.03 332.56 383.37 330.71 382.80 C 330.55 385.05 330.37 387.30 330.12 389.55 C 328.89 389.24 327.69 388.89 326.50 388.48 C 325.04 386.57 324.66 384.10 323.90 381.88 C 324.45 380.90 325.01 379.93 325.56 378.97 C 326.72 380.04 327.90 381.11 329.08 382.18 C 329.11 378.77 329.00 375.36 328.99 371.95 C 330.74 361.47 337.57 352.88 343.19 344.19 C 346.07 339.53 349.21 335.00 353.17 331.16 C 356.19 328.24 357.81 324.31 359.80 320.70 C 361.43 317.63 364.97 316.55 367.51 314.44 C 370.06 312.32 371.36 309.08 373.91 306.97 C 376.75 304.76 380.30 303.52 382.74 300.79 C 391.33 291.02 400.55 281.72 411.05 273.99 C 415.93 270.50 419.92 265.95 423.09 260.89 C 424.82 261.12 426.54 261.35 428.28 261.58 C 428.46 259.98 428.64 258.39 428.82 256.80 Z" />
<path fill="#e0e0e0" d=" M 330.49 258.80 C 332.25 258.91 334.01 258.99 335.77 259.10 C 334.88 261.08 333.84 262.99 332.96 264.97 C 333.47 265.60 333.98 266.24 334.49 266.88 C 337.24 264.84 339.96 262.78 342.77 260.84 C 343.90 260.10 345.10 259.14 346.55 259.49 C 346.72 260.11 347.07 261.35 347.24 261.97 C 345.58 265.47 343.62 268.91 343.28 272.87 C 347.59 271.61 352.19 271.53 356.00 274.23 C 354.26 274.91 352.38 274.88 350.55 274.86 C 349.36 277.20 348.45 279.72 346.81 281.79 C 344.97 283.39 342.60 284.22 340.72 285.76 C 338.85 288.36 338.09 291.59 336.10 294.12 C 333.92 296.89 331.03 299.06 329.12 302.04 C 326.71 305.81 325.38 310.17 322.75 313.80 C 319.81 318.05 315.48 321.30 313.30 326.07 C 311.72 329.51 310.60 333.20 308.38 336.31 C 301.10 346.55 294.70 357.46 290.05 369.14 C 285.69 369.25 281.06 369.80 276.94 368.04 C 273.55 365.43 272.89 360.79 271.66 356.94 C 273.78 355.45 276.28 354.74 278.81 354.29 C 279.14 349.87 278.88 345.18 281.09 341.17 C 283.99 335.95 285.06 329.71 289.27 325.27 C 293.41 320.82 295.41 314.93 299.32 310.31 C 301.79 307.44 303.19 303.90 304.71 300.47 C 306.20 296.94 309.75 294.98 311.90 291.93 C 313.70 288.63 313.64 284.34 316.70 281.74 C 322.07 276.78 326.21 270.71 331.48 265.66 C 331.16 263.37 330.81 261.09 330.49 258.80 Z" />
<path fill="#a2a2a2" d=" M 465.71 273.84 C 469.97 268.20 475.28 263.02 481.90 260.30 C 484.37 262.12 486.87 263.89 489.36 265.69 C 488.20 267.71 487.22 269.87 487.39 272.26 C 486.19 271.33 484.98 270.41 483.78 269.49 C 476.57 273.88 471.51 280.79 464.86 285.86 C 460.80 289.11 456.46 292.06 453.06 296.04 C 448.93 300.96 443.12 304.07 439.00 309.01 C 435.17 313.59 430.11 316.80 425.58 320.59 C 416.37 329.40 408.12 339.25 398.04 347.12 C 394.04 350.46 391.62 355.26 387.61 358.60 C 384.36 361.32 380.78 363.75 378.19 367.17 C 373.53 373.39 367.02 377.89 362.38 384.13 C 362.89 385.72 363.42 387.31 364.01 388.89 C 360.86 388.83 357.05 388.08 355.93 384.66 C 356.01 382.40 355.89 379.98 356.97 377.91 C 362.50 369.30 370.95 363.23 377.20 355.21 C 380.62 350.92 385.51 348.19 389.10 344.07 C 396.03 336.66 403.64 329.97 410.93 322.93 C 413.77 320.46 417.13 318.53 419.42 315.47 C 421.43 312.79 423.75 310.35 426.46 308.35 C 432.88 303.53 437.49 296.66 444.39 292.41 C 448.11 290.17 450.83 286.77 453.42 283.36 C 456.65 279.12 462.48 278.08 465.71 273.84 Z" />
<path fill="#949494" d=" M 508.40 260.89 C 511.70 261.86 515.68 263.09 516.18 267.09 C 514.24 266.58 512.33 265.97 510.44 265.32 C 510.40 267.16 510.45 269.01 510.13 270.82 C 508.60 271.50 506.95 271.75 505.35 272.13 C 504.46 275.14 502.58 277.48 499.51 278.38 C 494.56 282.41 489.77 286.68 485.29 291.24 C 477.68 297.98 469.33 303.91 462.39 311.39 C 458.58 314.93 454.48 318.18 451.08 322.15 C 447.93 325.33 444.06 327.70 440.98 330.97 C 431.48 340.81 420.32 348.96 411.45 359.42 C 403.29 367.59 395.16 375.81 386.84 383.82 C 381.69 390.03 375.73 395.52 370.74 401.87 C 370.51 400.30 370.27 398.74 370.05 397.18 C 371.70 395.18 373.24 393.10 374.92 391.14 C 375.13 390.94 375.55 390.54 375.75 390.34 C 373.47 389.82 371.19 389.32 368.91 388.80 C 371.52 386.80 374.19 384.87 376.56 382.57 C 390.13 368.46 404.18 354.82 417.97 340.91 C 426.08 333.08 433.48 324.43 442.63 317.73 C 447.95 314.06 451.45 308.37 456.89 304.84 C 462.23 301.28 466.23 296.18 471.27 292.25 C 476.66 288.05 480.67 282.27 486.60 278.75 C 489.91 276.44 494.70 274.56 495.08 269.94 C 494.05 267.53 492.87 265.18 492.01 262.71 C 496.53 263.04 500.81 264.61 504.97 266.30 C 506.10 264.49 507.24 262.69 508.40 260.89 Z" />
<path fill="#d6d6d6" d=" M 366.98 270.03 C 371.49 267.58 376.72 266.89 381.15 264.26 C 379.32 267.05 376.06 268.09 373.10 269.20 C 373.11 269.91 373.13 270.63 373.15 271.36 C 371.48 271.44 369.81 271.52 368.15 271.61 C 367.52 274.43 366.31 277.16 363.82 278.83 C 358.95 282.35 356.43 288.08 351.76 291.81 C 347.31 295.40 343.73 299.92 341.02 304.94 C 338.63 309.41 334.88 312.89 332.12 317.10 C 325.41 328.03 319.20 339.28 311.87 349.81 C 309.27 353.72 307.73 358.23 305.10 362.13 C 303.72 364.32 302.05 366.38 301.19 368.86 C 301.74 370.24 302.57 371.48 303.40 372.71 C 304.47 373.86 305.61 374.96 306.83 375.98 C 305.00 376.28 303.18 376.59 301.36 376.91 C 302.60 378.64 303.90 380.34 305.30 381.95 C 304.17 384.01 302.73 385.89 300.91 387.38 C 300.42 384.07 300.79 380.72 300.46 377.41 C 299.76 374.30 297.58 371.84 295.85 369.27 C 293.91 369.20 291.98 369.21 290.05 369.14 C 294.70 357.46 301.10 346.55 308.38 336.31 C 310.60 333.20 311.72 329.51 313.30 326.07 C 315.48 321.30 319.81 318.05 322.75 313.80 C 325.38 310.17 326.71 305.81 329.12 302.04 C 331.03 299.06 333.92 296.89 336.10 294.12 C 338.09 291.59 338.85 288.36 340.72 285.76 C 342.60 284.22 344.97 283.39 346.81 281.79 C 348.45 279.72 349.36 277.20 350.55 274.86 C 352.38 274.88 354.26 274.91 356.00 274.23 C 359.56 272.55 363.52 271.93 366.98 270.03 Z" />
<path fill="#9b9b9b" d=" M 464.86 285.86 C 471.51 280.79 476.57 273.88 483.78 269.49 C 484.98 270.41 486.19 271.33 487.39 272.26 C 489.97 271.56 492.52 270.75 495.08 269.94 C 494.70 274.56 489.91 276.44 486.60 278.75 C 480.67 282.27 476.66 288.05 471.27 292.25 C 466.23 296.18 462.23 301.28 456.89 304.84 C 451.45 308.37 447.95 314.06 442.63 317.73 C 433.48 324.43 426.08 333.08 417.97 340.91 C 404.18 354.82 390.13 368.46 376.56 382.57 C 374.19 384.87 371.52 386.80 368.91 388.80 C 371.19 389.32 373.47 389.82 375.75 390.34 C 375.55 390.54 375.13 390.94 374.92 391.14 C 372.26 392.12 369.53 392.90 366.83 393.73 C 365.79 392.18 364.71 390.62 364.01 388.89 C 363.42 387.31 362.89 385.72 362.38 384.13 C 367.02 377.89 373.53 373.39 378.19 367.17 C 380.78 363.75 384.36 361.32 387.61 358.60 C 391.62 355.26 394.04 350.46 398.04 347.12 C 408.12 339.25 416.37 329.40 425.58 320.59 C 430.11 316.80 435.17 313.59 439.00 309.01 C 443.12 304.07 448.93 300.96 453.06 296.04 C 456.46 292.06 460.80 289.11 464.86 285.86 Z" />
<path fill="#8d8d8d" d=" M 485.29 291.24 C 489.77 286.68 494.56 282.41 499.51 278.38 C 500.62 279.13 501.74 279.89 502.87 280.65 C 506.07 278.43 509.94 278.48 513.64 279.10 C 512.58 280.81 511.95 283.10 509.97 283.98 C 507.50 285.16 504.74 285.79 502.52 287.46 C 496.88 291.81 492.60 297.63 487.12 302.16 C 483.42 305.10 478.96 307.12 475.91 310.85 C 468.15 319.80 457.43 325.72 450.28 335.25 C 447.08 339.46 442.01 341.60 438.57 345.59 C 434.98 349.67 430.74 353.08 426.74 356.73 C 421.48 361.48 417.32 367.36 411.62 371.62 C 406.87 375.19 403.30 379.98 399.43 384.42 C 394.96 389.62 390.00 394.46 386.40 400.36 C 384.23 404.09 381.09 407.06 377.79 409.78 C 375.79 411.22 375.03 413.60 374.63 415.92 C 373.07 411.91 370.46 408.32 369.58 404.06 C 369.87 403.51 370.45 402.42 370.74 401.87 C 375.73 395.52 381.69 390.03 386.84 383.82 C 395.16 375.81 403.29 367.59 411.45 359.42 C 420.32 348.96 431.48 340.81 440.98 330.97 C 444.06 327.70 447.93 325.33 451.08 322.15 C 454.48 318.18 458.58 314.93 462.39 311.39 C 469.33 303.91 477.68 297.98 485.29 291.24 Z" />
<path fill="#868686" d=" M 513.64 279.10 L 514.19 278.04 C 515.31 278.66 516.42 279.33 517.51 280.04 C 517.40 282.78 515.77 285.14 515.16 287.77 C 515.93 288.83 517.46 288.50 518.59 288.83 C 515.74 289.78 512.76 290.55 510.24 292.26 C 507.67 294.11 505.88 296.78 503.68 299.02 C 500.81 302.06 497.38 304.47 494.08 307.02 C 489.53 310.48 486.00 315.06 481.54 318.63 C 477.00 322.69 471.59 325.88 467.97 330.89 C 466.25 333.23 464.03 335.14 461.67 336.82 C 456.60 340.32 453.17 345.69 447.90 348.94 C 443.84 351.41 440.40 354.74 437.85 358.74 C 430.33 369.86 417.72 376.11 410.14 387.18 C 407.18 391.77 402.94 395.36 400.03 399.99 C 395.72 406.77 390.81 413.20 385.05 418.82 C 385.23 419.29 385.41 419.76 385.60 420.23 C 381.72 420.04 376.00 420.70 374.63 415.92 C 375.03 413.60 375.79 411.22 377.79 409.78 C 381.09 407.06 384.23 404.09 386.40 400.36 C 390.00 394.46 394.96 389.62 399.43 384.42 C 403.30 379.98 406.87 375.19 411.62 371.62 C 417.32 367.36 421.48 361.48 426.74 356.73 C 430.74 353.08 434.98 349.67 438.57 345.59 C 442.01 341.60 447.08 339.46 450.28 335.25 C 457.43 325.72 468.15 319.80 475.91 310.85 C 478.96 307.12 483.42 305.10 487.12 302.16 C 492.60 297.63 496.88 291.81 502.52 287.46 C 504.74 285.79 507.50 285.16 509.97 283.98 C 511.95 283.10 512.58 280.81 513.64 279.10 Z" />
<path fill="#1f2045" d=" M 879.59 285.22 C 883.75 290.27 885.56 296.82 890.18 301.52 C 889.69 301.48 888.70 301.39 888.20 301.34 C 888.89 303.84 889.52 306.36 890.33 308.83 C 888.80 310.20 887.32 311.64 885.78 313.01 C 883.77 314.43 881.62 315.64 879.41 316.72 C 877.28 317.75 875.19 318.85 873.00 319.76 C 870.35 320.65 867.64 321.33 864.95 322.03 C 862.71 317.90 860.40 313.79 857.63 310.01 C 858.79 308.75 859.85 307.41 860.94 306.09 C 863.38 306.55 865.75 302.74 862.22 302.72 C 864.45 299.75 866.61 296.69 868.17 293.31 C 868.77 293.14 869.40 292.98 870.03 292.82 C 869.74 291.82 869.43 290.83 869.17 289.84 C 869.38 288.92 869.60 288.01 869.84 287.10 C 870.26 287.18 871.12 287.35 871.54 287.43 C 872.77 288.40 873.99 289.41 875.22 290.40 C 875.28 289.75 875.39 288.46 875.45 287.82 C 876.83 286.96 878.20 286.09 879.59 285.22 Z" />
<path fill="#d6d6d6" d=" M 855.47 292.40 C 856.82 290.05 857.10 286.76 859.93 285.64 C 856.73 293.24 850.22 298.91 843.16 302.92 C 847.52 299.76 852.39 296.96 855.47 292.40 Z" />
<path fill="#f5fbfe" d=" M 871.54 287.43 C 872.83 287.56 874.14 287.69 875.45 287.82 C 875.39 288.46 875.28 289.75 875.22 290.40 C 873.99 289.41 872.77 288.40 871.54 287.43 Z" />
<path fill="#010101" d=" M 942.52 287.57 C 944.43 286.92 946.57 287.09 948.54 287.45 C 950.93 289.66 953.78 291.73 954.82 294.97 C 957.68 300.51 963.00 304.36 966.65 309.23 C 966.11 313.29 960.12 313.33 958.83 317.10 C 957.76 321.40 956.46 325.68 954.19 329.53 C 950.22 329.56 945.69 328.21 942.93 331.94 C 941.79 330.80 940.88 329.37 939.51 328.52 C 936.98 327.88 934.46 328.52 932.04 329.23 C 926.54 329.38 921.00 329.39 915.56 330.29 C 915.13 331.68 914.69 333.07 914.25 334.46 C 909.09 334.60 903.98 333.88 898.89 333.16 C 898.29 331.17 897.22 329.38 896.22 327.58 C 895.01 321.11 892.61 314.97 890.33 308.83 C 889.52 306.36 888.89 303.84 888.20 301.34 C 888.70 301.39 889.69 301.48 890.18 301.52 C 892.45 304.68 895.46 307.22 897.63 310.45 C 901.89 310.05 905.90 311.50 910.03 312.24 C 914.46 312.31 918.46 314.76 922.95 314.56 C 927.12 315.23 931.34 315.07 935.52 315.59 C 934.93 311.11 931.40 307.72 929.14 303.97 C 930.03 301.76 931.67 299.94 933.10 298.06 C 936.07 294.42 938.74 290.44 942.52 287.57 Z" />
<path fill="#7a7a7a" d=" M 518.59 288.83 C 520.04 288.38 521.49 287.87 523.01 287.69 C 525.45 288.31 527.14 290.41 529.37 291.50 C 531.55 291.73 533.88 290.58 535.90 291.88 C 533.79 294.83 530.58 296.65 527.63 298.64 C 525.29 300.18 522.31 301.36 519.55 300.22 C 516.47 299.07 513.30 298.19 510.18 297.20 C 511.15 299.31 513.00 301.39 512.42 303.88 C 510.85 306.12 508.44 307.62 506.83 309.85 C 509.31 308.53 511.31 306.33 514.03 305.51 C 519.38 307.14 523.88 311.12 529.67 311.53 C 520.28 316.00 512.13 322.63 503.76 328.71 C 500.83 330.73 497.47 332.28 495.17 335.09 C 488.99 343.33 479.02 347.64 472.76 355.81 C 470.21 358.98 468.31 362.63 465.70 365.75 C 463.24 368.63 459.58 370.13 457.05 372.92 C 455.22 375.55 454.59 378.90 452.28 381.22 C 448.84 384.77 444.81 387.79 441.98 391.91 C 438.47 397.08 434.31 401.77 430.80 406.94 C 427.49 411.88 422.10 415.02 419.18 420.28 C 417.71 422.97 415.38 425.08 412.38 425.88 C 411.35 425.90 410.32 425.90 409.29 425.88 C 409.76 427.29 410.23 428.70 410.69 430.12 C 407.41 432.37 403.98 434.67 402.25 438.41 C 401.78 438.50 400.84 438.69 400.37 438.78 C 400.07 437.57 399.77 436.36 399.49 435.15 C 397.80 437.42 396.55 441.32 393.01 440.51 C 389.63 440.65 387.63 437.01 387.73 434.02 C 387.64 429.37 387.44 424.58 385.60 420.23 C 385.41 419.76 385.23 419.29 385.05 418.82 C 390.81 413.20 395.72 406.77 400.03 399.99 C 402.94 395.36 407.18 391.77 410.14 387.18 C 417.72 376.11 430.33 369.86 437.85 358.74 C 440.40 354.74 443.84 351.41 447.90 348.94 C 453.17 345.69 456.60 340.32 461.67 336.82 C 464.03 335.14 466.25 333.23 467.97 330.89 C 471.59 325.88 477.00 322.69 481.54 318.63 C 486.00 315.06 489.53 310.48 494.08 307.02 C 497.38 304.47 500.81 302.06 503.68 299.02 C 505.88 296.78 507.67 294.11 510.24 292.26 C 512.76 290.55 515.74 289.78 518.59 288.83 Z" />
<path fill="#868686" d=" M 781.56 288.76 C 782.28 288.53 783.72 288.07 784.44 287.84 C 783.59 289.39 782.57 290.84 781.45 292.21 C 781.43 291.05 781.46 289.90 781.56 288.76 Z" />
<path fill="#f5fbfe" d=" M 868.17 293.31 C 868.50 292.15 868.84 291.00 869.17 289.84 C 869.43 290.83 869.74 291.82 870.03 292.82 C 869.40 292.98 868.77 293.14 868.17 293.31 Z" />
<path fill="#f5fbfe" d=" M 878.71 289.87 C 879.67 288.50 882.45 289.87 881.32 291.43 C 880.32 292.59 877.60 291.41 878.71 289.87 Z" />
<path fill="#303030" d=" M 841.19 294.11 C 843.13 293.44 843.30 296.51 841.56 296.76 C 839.61 297.44 839.45 294.37 841.19 294.11 Z" />
<path fill="#f5fbfe" d=" M 874.32 294.15 C 874.88 294.24 876.01 294.42 876.57 294.51 C 876.64 295.06 876.77 296.15 876.84 296.70 C 876.24 296.69 875.03 296.67 874.43 296.66 C 874.40 296.03 874.34 294.78 874.32 294.15 Z" />
<path fill="#494850" d=" M 861.37 296.20 C 862.99 295.67 863.53 296.23 863.01 297.87 C 861.38 298.38 860.83 297.82 861.37 296.20 Z" />
<path fill="#e2e2e2" d=" M 867.23 297.31 C 868.36 297.33 869.51 297.35 870.67 297.37 C 870.52 298.36 870.35 299.34 870.18 300.33 C 869.39 300.32 868.60 300.32 867.83 300.32 C 867.60 299.32 867.40 298.31 867.23 297.31 Z" />
<path fill="#f5fbfe" d=" M 881.51 296.92 C 882.62 297.79 883.73 298.67 884.85 299.54 C 883.71 299.49 882.58 299.46 881.45 299.43 C 881.47 298.80 881.50 297.55 881.51 296.92 Z" />
<path fill="#6f6f6f" d=" M 544.86 299.98 C 548.78 298.89 552.75 300.48 556.67 300.77 C 556.49 304.67 556.20 308.58 555.64 312.45 C 551.43 313.05 548.82 316.48 545.67 318.93 C 545.19 316.20 546.12 313.21 544.56 310.73 C 543.35 313.12 542.58 315.76 540.97 317.94 C 539.34 319.02 537.50 319.72 535.78 320.61 C 536.55 322.17 537.56 323.59 538.78 324.83 C 536.46 324.86 533.76 324.13 531.81 325.79 C 527.97 328.77 524.78 332.60 520.46 334.96 C 516.75 337.01 513.27 339.43 509.89 341.99 C 507.16 344.24 503.50 344.28 500.28 345.33 C 499.14 347.82 498.76 350.56 498.13 353.20 C 494.81 354.62 491.73 356.59 489.38 359.37 C 486.69 362.52 482.89 364.26 479.61 366.67 C 474.42 370.63 472.13 377.05 467.79 381.77 C 463.15 386.79 457.77 391.09 453.38 396.35 C 449.06 401.50 446.25 407.73 441.72 412.73 C 438.93 415.94 435.45 418.49 432.80 421.82 C 430.92 424.18 430.94 427.32 430.70 430.18 C 429.17 430.21 427.64 430.24 426.11 430.27 C 424.71 428.37 423.76 425.28 420.98 425.20 C 418.15 426.32 415.15 428.45 412.38 425.88 C 415.38 425.08 417.71 422.97 419.18 420.28 C 422.10 415.02 427.49 411.88 430.80 406.94 C 434.31 401.77 438.47 397.08 441.98 391.91 C 444.81 387.79 448.84 384.77 452.28 381.22 C 454.59 378.90 455.22 375.55 457.05 372.92 C 459.58 370.13 463.24 368.63 465.70 365.75 C 468.31 362.63 470.21 358.98 472.76 355.81 C 479.02 347.64 488.99 343.33 495.17 335.09 C 497.47 332.28 500.83 330.73 503.76 328.71 C 512.13 322.63 520.28 316.00 529.67 311.53 C 531.37 312.93 533.39 313.71 535.61 313.65 C 535.56 310.11 534.50 306.71 534.13 303.21 C 537.58 301.75 541.23 300.86 544.86 299.98 Z" />
<path fill="#f5fbfe" d=" M 875.05 300.28 C 877.54 299.81 877.86 302.07 878.20 303.98 C 876.39 303.66 873.29 302.58 875.05 300.28 Z" />
<path fill="#707189" d=" M 862.22 302.72 C 865.75 302.74 863.38 306.55 860.94 306.09 C 861.03 304.83 861.45 303.70 862.22 302.72 Z" />
<path fill="#f5fbfe" d=" M 882.72 302.93 C 884.05 304.05 885.36 305.08 886.38 306.52 C 885.09 306.64 883.82 306.71 882.55 306.73 C 882.54 305.46 882.59 304.19 882.72 302.93 Z" />
<path fill="#dbdbdb" d=" M 827.55 309.30 C 829.70 307.15 832.34 305.50 835.23 304.54 C 833.43 307.11 830.83 309.26 827.55 309.30 Z" />
<path fill="#f5fbfe" d=" M 846.56 310.99 C 848.34 308.41 850.65 306.25 852.97 304.15 C 853.94 305.18 854.91 306.21 855.90 307.24 C 853.13 309.22 849.98 310.72 846.56 310.99 Z" />
<path fill="#f5fbfe" d=" M 866.00 304.51 C 867.23 305.13 868.46 305.77 869.72 306.38 C 869.66 306.90 869.55 307.94 869.49 308.46 C 868.92 308.71 867.77 309.22 867.20 309.47 C 866.71 309.00 865.73 308.06 865.23 307.58 C 865.40 306.54 865.66 305.51 866.00 304.51 Z" />
<path fill="#686868" d=" M 800.98 316.03 C 801.26 312.88 802.49 309.87 805.09 307.93 C 804.26 310.88 802.80 313.59 800.98 316.03 Z" />
<path fill="#f5fbfe" d=" M 875.18 308.23 C 876.34 308.44 877.50 308.79 878.66 309.13 C 878.64 309.78 878.59 311.07 878.57 311.72 C 877.29 311.57 875.89 311.93 874.74 311.29 C 874.38 310.22 874.05 308.97 875.18 308.23 Z" />
<path fill="#fef6f7" d=" M 885.78 313.01 C 887.32 311.64 888.80 310.20 890.33 308.83 C 892.61 314.97 895.01 321.11 896.22 327.58 C 897.16 337.90 897.78 348.51 894.99 358.61 C 891.97 368.34 891.67 378.70 892.56 388.76 C 894.79 395.59 895.13 402.79 896.61 409.78 C 894.15 411.41 891.96 413.76 888.87 414.04 C 888.20 409.56 889.72 404.73 887.45 400.58 C 884.61 394.78 885.02 388.04 885.94 381.83 C 888.26 373.39 891.59 365.22 893.21 356.59 C 894.06 350.69 893.59 344.68 892.58 338.83 C 891.64 329.97 890.66 320.71 885.78 313.01 Z" />
<path fill="#fafaf9" d=" M 850.15 314.35 C 852.84 313.30 855.45 311.94 857.63 310.01 C 860.40 313.79 862.71 317.90 864.95 322.03 C 868.03 328.43 869.64 335.40 871.85 342.13 C 872.82 345.38 874.15 348.57 874.52 351.96 C 874.18 354.96 872.64 357.65 871.68 360.48 C 869.45 365.68 870.71 371.42 870.17 376.88 C 868.88 374.46 867.53 372.08 865.98 369.83 C 867.78 365.81 869.05 361.52 869.03 357.08 C 868.13 353.86 865.81 351.26 864.76 348.09 C 860.35 336.66 856.88 324.72 850.15 314.35 Z" />
<path fill="#7f2d2d" d=" M 822.49 311.22 C 825.32 311.84 828.18 312.36 831.07 312.69 C 831.74 313.99 832.45 315.28 833.19 316.57 C 830.83 318.28 828.45 319.95 826.04 321.57 C 825.57 319.89 824.97 318.25 824.40 316.62 C 823.76 314.81 823.15 313.01 822.49 311.22 Z" />
<path fill="#fff2f6" d=" M 831.07 312.69 C 833.79 311.83 836.52 310.97 839.30 310.31 C 839.41 311.22 839.62 313.05 839.72 313.96 C 837.51 314.76 835.33 315.63 833.19 316.57 C 832.45 315.28 831.74 313.99 831.07 312.69 Z" />
<path fill="#646464" d=" M 569.87 312.11 C 570.61 312.14 572.10 312.21 572.85 312.24 C 573.09 313.71 573.35 315.19 573.58 316.68 C 575.47 316.73 577.37 316.61 579.28 316.71 C 579.29 319.55 580.08 322.71 578.25 325.18 C 576.90 327.19 576.71 329.63 576.32 331.96 C 572.63 331.28 568.99 330.41 565.22 330.42 C 564.98 330.05 564.52 329.29 564.28 328.92 C 565.83 326.95 568.68 326.02 569.69 323.73 C 569.56 319.85 569.00 315.95 569.87 312.11 Z" />
<path fill="#737373" d=" M 796.11 321.08 C 797.48 317.97 797.59 314.26 800.05 311.69 C 799.77 317.93 796.70 323.88 792.40 328.32 C 793.58 325.88 795.02 323.57 796.11 321.08 Z" />
<path fill="#fcfcfc" d=" M 784.12 319.30 C 785.95 317.10 788.03 315.11 790.10 313.13 C 783.85 320.12 780.92 329.22 777.92 337.91 C 775.37 337.62 772.92 336.85 770.49 336.08 C 771.87 332.91 773.11 329.68 774.49 326.51 C 774.56 329.91 774.80 333.43 776.90 336.28 C 779.68 330.78 780.27 324.26 784.12 319.30 Z" />
<path fill="#fbf9fe" d=" M 864.22 313.72 C 865.78 313.62 867.36 313.57 868.95 313.53 C 868.89 315.80 867.68 317.59 866.02 319.03 C 865.37 317.27 864.75 315.51 864.22 313.72 Z" />
<path fill="#932625" d=" M 842.31 317.27 C 844.94 316.35 847.56 315.40 850.15 314.35 C 856.88 324.72 860.35 336.66 864.76 348.09 C 865.81 351.26 868.13 353.86 869.03 357.08 C 869.05 361.52 867.78 365.81 865.98 369.83 C 867.53 372.08 868.88 374.46 870.17 376.88 C 870.71 371.42 869.45 365.68 871.68 360.48 C 872.64 357.65 874.18 354.96 874.52 351.96 C 874.15 348.57 872.82 345.38 871.85 342.13 C 869.64 335.40 868.03 328.43 864.95 322.03 C 867.64 321.33 870.35 320.65 873.00 319.76 C 877.49 328.00 878.53 337.43 881.43 346.23 C 881.59 348.58 880.41 350.78 880.04 353.07 C 878.71 357.67 881.82 362.74 879.11 367.04 C 876.10 372.69 873.06 378.56 872.38 385.01 C 872.10 391.22 872.21 397.49 873.53 403.59 C 874.86 408.01 869.65 411.33 871.26 415.82 C 868.15 415.78 865.05 415.65 861.95 415.70 C 863.11 412.27 866.42 409.32 865.71 405.46 C 864.21 396.62 864.68 387.33 867.82 378.88 C 865.18 381.50 863.26 384.72 862.51 388.39 C 861.33 393.51 857.86 397.79 857.14 403.03 C 856.44 407.42 854.21 411.34 852.76 415.50 C 849.47 415.31 846.07 415.04 843.12 413.46 C 845.42 407.97 849.86 403.87 852.84 398.79 C 856.70 393.79 859.31 387.97 861.04 381.92 C 861.58 379.81 860.23 377.75 860.44 375.64 C 861.15 372.54 863.11 369.44 862.06 366.18 C 860.77 361.90 858.76 357.88 857.23 353.70 C 854.57 346.29 853.80 338.16 849.72 331.31 C 847.02 326.74 845.66 321.45 842.31 317.27 Z" />
<path fill="#922627" d=" M 879.41 316.72 C 881.62 315.64 883.77 314.43 885.78 313.01 C 890.66 320.71 891.64 329.97 892.58 338.83 C 893.59 344.68 894.06 350.69 893.21 356.59 C 891.59 365.22 888.26 373.39 885.94 381.83 C 885.02 388.04 884.61 394.78 887.45 400.58 C 889.72 404.73 888.20 409.56 888.87 414.04 C 886.49 414.47 884.09 414.81 881.70 415.14 C 880.93 414.14 880.19 413.13 879.48 412.11 C 880.20 409.65 882.06 407.19 881.23 404.54 C 879.45 398.56 877.85 392.35 878.45 386.07 C 879.48 375.77 885.68 366.91 886.92 356.67 C 889.19 342.95 885.63 328.96 879.41 316.72 Z" />
<path fill="#949494" d=" M 801.09 322.15 C 802.17 319.40 803.71 316.81 806.00 314.89 C 805.22 317.81 803.58 320.41 801.09 322.15 Z" />
<path fill="#4b4b4b" d=" M 781.87 316.93 C 782.62 317.71 783.36 318.50 784.12 319.30 C 780.27 324.26 779.68 330.78 776.90 336.28 C 774.80 333.43 774.56 329.91 774.49 326.51 L 774.44 325.56 C 775.22 326.63 775.98 327.73 776.76 328.83 C 776.85 328.62 777.05 328.19 777.15 327.97 C 778.55 324.99 779.74 321.92 781.02 318.89 C 781.23 318.40 781.66 317.42 781.87 316.93 Z" />
<path fill="#d6d6d6" d=" M 824.40 316.62 C 824.97 318.25 825.57 319.89 826.04 321.57 C 825.72 322.03 825.08 322.96 824.76 323.42 C 824.49 321.16 824.40 318.89 824.40 316.62 Z" />
<path fill="#fdf8f7" d=" M 873.00 319.76 C 875.19 318.85 877.28 317.75 879.41 316.72 C 885.63 328.96 889.19 342.95 886.92 356.67 C 885.68 366.91 879.48 375.77 878.45 386.07 C 877.85 392.35 879.45 398.56 881.23 404.54 C 882.06 407.19 880.20 409.65 879.48 412.11 C 880.19 413.13 880.93 414.14 881.70 415.14 C 878.23 415.53 874.74 415.74 871.26 415.82 C 869.65 411.33 874.86 408.01 873.53 403.59 C 872.21 397.49 872.10 391.22 872.38 385.01 C 873.06 378.56 876.10 372.69 879.11 367.04 C 881.82 362.74 878.71 357.67 880.04 353.07 C 880.41 350.78 881.59 348.58 881.43 346.23 C 878.53 337.43 877.49 328.00 873.00 319.76 Z" />
<path fill="#fafafa" d=" M 753.92 331.22 C 755.05 323.76 762.14 319.65 768.85 317.97 C 765.33 321.91 762.91 327.05 763.52 332.44 C 766.80 329.93 767.09 325.47 768.76 321.96 C 767.78 326.14 766.44 330.26 766.28 334.59 C 762.14 333.51 757.96 332.64 753.92 331.22 Z" />
<path fill="#fbf8f6" d=" M 842.31 317.27 C 845.66 321.45 847.02 326.74 849.72 331.31 C 853.80 338.16 854.57 346.29 857.23 353.70 C 858.76 357.88 860.77 361.90 862.06 366.18 C 863.11 369.44 861.15 372.54 860.44 375.64 C 860.23 377.75 861.58 379.81 861.04 381.92 C 859.31 387.97 856.70 393.79 852.84 398.79 C 849.86 403.87 845.42 407.97 843.12 413.46 C 840.30 411.91 837.48 410.22 835.61 407.53 C 836.83 403.67 841.02 402.34 843.55 399.52 C 845.86 396.90 849.38 396.09 852.14 394.12 C 852.66 391.36 852.19 388.37 853.90 385.94 C 856.92 380.79 855.31 374.61 853.93 369.21 C 850.87 359.03 847.24 349.01 842.91 339.30 C 841.40 334.93 838.90 330.75 838.76 326.03 C 839.63 322.99 840.94 320.11 842.31 317.27 Z" />
<path fill="#b1b1b1" d=" M 770.87 328.15 C 771.46 324.61 772.82 321.01 775.81 318.80 C 774.76 322.20 772.96 325.30 770.87 328.15 Z" />
<path fill="#e9e9e9" d=" M 777.15 327.97 C 776.80 324.35 777.82 320.90 781.02 318.89 C 779.74 321.92 778.55 324.99 777.15 327.97 Z" />
<path fill="#868686" d=" M 783.88 334.15 C 786.14 328.47 790.18 323.70 794.05 319.03 C 791.80 324.72 788.02 329.71 783.88 334.15 Z" />
<path fill="#fff2f6" d=" M 833.83 319.85 C 836.07 317.99 838.35 320.49 836.18 322.50 C 834.97 322.00 834.18 321.11 833.83 319.85 Z" />
<path fill="#932526" d=" M 826.97 323.66 C 829.10 322.14 831.45 320.97 833.83 319.85 C 834.18 321.11 834.97 322.00 836.18 322.50 C 834.96 326.44 835.23 330.64 836.03 334.63 C 837.20 331.85 838.01 328.94 838.76 326.03 C 838.90 330.75 841.40 334.93 842.91 339.30 C 847.24 349.01 850.87 359.03 853.93 369.21 C 855.31 374.61 856.92 380.79 853.90 385.94 C 852.19 388.37 852.66 391.36 852.14 394.12 C 849.38 396.09 845.86 396.90 843.55 399.52 C 841.02 402.34 836.83 403.67 835.61 407.53 C 835.06 406.37 834.57 405.18 834.05 404.03 C 836.50 397.01 844.18 394.09 847.50 387.58 C 848.08 384.01 847.57 380.37 847.05 376.83 C 844.65 365.48 841.86 354.06 836.29 343.78 C 834.51 340.84 834.22 337.33 832.79 334.24 C 831.11 330.58 828.99 327.14 826.97 323.66 Z" />
<path fill="#686868" d=" M 541.32 327.98 C 542.10 325.30 541.58 321.22 545.01 320.41 C 547.85 321.43 548.00 324.93 548.99 327.36 C 551.16 327.65 553.53 327.18 555.55 328.16 C 556.97 330.68 557.68 333.56 558.79 336.23 C 558.42 342.36 556.77 348.30 555.35 354.25 C 553.65 354.47 551.94 354.67 550.25 354.90 C 550.63 357.68 552.58 359.64 554.32 361.66 C 554.67 363.01 554.58 364.43 554.68 365.82 C 553.07 366.27 551.45 366.65 549.82 366.96 C 549.12 371.47 544.54 372.89 541.93 376.05 C 540.05 378.19 536.04 377.72 534.31 375.58 C 533.96 373.19 536.37 371.66 537.42 369.76 C 536.34 369.17 535.39 368.28 534.16 368.07 C 531.56 368.89 529.02 369.93 526.45 370.84 C 526.19 370.07 525.95 369.30 525.71 368.54 C 525.23 367.06 524.75 365.57 524.28 364.10 C 520.88 365.04 517.36 365.71 514.15 367.19 C 513.12 368.53 512.43 370.08 511.65 371.57 C 506.22 372.42 500.85 370.90 495.76 369.17 C 494.22 371.94 491.77 373.81 488.65 374.47 C 487.34 374.93 488.90 376.00 489.67 375.69 C 493.58 375.81 497.15 377.62 500.95 378.41 C 499.70 378.83 498.43 379.19 497.26 379.79 C 494.70 383.52 494.30 388.61 490.54 391.55 C 487.04 394.44 483.88 397.72 481.34 401.50 C 480.20 401.13 479.06 400.77 477.93 400.41 C 472.92 405.24 468.43 410.63 463.08 415.10 C 459.88 417.85 455.68 418.91 452.24 421.24 C 450.97 424.19 450.88 427.47 450.37 430.60 C 444.75 432.72 440.06 436.73 436.32 441.35 C 433.76 444.57 432.07 448.38 429.54 451.62 C 426.97 454.94 423.09 456.98 420.68 460.44 C 419.04 462.81 417.68 465.37 416.04 467.76 L 415.59 468.43 C 415.39 466.99 415.22 465.55 415.08 464.11 C 412.56 465.73 409.72 466.74 406.70 466.77 C 405.96 464.45 406.23 461.41 403.91 459.96 C 401.32 458.10 398.34 456.90 395.49 455.54 C 395.39 455.04 395.20 454.04 395.11 453.54 C 397.88 453.55 400.64 453.13 403.28 452.25 C 403.27 449.90 403.27 447.56 403.33 445.22 C 404.59 445.36 405.85 445.53 407.12 445.69 C 407.53 447.47 407.83 449.27 408.27 451.05 C 410.28 451.01 412.67 451.95 414.36 450.42 C 415.81 446.48 416.48 442.30 417.61 438.27 C 418.53 434.07 423.13 432.71 426.11 430.27 C 427.64 430.24 429.17 430.21 430.70 430.18 C 430.94 427.32 430.92 424.18 432.80 421.82 C 435.45 418.49 438.93 415.94 441.72 412.73 C 446.25 407.73 449.06 401.50 453.38 396.35 C 457.77 391.09 463.15 386.79 467.79 381.77 C 472.13 377.05 474.42 370.63 479.61 366.67 C 482.89 364.26 486.69 362.52 489.38 359.37 C 491.73 356.59 494.81 354.62 498.13 353.20 C 498.76 350.56 499.14 347.82 500.28 345.33 C 503.50 344.28 507.16 344.24 509.89 341.99 C 513.27 339.43 516.75 337.01 520.46 334.96 C 524.78 332.60 527.97 328.77 531.81 325.79 C 533.76 324.13 536.46 324.86 538.78 324.83 C 539.63 325.87 540.47 326.92 541.32 327.98 Z" />
<path fill="#616161" d=" M 684.76 322.09 C 685.39 322.22 686.65 322.46 687.28 322.59 C 688.23 324.33 688.89 326.22 689.92 327.93 C 692.49 325.56 694.78 322.79 697.92 321.12 C 701.01 324.42 703.90 328.36 708.58 329.43 C 707.25 333.37 710.22 336.90 711.94 340.19 C 713.68 343.39 717.69 343.69 720.90 344.27 C 720.50 344.56 719.71 345.13 719.31 345.42 C 719.42 347.95 719.69 350.53 719.24 353.05 C 718.47 355.74 716.65 357.92 715.06 360.16 C 715.82 362.53 716.61 364.90 716.96 367.38 C 715.15 367.76 713.33 368.05 711.57 368.58 C 710.56 369.59 710.05 370.97 709.35 372.19 C 705.77 373.84 702.10 375.25 698.08 374.86 C 696.15 376.19 698.43 378.33 698.70 379.99 C 695.97 381.77 693.03 383.51 691.34 386.40 C 689.39 389.82 687.75 393.41 686.27 397.05 C 686.75 399.34 688.30 401.18 689.55 403.09 C 688.18 408.69 686.75 415.21 681.31 418.29 C 682.64 421.49 682.14 424.99 682.32 428.36 C 680.93 428.50 679.56 428.64 678.19 428.77 C 680.06 429.96 682.73 431.11 681.72 433.83 C 679.76 434.93 677.85 433.20 675.92 432.89 C 674.21 433.23 672.67 434.07 671.10 434.77 C 674.25 436.44 676.97 438.74 678.99 441.69 C 681.28 441.34 683.70 441.00 685.60 439.55 C 688.15 437.82 688.59 434.50 690.02 431.97 C 691.20 429.31 693.75 427.15 693.58 424.03 C 693.78 419.51 694.61 414.98 696.81 410.99 C 698.27 411.33 699.61 411.95 700.83 412.83 C 700.10 414.42 698.91 415.70 697.47 416.67 C 699.09 416.52 700.72 416.47 702.36 416.48 C 702.27 418.86 701.00 421.44 702.28 423.70 C 704.44 428.80 709.88 431.08 714.12 434.12 C 713.55 437.61 709.65 435.11 707.41 435.94 C 704.76 437.08 701.95 436.57 699.20 436.34 C 697.47 436.93 695.98 438.03 694.42 438.95 C 695.17 440.27 695.92 441.60 696.67 442.94 C 698.78 442.05 700.84 441.07 702.93 440.12 C 704.86 441.57 706.78 443.21 706.96 445.82 C 700.69 446.51 694.15 445.74 688.25 448.46 C 686.29 447.13 684.17 446.11 681.75 446.22 C 681.00 447.96 680.19 449.69 679.38 451.41 C 678.12 453.37 679.58 455.58 679.69 457.66 C 678.11 456.95 676.59 456.15 675.06 455.37 C 676.00 457.69 676.52 460.63 679.46 461.13 C 679.32 461.85 679.02 463.29 678.87 464.01 C 677.53 463.77 676.17 463.61 674.90 463.14 C 674.26 461.53 673.87 459.84 673.43 458.18 C 672.05 461.93 669.76 465.22 667.90 468.73 C 667.32 470.15 665.85 470.75 664.65 471.54 C 665.17 472.62 665.67 473.70 666.19 474.80 C 664.43 476.91 663.02 479.36 660.88 481.13 C 658.45 481.58 656.02 480.70 653.64 480.34 C 652.79 482.08 650.78 483.74 651.69 485.87 C 652.93 487.83 655.24 488.62 656.99 490.04 C 659.89 491.86 658.41 496.13 660.71 498.36 C 663.20 500.82 666.24 503.33 666.64 507.06 C 666.87 509.93 667.45 513.81 664.54 515.58 C 661.70 517.44 658.49 515.29 655.85 514.12 C 655.01 514.63 654.18 515.15 653.38 515.71 C 654.26 518.17 655.12 520.64 655.94 523.14 C 657.72 523.46 659.53 523.62 661.33 523.95 C 661.42 524.77 661.60 526.41 661.69 527.23 C 660.43 527.71 659.19 528.21 657.96 528.71 C 659.54 528.58 661.13 528.48 662.74 528.39 C 662.20 529.86 661.64 531.32 661.11 532.80 C 662.47 532.28 663.83 531.75 665.20 531.23 C 665.97 531.99 666.76 532.77 667.54 533.55 C 669.28 532.21 671.34 529.64 673.77 530.89 C 676.35 532.78 678.68 535.01 680.94 537.27 C 684.33 536.44 687.84 536.52 691.31 536.45 C 691.18 538.64 692.74 541.79 690.10 543.00 C 686.68 546.01 681.87 545.94 678.07 548.26 C 676.35 547.31 674.64 546.36 672.92 545.43 C 669.92 546.91 666.69 548.00 663.31 547.46 C 664.85 548.50 666.28 549.70 666.98 551.50 C 660.12 551.86 653.79 548.43 646.99 548.55 C 643.92 548.37 641.15 546.72 638.06 546.64 C 631.91 546.02 626.06 548.99 619.92 548.28 C 616.98 548.08 614.43 546.52 611.87 545.24 C 610.37 548.01 608.09 550.15 604.89 550.67 C 604.20 553.33 602.44 555.03 599.61 554.98 C 598.10 551.99 595.71 549.65 592.83 547.99 C 591.34 549.59 591.36 551.69 591.51 553.74 C 590.59 554.13 589.67 554.51 588.75 554.89 C 588.49 552.46 588.33 549.91 586.52 548.06 C 585.29 548.67 584.11 549.39 582.82 549.84 C 580.11 549.01 577.61 547.37 574.66 547.56 C 575.91 548.74 577.23 549.85 578.46 551.07 C 578.26 552.32 577.84 553.52 577.21 554.67 C 574.94 553.46 572.66 552.13 570.00 552.27 C 567.34 552.49 565.77 550.11 564.06 548.53 C 559.10 550.14 553.65 548.93 548.92 551.33 C 547.87 550.73 546.84 550.14 545.81 549.54 C 544.34 550.62 542.94 551.97 541.09 552.35 C 539.17 551.16 537.64 549.46 535.74 548.25 C 532.67 548.63 530.14 550.79 527.06 551.18 C 520.34 552.68 513.95 548.49 507.21 549.39 C 502.99 550.05 499.20 547.38 494.98 547.54 C 493.88 549.23 493.20 551.35 491.50 552.55 C 489.11 553.46 487.44 551.25 485.81 549.93 C 479.28 551.42 472.56 550.30 465.95 550.71 C 462.65 550.51 461.01 554.29 457.90 554.69 C 454.74 555.07 451.56 554.75 448.41 554.60 C 448.38 553.76 448.34 552.09 448.31 551.25 C 447.15 552.73 446.27 555.48 443.86 554.53 C 443.60 553.77 443.07 552.26 442.81 551.51 C 437.67 551.11 432.89 553.17 427.99 554.27 C 423.77 553.06 419.46 552.37 415.10 551.90 C 411.48 552.16 408.08 553.47 405.06 555.44 C 404.46 555.13 403.28 554.53 402.69 554.22 C 402.14 552.50 401.86 550.71 401.53 548.95 C 402.72 546.74 405.30 545.80 407.22 544.33 C 405.64 544.37 404.06 544.35 402.51 544.56 C 400.47 545.84 399.42 548.28 397.21 549.33 C 394.49 550.68 392.03 552.74 389.04 553.41 C 385.51 553.23 386.05 548.91 386.41 546.45 C 387.80 545.18 389.77 545.01 391.50 544.53 C 391.41 543.11 391.33 541.69 391.27 540.29 C 393.70 538.49 396.14 536.70 398.62 534.98 C 398.72 537.50 398.71 540.03 398.76 542.56 C 400.32 542.22 401.91 541.95 403.45 541.47 C 405.14 538.84 407.19 536.52 409.50 534.41 C 410.61 532.40 408.38 530.63 407.25 529.21 C 410.06 524.87 407.75 519.04 410.91 514.89 C 413.69 509.72 416.83 504.68 421.29 500.77 C 419.65 498.74 417.94 496.77 416.16 494.88 C 416.90 492.92 417.58 490.93 417.86 488.85 C 416.15 488.32 414.40 487.92 412.79 487.15 C 412.42 485.99 412.28 484.77 412.05 483.59 C 414.33 483.11 416.63 482.67 418.94 482.27 C 417.95 478.01 415.79 473.64 417.96 469.37 C 417.31 468.82 416.67 468.29 416.04 467.76 C 417.68 465.37 419.04 462.81 420.68 460.44 C 423.09 456.98 426.97 454.94 429.54 451.62 C 432.07 448.38 433.76 444.57 436.32 441.35 C 440.06 436.73 444.75 432.72 450.37 430.60 C 450.88 427.47 450.97 424.19 452.24 421.24 C 455.68 418.91 459.88 417.85 463.08 415.10 C 468.43 410.63 472.92 405.24 477.93 400.41 C 479.06 400.77 480.20 401.13 481.34 401.50 C 483.88 397.72 487.04 394.44 490.54 391.55 C 494.30 388.61 494.70 383.52 497.26 379.79 C 498.43 379.19 499.70 378.83 500.95 378.41 C 504.27 379.97 507.38 381.93 510.46 383.92 C 511.32 382.40 512.91 381.03 512.71 379.13 C 512.54 376.71 509.16 375.28 509.70 372.87 C 510.46 372.65 511.99 372.22 512.75 372.01 C 516.74 369.81 521.10 368.48 525.71 368.54 C 525.95 369.30 526.19 370.07 526.45 370.84 C 527.24 372.77 527.31 374.87 527.23 376.94 C 531.23 380.85 536.01 385.06 536.00 391.16 C 534.11 391.25 532.05 391.88 530.32 390.83 C 527.83 389.73 526.65 387.11 525.11 385.06 C 522.60 386.08 520.19 387.31 517.89 388.73 C 516.48 388.22 515.09 387.70 513.69 387.20 C 513.55 389.78 513.40 392.39 512.79 394.92 C 515.06 394.44 517.43 393.12 519.76 394.05 C 522.56 395.08 525.46 395.82 528.27 396.83 C 530.25 398.33 531.96 400.19 534.10 401.52 C 534.29 399.73 534.32 397.93 534.61 396.16 C 538.10 398.16 541.57 400.21 545.31 401.73 C 545.55 399.41 545.92 397.11 546.39 394.83 C 548.24 395.74 550.05 396.77 551.87 397.76 C 552.84 396.43 553.70 395.03 554.66 393.68 C 556.25 393.56 557.83 393.43 559.43 393.33 C 559.06 391.62 558.70 389.92 558.37 388.22 C 555.74 388.61 553.05 389.40 550.40 388.68 C 551.42 387.69 552.45 386.72 553.50 385.76 C 552.92 383.58 552.40 381.38 552.08 379.15 C 552.79 378.99 554.20 378.66 554.91 378.50 C 556.66 380.98 558.55 383.42 561.15 385.08 C 560.55 383.28 559.83 381.53 559.06 379.82 C 559.68 378.64 560.34 377.48 560.98 376.32 C 558.38 372.91 561.07 369.23 563.72 366.89 C 566.37 365.87 569.43 364.49 572.26 365.62 C 573.95 367.08 573.84 369.54 574.39 371.54 C 575.55 372.12 576.76 372.65 577.84 373.40 C 578.41 375.79 578.59 378.37 578.02 380.78 C 576.53 382.11 574.77 383.10 573.23 384.36 C 574.31 386.70 577.74 387.12 578.18 389.94 C 579.10 393.49 580.98 397.21 580.04 400.93 C 579.67 403.66 576.53 403.67 574.46 404.38 C 575.30 404.91 576.14 405.46 576.98 406.02 C 575.25 409.86 575.36 415.56 570.29 416.56 C 574.90 416.12 578.47 419.91 582.86 420.78 C 583.12 424.66 580.39 427.53 578.03 430.25 C 573.52 429.23 569.89 431.97 566.05 433.79 C 564.60 432.31 563.17 430.82 561.80 429.27 C 559.76 430.52 557.72 431.79 555.64 432.98 C 553.81 434.38 552.02 432.32 550.35 431.68 C 550.32 430.57 550.29 429.46 550.26 428.36 C 553.19 428.82 556.12 428.46 558.05 425.99 C 556.39 425.14 554.71 424.35 553.08 423.46 C 553.56 421.32 554.41 419.27 554.73 417.10 C 554.66 414.19 554.14 411.32 553.68 408.46 C 552.41 408.43 551.16 408.41 549.90 408.40 C 548.88 412.05 546.17 414.98 542.81 416.63 C 540.36 416.32 538.30 414.61 536.01 413.74 C 534.15 414.95 532.44 417.04 529.99 416.69 C 527.06 416.75 524.71 414.73 522.15 413.64 C 523.13 416.16 524.67 418.44 525.50 421.03 C 525.16 423.83 522.46 425.33 520.42 426.86 C 520.79 428.68 521.18 430.49 521.52 432.33 C 519.63 432.33 517.76 432.29 515.89 432.27 C 516.10 432.80 516.51 433.88 516.72 434.41 C 520.05 435.42 523.34 436.70 526.23 438.69 C 526.48 438.05 527.00 436.76 527.25 436.12 C 532.14 435.77 536.90 437.24 541.27 439.32 C 541.37 438.03 541.49 436.74 541.64 435.47 C 545.40 435.96 550.86 437.38 551.18 441.96 C 552.43 447.90 547.13 452.08 544.94 457.08 C 550.00 457.37 552.68 461.83 555.79 465.17 C 557.36 466.72 557.38 469.01 557.65 471.07 C 555.83 471.62 554.07 472.41 552.17 472.59 C 549.22 471.53 546.82 469.43 544.05 468.03 C 543.02 469.92 541.85 471.76 539.98 472.92 C 539.07 471.40 538.27 469.84 537.44 468.29 C 535.69 472.46 534.03 476.82 535.56 481.35 C 539.40 482.83 543.42 483.59 547.55 483.38 C 548.72 485.31 549.89 487.25 551.20 489.10 C 551.65 487.59 552.10 486.09 552.57 484.60 C 556.84 483.77 559.99 479.17 564.59 480.44 C 566.02 480.94 566.54 482.63 567.51 483.70 C 570.37 483.71 573.30 483.59 575.94 482.34 C 574.72 480.47 573.46 478.63 572.21 476.79 C 574.63 473.14 579.19 472.58 582.83 470.72 C 585.55 472.46 588.73 472.47 591.82 472.81 C 592.59 473.88 593.30 475.01 593.95 476.18 C 591.37 477.73 588.47 478.57 585.71 479.72 C 584.28 481.37 583.81 483.75 581.98 485.05 C 579.92 486.49 577.74 487.76 575.72 489.24 C 577.93 489.65 580.24 489.79 582.36 490.63 C 584.68 491.99 586.61 493.92 588.88 495.39 C 587.09 492.06 583.09 488.88 584.67 484.70 C 586.28 481.81 590.00 482.85 592.61 481.79 C 595.06 480.72 597.58 479.85 600.07 478.87 C 601.79 477.33 602.88 475.20 604.68 473.74 C 607.20 472.80 609.93 472.78 612.58 472.54 C 613.82 468.07 615.15 463.50 618.47 460.08 C 617.47 458.01 615.39 455.91 616.39 453.44 C 617.07 450.79 619.79 449.71 622.21 449.18 C 622.66 450.64 623.13 452.11 623.57 453.60 C 624.95 452.25 626.13 450.43 628.15 450.03 C 630.95 449.49 633.84 449.43 636.65 448.84 C 636.63 448.26 636.59 447.10 636.57 446.52 C 634.11 445.61 631.63 444.58 628.98 444.52 C 626.23 444.19 624.00 446.15 621.54 446.98 C 622.40 444.29 623.86 441.87 625.19 439.40 C 623.75 439.01 622.32 438.62 620.89 438.23 C 619.17 439.45 617.34 440.54 615.34 441.23 C 615.35 439.89 615.38 438.55 615.43 437.21 C 617.38 437.14 619.31 437.50 621.28 437.55 C 621.92 434.98 620.97 432.47 620.72 429.93 C 621.26 427.01 622.56 423.72 625.68 422.75 C 629.41 421.55 633.26 420.72 636.92 419.26 C 635.66 418.40 634.30 417.67 633.25 416.57 C 633.13 412.37 634.75 408.12 637.77 405.15 C 639.32 405.69 640.89 406.25 642.46 406.81 C 643.04 403.15 643.81 399.51 644.85 395.95 C 648.17 394.62 651.42 393.11 654.63 391.51 C 654.53 389.18 654.88 386.62 653.31 384.68 C 651.60 382.61 651.61 379.95 651.79 377.42 C 650.37 377.39 648.96 377.35 647.55 377.29 C 646.35 372.36 651.57 370.46 654.50 367.72 C 652.67 364.60 649.63 360.15 653.14 357.06 C 654.76 355.25 657.00 356.80 658.55 357.83 C 658.51 359.90 658.43 361.96 658.35 364.03 C 659.43 361.08 660.18 357.75 662.83 355.76 C 664.02 359.91 663.52 364.60 661.16 368.26 C 659.70 367.33 658.36 366.25 656.96 365.27 C 656.37 367.32 655.81 369.38 655.24 371.44 C 659.18 372.83 662.04 369.42 665.34 367.90 C 664.90 366.72 664.19 365.57 664.29 364.28 C 664.51 359.62 664.70 354.94 664.05 350.30 C 664.64 350.28 665.80 350.23 666.38 350.21 C 666.74 352.49 667.17 354.76 667.58 357.04 C 668.55 355.15 669.54 353.26 670.60 351.41 C 669.61 349.89 668.06 348.38 668.43 346.41 C 669.06 344.75 670.88 344.45 672.41 344.13 C 673.19 345.39 673.98 346.64 674.76 347.91 C 674.69 345.14 674.63 342.38 674.55 339.62 C 676.06 339.50 677.57 339.39 679.09 339.28 C 676.98 337.68 674.87 336.08 672.87 334.36 C 674.67 334.48 676.47 334.65 678.28 334.81 C 677.50 332.86 676.77 330.89 676.12 328.91 C 678.11 330.90 679.98 333.19 682.74 334.15 C 684.16 330.28 684.84 326.21 684.76 322.09 Z" />
<path fill="#fbf9f7" d=" M 826.97 323.66 C 828.99 327.14 831.11 330.58 832.79 334.24 C 834.22 337.33 834.51 340.84 836.29 343.78 C 841.86 354.06 844.65 365.48 847.05 376.83 C 847.57 380.37 848.08 384.01 847.50 387.58 C 844.18 394.09 836.50 397.01 834.05 404.03 C 833.56 403.03 833.02 402.07 832.45 401.15 C 831.28 399.27 829.55 397.41 829.93 395.03 C 830.20 390.71 830.65 386.41 831.13 382.11 C 831.00 380.51 832.25 379.58 833.59 379.03 C 832.89 385.70 831.16 392.35 831.62 399.08 C 833.42 394.33 836.17 389.86 836.81 384.74 C 837.12 382.16 836.24 379.49 837.15 376.99 C 838.00 374.23 839.11 371.22 837.95 368.37 C 835.77 362.74 832.69 357.51 829.85 352.19 C 828.13 348.87 825.64 345.85 824.85 342.12 C 825.55 338.80 825.78 335.39 825.59 332.00 C 825.61 329.16 824.76 325.94 826.97 323.66 Z" />
<path fill="#88393f" d=" M 896.22 327.58 C 897.22 329.38 898.29 331.17 898.89 333.16 C 899.52 337.42 901.19 341.68 900.29 346.04 C 899.59 350.43 897.26 354.49 897.31 359.01 C 897.15 367.36 897.35 375.71 896.79 384.05 C 895.56 375.62 896.51 367.03 894.99 358.61 C 897.78 348.51 897.16 337.90 896.22 327.58 Z" />
<path fill="#f8f8f8" d=" M 782.69 341.05 C 785.56 337.07 789.08 333.55 792.92 330.52 C 790.49 334.67 787.94 340.20 782.69 341.05 Z" />
<path fill="#87292d" d=" M 823.10 351.26 C 823.91 348.26 824.32 345.18 824.85 342.12 C 825.64 345.85 828.13 348.87 829.85 352.19 C 832.69 357.51 835.77 362.74 837.95 368.37 C 839.11 371.22 838.00 374.23 837.15 376.99 C 836.24 379.49 837.12 382.16 836.81 384.74 C 836.17 389.86 833.42 394.33 831.62 399.08 C 831.16 392.35 832.89 385.70 833.59 379.03 C 833.90 377.05 834.48 375.08 834.31 373.06 C 831.94 365.17 827.41 358.19 823.10 351.26 Z" />
<path fill="#fafafa" d=" M 551.97 343.08 C 552.31 345.02 552.71 346.96 553.18 348.89 C 551.47 349.47 549.78 350.09 548.11 350.74 C 549.84 348.43 551.26 345.90 551.97 343.08 Z" />
<path fill="#565656" d=" M 652.13 351.60 C 653.35 351.48 654.58 351.37 655.81 351.27 C 655.62 352.39 655.43 353.52 655.24 354.65 C 653.19 354.74 652.20 353.58 652.13 351.60 Z" />
<path fill="#922621" d=" M 901.03 362.65 C 900.05 358.79 900.70 354.79 901.86 351.05 C 904.35 356.33 905.71 362.17 905.39 368.02 C 905.22 371.00 907.05 373.51 907.91 376.25 C 909.36 380.50 908.04 385.18 909.60 389.41 C 910.36 391.63 912.04 393.32 913.60 395.01 C 911.56 394.68 909.21 394.89 907.84 393.06 C 904.82 389.82 902.58 385.73 901.42 381.47 C 901.10 375.20 902.47 368.86 901.03 362.65 Z" />
<path fill="#922627" d=" M 894.99 358.61 C 896.51 367.03 895.56 375.62 896.79 384.05 C 898.08 386.18 899.98 387.89 901.13 390.12 C 901.43 391.93 901.40 393.79 901.72 395.62 C 902.81 398.11 904.36 400.41 905.02 403.09 C 902.18 405.28 899.52 407.69 896.61 409.78 C 895.13 402.79 894.79 395.59 892.56 388.76 C 891.67 378.70 891.97 368.34 894.99 358.61 Z" />
<path fill="#fbfbfb" d=" M 514.15 367.19 C 517.36 365.71 520.88 365.04 524.28 364.10 C 524.75 365.57 525.23 367.06 525.71 368.54 C 521.10 368.48 516.74 369.81 512.75 372.01 C 512.48 371.90 511.93 371.68 511.65 371.57 C 512.43 370.08 513.12 368.53 514.15 367.19 Z" />
<path fill="#fcfcfc" d=" M 320.39 374.01 C 322.53 372.41 324.63 370.77 326.74 369.13 C 327.51 370.04 328.25 370.99 328.99 371.95 C 329.00 375.36 329.11 378.77 329.08 382.18 C 327.90 381.11 326.72 380.04 325.56 378.97 C 323.82 377.33 322.11 375.66 320.39 374.01 Z" />
<path fill="#fcfcfc" d=" M 488.65 374.47 C 491.77 373.81 494.22 371.94 495.76 369.17 C 500.85 370.90 506.22 372.42 511.65 371.57 C 511.93 371.68 512.48 371.90 512.75 372.01 C 511.99 372.22 510.46 372.65 509.70 372.87 C 509.16 375.28 512.54 376.71 512.71 379.13 C 512.91 381.03 511.32 382.40 510.46 383.92 C 507.38 381.93 504.27 379.97 500.95 378.41 C 497.15 377.62 493.58 375.81 489.67 375.69 C 488.90 376.00 487.34 374.93 488.65 374.47 Z" />
<path fill="#fdfdfd" d=" M 310.39 370.07 C 311.62 370.55 312.84 371.05 314.07 371.58 C 313.38 374.20 312.50 376.77 311.43 379.27 C 309.87 378.20 308.32 377.13 306.83 375.98 C 305.61 374.96 304.47 373.86 303.40 372.71 C 305.74 371.84 308.05 370.92 310.39 370.07 Z" />
<path fill="#5c5c5c" d=" M 544.91 374.02 C 545.70 373.82 547.30 373.42 548.09 373.22 C 548.59 375.15 549.12 377.09 549.63 379.02 C 547.58 377.90 542.41 377.17 544.91 374.02 Z" />
<path fill="#faf9f8" d=" M 862.51 388.39 C 863.26 384.72 865.18 381.50 867.82 378.88 C 864.68 387.33 864.21 396.62 865.71 405.46 C 866.42 409.32 863.11 412.27 861.95 415.70 C 858.88 415.72 855.81 415.71 852.76 415.50 C 854.21 411.34 856.44 407.42 857.14 403.03 C 857.86 397.79 861.33 393.51 862.51 388.39 Z" />
<path fill="#5c5c5c" d=" M 699.25 381.27 C 700.32 379.42 702.67 380.64 704.26 380.95 C 703.62 382.44 703.23 384.14 701.93 385.23 C 699.57 386.34 697.51 383.03 699.25 381.27 Z" />
<path fill="#565656" d=" M 705.18 383.86 C 706.39 383.74 707.60 383.70 708.83 383.72 C 708.73 385.34 708.65 386.96 708.57 388.59 C 707.49 388.57 706.43 388.56 705.37 388.54 C 705.29 386.98 705.23 385.41 705.18 383.86 Z" />
<path fill="#5c5c5c" d=" M 695.29 392.06 C 695.91 392.10 697.16 392.18 697.79 392.22 C 697.63 392.70 697.32 393.66 697.17 394.15 C 696.73 394.31 695.85 394.63 695.42 394.79 C 695.38 394.11 695.32 392.74 695.29 392.06 Z" />
<path fill="#4b4b4b" d=" M 715.05 400.11 C 712.95 398.59 713.99 396.69 715.04 394.90 C 716.75 396.48 716.83 398.54 715.05 400.11 Z" />
<path fill="#5c5c5c" d=" M 693.47 397.50 C 694.00 397.47 695.06 397.42 695.59 397.40 C 695.57 398.42 695.55 399.45 695.53 400.48 C 694.96 400.50 693.83 400.53 693.26 400.55 C 693.31 399.52 693.38 398.51 693.47 397.50 Z" />
<path fill="#000000" d=" M 905.02 403.09 C 907.74 401.18 911.02 400.30 914.13 399.20 C 918.47 405.09 922.83 410.97 926.94 417.04 C 929.87 421.17 929.88 426.43 931.91 430.93 C 933.24 432.01 934.85 432.72 936.19 433.83 C 938.66 435.85 938.85 439.59 941.56 441.41 C 947.14 445.59 953.10 451.53 952.29 459.11 C 954.26 459.78 956.44 460.50 957.66 462.34 C 959.60 464.64 958.45 468.21 960.58 470.44 C 963.19 473.32 964.80 476.87 966.38 480.39 C 967.15 483.15 967.70 486.10 969.60 488.38 C 971.27 490.35 972.51 493.12 975.24 493.80 C 977.41 494.66 979.79 494.56 982.11 494.69 C 984.48 498.30 987.37 501.48 990.38 504.56 C 991.23 508.17 990.44 512.09 990.05 515.77 C 991.19 516.02 992.34 516.26 993.51 516.49 C 993.81 518.78 993.94 521.13 994.64 523.34 C 997.44 526.52 1001.74 528.48 1003.26 532.68 C 1004.61 535.62 1005.42 540.23 1002.18 542.23 C 999.59 544.41 996.05 543.14 993.00 543.36 C 961.00 543.00 929.00 543.51 897.00 543.45 C 867.33 543.22 837.67 543.21 808.00 543.27 C 796.67 543.16 785.31 543.65 774.00 542.82 C 758.67 542.77 743.34 542.18 728.00 542.39 C 722.48 542.18 716.13 543.62 711.71 539.37 C 706.40 532.54 709.58 522.74 715.28 517.21 C 719.66 511.26 723.18 504.58 725.59 497.60 C 728.37 494.65 732.41 493.22 735.53 490.63 C 740.73 490.57 744.95 487.21 749.74 485.57 C 755.03 482.83 760.74 481.09 766.43 479.39 C 770.51 475.40 775.54 472.59 779.96 468.99 C 783.71 465.82 788.28 463.92 792.36 461.24 C 796.22 458.79 800.17 456.14 804.87 455.72 C 810.00 454.90 812.66 450.21 815.69 446.55 C 817.71 439.82 819.26 432.83 822.68 426.61 C 823.82 423.44 825.91 420.07 824.67 416.64 C 823.89 414.12 825.61 411.80 826.70 409.66 C 828.73 406.90 830.43 403.92 832.45 401.15 C 833.02 402.07 833.56 403.03 834.05 404.03 C 834.57 405.18 835.06 406.37 835.61 407.53 C 837.48 410.22 840.30 411.91 843.12 413.46 C 846.07 415.04 849.47 415.31 852.76 415.50 C 855.81 415.71 858.88 415.72 861.95 415.70 C 865.05 415.65 868.15 415.78 871.26 415.82 C 874.74 415.74 878.23 415.53 881.70 415.14 C 884.09 414.81 886.49 414.47 888.87 414.04 C 891.96 413.76 894.15 411.41 896.61 409.78 C 899.52 407.69 902.18 405.28 905.02 403.09 Z" />
<path fill="#979797" d=" M 356.39 400.77 C 357.48 402.00 358.34 403.41 358.76 405.03 C 359.44 407.73 361.63 409.59 363.16 411.81 C 359.50 411.79 355.86 411.44 352.21 411.21 C 352.73 407.43 354.37 403.96 356.39 400.77 Z" />
<path fill="#5b5b5b" d=" M 691.26 408.86 C 690.82 405.85 692.35 402.68 695.80 402.92 C 695.76 404.39 696.32 406.06 695.46 407.41 C 694.61 408.92 692.67 408.53 691.26 408.86 Z" />
<path fill="#c6c6c6" d=" M 558.29 406.98 C 561.37 405.79 560.50 409.83 557.96 409.35 C 555.80 409.55 556.73 407.01 558.29 406.98 Z" />
<path fill="#b1b1b1" d=" M 314.61 409.67 C 317.64 408.73 320.76 408.14 323.93 407.95 C 323.73 408.48 323.33 409.53 323.12 410.05 C 321.28 410.77 319.46 411.53 317.65 412.33 C 320.80 415.23 325.14 415.70 329.14 416.51 C 327.84 418.60 326.55 421.30 323.86 421.77 C 320.79 421.35 317.59 420.75 314.86 419.20 C 314.15 416.08 314.54 412.84 314.61 409.67 Z" />
<path fill="#adadad" d=" M 318.24 431.72 C 321.93 435.71 320.31 441.50 318.99 446.14 C 317.28 449.19 312.82 446.12 313.41 443.28 C 313.09 440.71 315.63 439.60 317.37 438.38 C 317.63 436.15 317.89 433.93 318.24 431.72 Z" />
<path fill="#fbfbfb" d=" M 393.15 432.41 C 393.92 432.34 395.47 432.21 396.25 432.15 C 397.05 434.73 395.75 436.88 393.90 438.61 C 392.94 437.75 391.95 436.94 391.14 435.96 C 391.72 434.73 392.41 433.55 393.15 432.41 Z" />
<path fill="#ffffff" d=" M 865.14 435.26 C 867.51 435.33 869.97 435.09 872.27 435.80 C 875.13 437.49 877.11 440.27 879.68 442.33 C 886.16 446.54 893.59 448.86 900.25 452.72 C 905.00 454.71 908.33 458.89 913.02 460.99 C 916.73 463.30 921.65 463.87 924.16 467.82 C 929.46 473.22 935.64 477.81 941.43 482.61 C 942.96 486.20 944.29 490.02 947.07 492.89 C 948.65 494.30 949.11 496.38 949.64 498.35 C 953.98 499.72 956.42 503.60 958.78 507.19 C 959.96 510.16 959.07 513.53 960.25 516.52 C 961.23 520.17 964.63 522.31 966.96 525.05 C 969.26 528.02 969.53 531.95 969.65 535.58 C 916.10 535.85 862.54 535.41 808.99 535.80 C 795.68 536.79 782.33 536.63 769.00 536.81 C 755.90 537.88 742.73 537.37 729.60 537.46 C 732.19 532.58 735.26 527.93 738.52 523.49 C 742.52 522.52 746.67 521.51 749.42 518.19 C 757.22 517.20 762.69 511.05 768.81 506.77 C 770.98 505.39 772.58 503.24 774.90 502.07 C 777.75 500.85 780.84 500.19 783.55 498.63 C 791.22 493.11 799.26 488.04 807.60 483.58 C 811.03 482.90 814.32 481.92 817.10 479.71 C 822.89 479.99 827.80 476.56 832.02 472.99 C 835.04 469.66 837.01 465.37 840.89 462.86 C 844.85 460.07 846.62 455.24 850.21 452.14 C 854.77 450.27 857.23 445.89 860.54 442.53 C 862.61 440.49 863.74 437.76 865.14 435.26 Z" />
<path fill="#5f5f5f" d=" M 602.35 437.41 C 603.83 435.46 606.83 436.45 608.96 436.27 C 608.63 439.42 608.67 442.60 608.65 445.77 C 608.81 448.25 605.55 449.76 603.58 448.54 C 602.72 447.81 601.93 447.02 601.21 446.18 C 602.32 443.35 602.42 440.39 602.35 437.41 Z" />
<path fill="#5b5b5b" d=" M 609.75 450.12 C 610.46 448.26 612.63 448.52 614.21 448.08 C 614.16 449.85 613.98 451.62 613.72 453.38 C 612.94 453.71 611.38 454.38 610.60 454.71 C 610.07 453.24 609.01 451.70 609.75 450.12 Z" />
<path fill="#5c5c5c" d=" M 600.03 459.89 C 600.53 456.91 602.67 454.62 605.88 455.23 C 605.47 457.20 604.75 459.09 603.86 460.89 C 602.57 460.56 601.29 460.23 600.03 459.89 Z" />
<path fill="#5a5a5a" d=" M 583.78 463.87 C 584.88 463.54 586.01 463.28 587.17 463.11 C 587.22 464.87 587.95 466.99 586.37 468.34 C 585.26 469.70 583.49 469.25 581.99 469.30 C 582.42 467.49 581.88 464.96 583.78 463.87 Z" />
<path fill="#696969" d=" M 397.34 473.84 C 397.91 470.45 398.95 466.36 402.95 465.74 C 402.54 468.11 401.84 470.43 401.13 472.73 C 402.84 472.19 404.53 471.55 406.27 471.08 C 406.51 475.68 410.65 478.57 410.93 483.06 C 408.78 483.27 406.62 483.36 404.47 483.39 C 404.53 485.43 405.15 487.84 403.44 489.42 C 401.09 492.37 396.83 490.56 393.87 491.99 C 391.79 493.87 390.02 496.18 387.33 497.25 C 387.39 495.04 387.57 492.84 387.67 490.64 C 384.63 489.92 380.97 489.30 379.96 485.82 C 378.10 482.37 381.92 480.09 384.17 478.24 C 386.34 476.79 385.91 473.57 387.97 472.01 C 389.85 470.36 391.71 468.69 393.56 466.99 C 394.90 469.23 396.21 471.48 397.34 473.84 Z" />
<path fill="#616161" d=" M 409.26 477.37 C 409.86 475.26 410.74 472.82 413.44 473.18 C 413.48 474.32 413.56 476.59 413.60 477.73 C 412.52 477.64 410.34 477.46 409.26 477.37 Z" />
<path fill="#f8f8f8" d=" M 398.45 474.72 C 399.77 475.67 400.59 477.06 401.22 478.54 C 400.50 478.52 399.05 478.47 398.33 478.45 C 398.35 477.20 398.39 475.96 398.45 474.72 Z" />
<path fill="#f1f1f1" d=" M 653.85 490.89 C 655.43 493.26 655.96 496.05 656.06 498.86 C 655.44 498.82 654.18 498.73 653.55 498.69 C 653.66 496.08 653.73 493.48 653.85 490.89 Z" />
<path fill="#595959" d=" M 681.41 510.60 C 682.80 510.51 684.21 510.44 685.62 510.39 C 685.52 511.77 685.42 513.15 685.33 514.55 C 684.11 514.40 682.88 514.49 681.70 514.26 C 681.53 513.04 681.45 511.81 681.41 510.60 Z" />
<path fill="#606060" d=" M 656.33 522.75 C 655.93 519.72 657.07 517.03 660.13 516.06 C 660.81 517.53 662.31 519.15 661.24 520.84 C 660.35 522.83 658.10 522.48 656.33 522.75 Z" />
<path fill="#595959" d=" M 397.14 524.40 C 397.74 524.43 398.94 524.49 399.55 524.52 C 399.58 525.07 399.65 526.18 399.68 526.73 C 399.02 527.41 398.36 528.08 397.69 528.75 C 396.83 528.48 395.98 528.21 395.14 527.94 C 395.79 526.75 396.46 525.57 397.14 524.40 Z" />
<path fill="#5c5c5c" d=" M 676.32 530.59 C 673.96 527.40 678.34 524.33 681.48 525.13 C 682.76 527.93 686.66 530.38 684.50 533.67 C 681.86 532.39 679.06 531.56 676.32 530.59 Z" />
<path fill="#4b4b4b" d=" M 398.44 531.38 C 399.00 531.35 400.13 531.30 400.69 531.27 C 400.68 531.88 400.67 533.10 400.66 533.71 C 400.06 533.74 398.85 533.80 398.24 533.83 C 398.29 533.22 398.39 531.99 398.44 531.38 Z" />
<path fill="#595959" d=" M 403.14 534.84 C 403.22 533.57 404.42 529.96 405.95 532.04 C 408.14 533.52 404.47 534.88 403.14 534.84 Z" />
<path fill="#fafafa" d=" M 407.57 542.87 C 408.09 540.37 410.05 538.72 411.84 537.09 C 412.24 538.04 412.62 538.99 413.00 539.96 C 411.22 540.99 409.41 541.96 407.57 542.87 Z" />
<path fill="#787878" d=" M 335.53 539.45 C 339.31 536.96 343.38 542.41 340.76 545.68 C 338.88 549.43 333.11 546.61 333.47 542.98 C 333.62 541.64 334.26 540.07 335.53 539.45 Z" />
<path fill="#636363" d=" M 353.41 544.44 C 354.56 544.27 355.72 544.18 356.90 544.15 C 356.61 545.81 356.33 548.70 354.04 548.49 C 351.86 548.76 351.63 545.16 353.41 544.44 Z" />
<path fill="#5f5f5f" d=" M 372.58 551.44 C 371.05 547.18 376.17 545.97 379.21 545.12 C 377.86 547.78 376.59 552.98 372.58 551.44 Z" />
<path fill="#4b4b4b" d=" M 362.52 547.68 C 363.06 547.59 364.13 547.41 364.66 547.33 C 364.65 548.40 364.65 549.49 364.64 550.58 C 364.01 550.59 362.75 550.62 362.11 550.63 C 362.23 549.64 362.36 548.65 362.52 547.68 Z" />
<path fill="#737373" d=" M 326.33 548.50 C 328.54 548.97 330.59 549.94 332.72 550.66 C 332.54 551.62 332.34 552.58 332.12 553.54 C 329.91 552.52 327.62 551.64 325.51 550.43 C 325.46 549.65 325.74 549.01 326.33 548.50 Z" />
<path fill="#cccccc" d=" M 268.10 550.02 C 269.30 549.68 270.50 549.33 271.71 549.00 C 271.83 549.80 272.07 551.40 272.19 552.20 C 270.85 552.56 269.53 552.96 268.19 553.32 C 268.17 552.49 268.12 550.85 268.10 550.02 Z" />
<path fill="#4b4b4b" d=" M 465.82 552.63 C 466.75 552.43 467.68 552.25 468.62 552.10 C 468.57 552.73 468.47 553.98 468.42 554.61 C 467.40 554.67 466.39 554.72 465.38 554.77 C 465.49 554.23 465.71 553.17 465.82 552.63 Z" />
<path fill="#646464" d=" M 482.13 552.53 C 483.55 551.38 485.32 553.82 483.79 554.82 C 482.35 556.01 480.56 553.52 482.13 552.53 Z" />
<path fill="#6f6f6f" d=" M 531.44 554.20 C 532.58 554.05 533.72 553.89 534.87 553.71 C 534.81 554.98 534.74 556.25 534.68 557.53 C 533.60 557.51 532.52 557.49 531.45 557.49 C 531.44 556.39 531.44 555.29 531.44 554.20 Z" />
<path fill="#adadad" d=" M 274.27 555.11 C 275.44 555.42 276.61 555.74 277.79 556.07 C 277.71 556.67 277.55 557.88 277.47 558.48 C 276.34 558.59 275.22 558.71 274.11 558.83 C 274.16 557.59 274.21 556.34 274.27 555.11 Z" />
<path fill="#5c5c5c" d=" M 405.31 558.26 C 406.57 556.81 408.51 557.82 410.06 558.03 C 409.83 561.19 407.29 563.20 404.17 562.92 C 404.40 561.36 403.73 559.28 405.31 558.26 Z" />
<path fill="#4b4b4b" d=" M 545.93 564.10 C 546.98 562.51 548.80 562.31 550.53 562.07 C 550.53 562.75 550.55 564.10 550.56 564.78 C 549.01 564.57 547.46 564.35 545.93 564.10 Z" />
<path fill="#7d7d7d" d=" M 557.36 563.20 C 558.34 561.74 560.92 563.33 559.75 564.81 C 558.76 566.26 556.17 564.67 557.36 563.20 Z" />
</svg>
